<svg width="20" height="17" viewBox="0 0 20 17" fill="none" xmlns="http://www.w3.org/2000/svg">
<path fill-rule="evenodd" clip-rule="evenodd" d="M15.6738 3.71973C17.223 3.71973 18.4697 4.80431 18.4697 6.14223V8.86556C16.2147 10.0056 13.2355 10.6943 9.99051 10.6943C6.74551 10.6943 3.77551 10.0056 1.52051 8.86556V6.13431C1.52051 4.79639 2.77634 3.71973 4.32551 3.71973H15.6738Z" stroke="#3DD368" stroke-width="1.5" stroke-linecap="round" stroke-linejoin="round"/>
<path d="M13.2038 3.71609V3.42634C13.2038 2.46051 12.2963 1.67676 11.1779 1.67676H8.81294C7.69461 1.67676 6.78711 2.46051 6.78711 3.42634V3.71609" stroke="#3DD368" stroke-width="1.5" stroke-linecap="round" stroke-linejoin="round"/>
<path d="M1.54297 11.7573L1.71622 13.7436C1.83355 15.0823 3.12514 16.117 4.67889 16.117H15.3113C16.8651 16.117 18.1566 15.0823 18.274 13.7436L18.4472 11.7573" stroke="#3DD368" stroke-width="1.5" stroke-linecap="round" stroke-linejoin="round"/>
</svg>
