<svg width="66" height="50" viewBox="0 0 66 50" fill="none" xmlns="http://www.w3.org/2000/svg">
<path d="M37.5 29.6252C35 29.6252 32.875 28.7259 31.125 26.9272C29.375 25.1286 28.5 22.9446 28.5 20.3752C28.5 17.8057 29.375 15.6217 31.125 13.8231C32.875 12.0245 35 11.1252 37.5 11.1252C40 11.1252 42.125 12.0245 43.875 13.8231C45.625 15.6217 46.5 17.8057 46.5 20.3752C46.5 22.9446 45.625 25.1286 43.875 26.9272C42.125 28.7259 40 29.6252 37.5 29.6252ZM13.5 40.4168C12.25 40.4168 11.1875 39.9672 10.3125 39.0679C9.4375 38.1686 9 37.0765 9 35.7918V4.9585C9 3.67377 9.4375 2.58176 10.3125 1.68245C11.1875 0.783149 12.25 0.333496 13.5 0.333496H61.5C62.75 0.333496 63.8125 0.783149 64.6875 1.68245C65.5625 2.58176 66 3.67377 66 4.9585V35.7918C66 37.0765 65.5625 38.1686 64.6875 39.0679C63.8125 39.9672 62.75 40.4168 61.5 40.4168H13.5ZM21 35.7918H54C54 33.6335 54.725 31.8092 56.175 30.3189C57.625 28.8286 59.4 28.0835 61.5 28.0835V12.6668C59.4 12.6668 57.625 11.9217 56.175 10.4314C54.725 8.94114 54 7.11683 54 4.9585H21C21 7.11683 20.275 8.94114 18.825 10.4314C17.375 11.9217 15.6 12.6668 13.5 12.6668V28.0835C15.6 28.0835 17.375 28.8286 18.825 30.3189C20.275 31.8092 21 33.6335 21 35.7918ZM57 49.6668H4.5C3.25 49.6668 2.1875 49.2172 1.3125 48.3179C0.4375 47.4186 0 46.3265 0 45.0418V9.5835H4.5V45.0418H57V49.6668Z" fill="#3DD368"/>
</svg>
