<svg width="16" height="13" viewBox="0 0 16 13" fill="none" xmlns="http://www.w3.org/2000/svg">
<path fill-rule="evenodd" clip-rule="evenodd" d="M10.014 0.728771C10.353 0.670716 10.7325 0.651332 11.0897 0.711761C11.7276 0.819682 12.3168 1.11617 12.7826 1.56067C13.087 1.56756 13.3863 1.50758 13.651 1.42207C13.8751 1.3497 14.0644 1.26232 14.197 1.19323C14.2629 1.15888 14.3139 1.12957 14.347 1.10973C14.3635 1.09983 14.3756 1.09233 14.3827 1.0878L14.389 1.08376C14.5869 0.951944 14.8504 0.977599 15.019 1.14527C15.1876 1.31298 15.2148 1.57626 15.0839 1.77486C14.9454 1.98506 14.7532 2.35977 14.5378 2.77961C14.504 2.84562 14.4695 2.91275 14.4347 2.98053C14.3111 3.22051 14.1845 3.46305 14.0664 3.67114C13.9923 3.8018 13.913 3.93445 13.8331 4.04907V4.23159C13.8381 4.90201 13.7612 5.56893 13.6052 6.21775C13.507 6.62598 13.3775 7.02704 13.2173 7.41729C12.8024 8.4284 12.1901 9.34669 11.4163 10.1185C10.6425 10.8904 9.72262 11.5003 8.71044 11.9126C7.69917 12.3246 6.61601 12.5311 5.52411 12.5202C3.94124 12.5216 2.39166 12.0655 1.06184 11.2069C0.865977 11.0804 0.783511 10.8354 0.863069 10.6162C0.942626 10.3971 1.16309 10.262 1.39447 10.2906C1.59471 10.3154 1.79632 10.3275 1.99809 10.3269C2.72305 10.3248 3.43421 10.1646 4.08345 9.86288C3.87709 9.76894 3.68006 9.65311 3.49596 9.51659C2.95482 9.11532 2.55221 8.55535 2.34416 7.9146C2.2901 7.74809 2.32706 7.56543 2.4416 7.43304C2.44365 7.43067 2.44573 7.42833 2.44782 7.426C2.32546 7.3169 2.21098 7.19811 2.10558 7.07036C1.63137 6.49555 1.37025 5.7746 1.3664 5.02944L1.36638 5.02685L1.36639 4.99352C1.36639 4.81628 1.46023 4.65228 1.61303 4.56247C1.65176 4.5397 1.69282 4.52256 1.73505 4.51107C1.5095 4.06101 1.3922 3.56405 1.39306 3.05988C1.39279 2.4887 1.54199 1.92739 1.82583 1.43172C1.90777 1.28863 2.05499 1.19514 2.21934 1.18182C2.38369 1.1685 2.54405 1.23707 2.64795 1.3651C3.28966 2.15578 4.09052 2.80262 4.99851 3.2636C5.46527 3.50057 5.95497 3.6857 6.45883 3.81665C6.74132 3.89007 7.02826 3.94646 7.31811 3.98541C7.30534 3.50324 7.40056 3.02133 7.60038 2.57604C7.8935 1.92283 8.39514 1.38537 9.02663 1.04798C9.29406 0.905093 9.64907 0.791285 10.014 0.728771ZM2.49524 5.76044C2.58167 6.00369 2.71025 6.23191 2.87695 6.43397C3.2045 6.831 3.65913 7.10271 4.16395 7.20313C4.3888 7.24786 4.55443 7.43979 4.56578 7.66877C4.57713 7.89775 4.43129 8.10511 4.21196 8.17186C4.0303 8.22715 3.84418 8.26567 3.65594 8.28706C3.78033 8.4474 3.92665 8.59103 4.09159 8.71333C4.46571 8.99075 4.91701 9.14465 5.38268 9.15361C5.59396 9.15768 5.77987 9.29414 5.84709 9.49448C5.91431 9.69482 5.84832 9.91579 5.68224 10.0465C4.9828 10.5968 4.174 10.9806 3.31697 11.1765C4.02729 11.404 4.77225 11.5211 5.52578 11.5202L5.53158 11.5202C6.49162 11.5302 7.44402 11.3488 8.33316 10.9865C9.22229 10.6243 10.0303 10.0885 10.7101 9.41051C11.3898 8.7325 11.9277 7.92583 12.2922 7.03763C12.4329 6.69481 12.5467 6.3425 12.6329 5.9839C12.7701 5.41339 12.8377 4.82694 12.8331 4.23743L12.8331 4.23352V3.88019C12.8331 3.75895 12.8771 3.64185 12.957 3.55067C13.0032 3.49797 13.084 3.37627 13.1966 3.17767C13.3037 2.98891 13.4223 2.76231 13.5455 2.52286C13.553 2.50837 13.5605 2.49382 13.568 2.47919C13.2483 2.54862 12.8859 2.58501 12.506 2.54396C12.3857 2.53096 12.2742 2.47477 12.1921 2.38581C11.8569 2.02225 11.4105 1.78024 10.9229 1.69775C10.7065 1.66115 10.4449 1.66953 10.1829 1.71442C9.89812 1.76319 9.65032 1.84853 9.49787 1.92998C9.06169 2.16303 8.71519 2.53426 8.51273 2.98545C8.31026 3.43664 8.26328 3.94227 8.37914 4.42304C8.41608 4.57632 8.37856 4.73804 8.27791 4.85939C8.17726 4.98074 8.02526 5.04751 7.8678 5.03955C7.30552 5.01111 6.7492 4.92534 6.20728 4.7845C5.63402 4.6355 5.07686 4.42487 4.54581 4.15526C3.76396 3.75832 3.05193 3.24026 2.43537 2.6218C2.40724 2.76554 2.39296 2.91223 2.39306 3.05986L2.39306 3.06114C2.39236 3.42828 2.48246 3.7899 2.65533 4.1138C2.82821 4.4377 3.07849 4.71383 3.3839 4.9176C3.56924 5.04127 3.6504 5.27265 3.58289 5.485C3.51539 5.69734 3.31553 5.8394 3.09279 5.83334C2.89106 5.82785 2.69102 5.80331 2.49524 5.76044Z" fill="white"/>
</svg>
