<svg width="16" height="18" viewBox="0 0 16 18" fill="none" xmlns="http://www.w3.org/2000/svg">
    <path
        d="M0.999832 17.1794L0.996139 17.1818L0.995502 17.1822L0.582496 17.4515L0.995493 17.1822L0.996131 17.1818L0.999832 17.1794ZM0.999832 17.1794C0.99992 17.1801 0.999985 17.1809 1 17.1818M0.999832 17.1794L1 17.1818M1 17.1818V17.1822C1 17.1821 1 17.182 1 17.1818ZM1 17.1779V2.45455C1 2.03217 1.19168 1.61079 1.561 1.28848C1.93248 0.964278 2.44925 0.772728 3 0.772728H13C13.5508 0.772728 14.0675 0.964278 14.439 1.28848C14.8083 1.61079 15 2.03217 15 2.45455V17.1779C14.9998 17.1782 14.9996 17.1785 14.9994 17.1789L15 17.1793L14.9994 17.1789C14.9961 17.1839 14.9862 17.1958 14.964 17.2073C14.9417 17.2189 14.912 17.2271 14.8783 17.2276C14.8446 17.2282 14.814 17.2208 14.7905 17.2095L14.79 17.2093L8.21496 14.0784L8 13.976L7.78504 14.0784L1.21004 17.2093L1.20955 17.2095C1.18596 17.2208 1.15541 17.2282 1.12172 17.2276C1.08803 17.2271 1.0583 17.2189 1.036 17.2073C1.01384 17.1958 1.00385 17.1839 1.00062 17.1789L1 17.1793L1.00062 17.1789C1.00038 17.1785 1.00017 17.1782 1 17.1779Z"
        stroke="#EFEFEF" />
</svg>