<svg width="22" height="22" viewBox="0 0 22 22" fill="none" xmlns="http://www.w3.org/2000/svg">
<path d="M11 12.8332L19.25 8.24984L11 3.6665L2.75 8.24984L11 12.8332Z" stroke="#3DD368"/>
<path d="M11.0003 12.8331L16.6469 9.69629C17.3899 11.5829 17.6008 13.6372 17.2565 15.6354C14.9315 15.861 12.7394 16.8239 11.0003 18.3835C9.26141 16.8241 7.06968 15.8612 4.74494 15.6354C4.40046 13.6372 4.61132 11.5828 5.35452 9.69629L11.0003 12.8331Z" stroke="#3DD368"/>
<path d="M11 12.8332L19.25 8.24984L11 3.6665L2.75 8.24984L11 12.8332ZM11 12.8332L16.6467 9.69634C17.3896 11.5829 17.6005 13.6372 17.2563 15.6354C14.9312 15.8611 12.7391 16.824 11 18.3836C9.26113 16.8242 7.06941 15.8613 4.74467 15.6354C4.40018 13.6373 4.61105 11.5829 5.35425 9.69634L11 12.8332ZM7.33333 18.3332V11.4582L11 9.42134" stroke="#3DD368" stroke-width="1.5" stroke-linecap="round" stroke-linejoin="round"/>
</svg>
