<svg width="62" height="62" viewBox="0 0 62 62" fill="none" xmlns="http://www.w3.org/2000/svg">
    <path
        d="M24.8327 6.33317C18.0212 6.33317 12.4993 11.855 12.4993 18.6665C12.4993 25.478 18.0212 30.9998 24.8327 30.9998C31.6442 30.9998 37.166 25.478 37.166 18.6665C37.166 11.855 31.6442 6.33317 24.8327 6.33317ZM6.33268 18.6665C6.33268 8.44924 14.6154 0.166504 24.8327 0.166504C35.0499 0.166504 43.3327 8.44924 43.3327 18.6665C43.3327 28.8838 35.0499 37.1665 24.8327 37.1665C14.6154 37.1665 6.33268 28.8838 6.33268 18.6665ZM45.887 5.58503C47.0911 4.38091 49.0434 4.38091 50.2475 5.58503C57.4722 12.8097 57.4722 24.5233 50.2475 31.748C49.0434 32.9521 47.0911 32.9521 45.887 31.748C44.6829 30.5439 44.6829 28.5916 45.887 27.3875C50.7035 22.571 50.7035 14.762 45.887 9.94552C44.6829 8.7414 44.6829 6.78915 45.887 5.58503ZM48.0497 45.6687C48.4628 44.0167 50.1368 43.0122 51.7888 43.4252C55.8833 44.4488 58.4749 47.0669 59.9655 50.048C61.4078 52.9327 61.8327 56.151 61.8327 58.7498C61.8327 60.4527 60.4522 61.8332 58.7494 61.8332C57.0465 61.8332 55.666 60.4527 55.666 58.7498C55.666 56.7237 55.32 54.5462 54.4499 52.8058C53.6279 51.162 52.3654 49.9258 50.2932 49.4078C48.6412 48.9948 47.6367 47.3207 48.0497 45.6687ZM14.041 49.4998C10.1577 49.4998 6.33268 53.2416 6.33268 58.7498C6.33268 60.4527 4.95223 61.8332 3.24935 61.8332C1.54647 61.8332 0.166016 60.4527 0.166016 58.7498C0.166016 50.6351 6.00421 43.3332 14.041 43.3332H35.6244C43.6612 43.3332 49.4994 50.6351 49.4994 58.7498C49.4994 60.4527 48.1189 61.8332 46.416 61.8332C44.7131 61.8332 43.3327 60.4527 43.3327 58.7498C43.3327 53.2416 39.5077 49.4998 35.6244 49.4998H14.041Z"
        fill="#3DD368" />
</svg>