<svg width="33" height="32" viewBox="0 0 33 32" fill="none" xmlns="http://www.w3.org/2000/svg">
<rect x="0.689453" width="32" height="32" rx="8" fill="#033945"/>
<path fill-rule="evenodd" clip-rule="evenodd" d="M15.4857 7.78769C16.4703 6.80312 17.8057 6.25 19.198 6.25H21.898C22.3123 6.25 22.648 6.58579 22.648 7V10.6C22.648 11.0142 22.3123 11.35 21.898 11.35H19.198C19.1583 11.35 19.1201 11.3658 19.092 11.3939C19.0638 11.4221 19.048 11.4602 19.048 11.5V13.45H21.898C22.129 13.45 22.3471 13.5564 22.4892 13.7384C22.6313 13.9205 22.6817 14.1578 22.6257 14.3819L21.7257 17.9819C21.6422 18.3158 21.3422 18.55 20.998 18.55H19.048V25C19.048 25.4142 18.7123 25.75 18.298 25.75H14.698C14.2838 25.75 13.948 25.4142 13.948 25V18.55H11.998C11.5838 18.55 11.248 18.2142 11.248 17.8V14.2C11.248 13.7858 11.5838 13.45 11.998 13.45H13.948V11.5C13.948 10.1076 14.5012 8.77226 15.4857 7.78769ZM19.198 7.75C18.2035 7.75 17.2497 8.14509 16.5464 8.84835C15.8431 9.55161 15.448 10.5054 15.448 11.5V14.2C15.448 14.6142 15.1123 14.95 14.698 14.95H12.748V17.05H14.698C15.1123 17.05 15.448 17.3858 15.448 17.8V24.25H17.548V17.8C17.548 17.3858 17.8838 17.05 18.298 17.05H20.4125L20.9375 14.95H18.298C17.8838 14.95 17.548 14.6142 17.548 14.2V11.5C17.548 11.0624 17.7219 10.6427 18.0313 10.3333C18.3408 10.0238 18.7604 9.85 19.198 9.85H21.148V7.75H19.198Z" fill="#C5CED0"/>
</svg>
