<svg width="24" height="26" viewBox="0 0 24 26" fill="none" xmlns="http://www.w3.org/2000/svg">
<path d="M7.5 2.89164C7.10218 2.89164 6.72064 3.04378 6.43934 3.31459C6.15804 3.58541 6 3.95271 6 4.33569C6 4.71868 6.15804 5.08598 6.43934 5.35679C6.72064 5.6276 7.10218 5.77974 7.5 5.77974C7.89782 5.77974 8.27936 5.6276 8.56066 5.35679C8.84196 5.08598 9 4.71868 9 4.33569C9 3.95271 8.84196 3.58541 8.56066 3.31459C8.27936 3.04378 7.89782 2.89164 7.5 2.89164ZM3.255 2.89164C3.5649 2.0461 4.13961 1.31392 4.8999 0.796019C5.66019 0.278118 6.56863 0 7.5 0C8.43137 0 9.33981 0.278118 10.1001 0.796019C10.8604 1.31392 11.4351 2.0461 11.745 2.89164H22.5C22.8978 2.89164 23.2794 3.04378 23.5607 3.31459C23.842 3.58541 24 3.95271 24 4.33569C24 4.71868 23.842 5.08598 23.5607 5.35679C23.2794 5.6276 22.8978 5.77974 22.5 5.77974H11.745C11.4351 6.62528 10.8604 7.35747 10.1001 7.87537C9.33981 8.39327 8.43137 8.67138 7.5 8.67138C6.56863 8.67138 5.66019 8.39327 4.8999 7.87537C4.13961 7.35747 3.5649 6.62528 3.255 5.77974H1.5C1.10218 5.77974 0.720645 5.6276 0.43934 5.35679C0.158036 5.08598 0 4.71868 0 4.33569C0 3.95271 0.158036 3.58541 0.43934 3.31459C0.720645 3.04378 1.10218 2.89164 1.5 2.89164H3.255ZM16.5 11.5559C16.1022 11.5559 15.7206 11.7081 15.4393 11.9789C15.158 12.2497 15 12.617 15 13C15 13.383 15.158 13.7503 15.4393 14.0211C15.7206 14.2919 16.1022 14.4441 16.5 14.4441C16.8978 14.4441 17.2794 14.2919 17.5607 14.0211C17.842 13.7503 18 13.383 18 13C18 12.617 17.842 12.2497 17.5607 11.9789C17.2794 11.7081 16.8978 11.5559 16.5 11.5559ZM12.255 11.5559C12.5649 10.7104 13.1396 9.97823 13.8999 9.46033C14.6602 8.94242 15.5686 8.66431 16.5 8.66431C17.4314 8.66431 18.3398 8.94242 19.1001 9.46033C19.8604 9.97823 20.4351 10.7104 20.745 11.5559H22.5C22.8978 11.5559 23.2794 11.7081 23.5607 11.9789C23.842 12.2497 24 12.617 24 13C24 13.383 23.842 13.7503 23.5607 14.0211C23.2794 14.2919 22.8978 14.4441 22.5 14.4441H20.745C20.4351 15.2896 19.8604 16.0218 19.1001 16.5397C18.3398 17.0576 17.4314 17.3357 16.5 17.3357C15.5686 17.3357 14.6602 17.0576 13.8999 16.5397C13.1396 16.0218 12.5649 15.2896 12.255 14.4441H1.5C1.10218 14.4441 0.720645 14.2919 0.43934 14.0211C0.158036 13.7503 0 13.383 0 13C0 12.617 0.158036 12.2497 0.43934 11.9789C0.720645 11.7081 1.10218 11.5559 1.5 11.5559H12.255ZM7.5 20.2203C7.10218 20.2203 6.72064 20.3724 6.43934 20.6432C6.15804 20.914 6 21.2813 6 21.6643C6 22.0473 6.15804 22.4146 6.43934 22.6854C6.72064 22.9562 7.10218 23.1084 7.5 23.1084C7.89782 23.1084 8.27936 22.9562 8.56066 22.6854C8.84196 22.4146 9 22.0473 9 21.6643C9 21.2813 8.84196 20.914 8.56066 20.6432C8.27936 20.3724 7.89782 20.2203 7.5 20.2203ZM3.255 20.2203C3.5649 19.3747 4.13961 18.6425 4.8999 18.1246C5.66019 17.6067 6.56863 17.3286 7.5 17.3286C8.43137 17.3286 9.33981 17.6067 10.1001 18.1246C10.8604 18.6425 11.4351 19.3747 11.745 20.2203H22.5C22.8978 20.2203 23.2794 20.3724 23.5607 20.6432C23.842 20.914 24 21.2813 24 21.6643C24 22.0473 23.842 22.4146 23.5607 22.6854C23.2794 22.9562 22.8978 23.1084 22.5 23.1084H11.745C11.4351 23.9539 10.8604 24.6861 10.1001 25.204C9.33981 25.7219 8.43137 26 7.5 26C6.56863 26 5.66019 25.7219 4.8999 25.204C4.13961 24.6861 3.5649 23.9539 3.255 23.1084H1.5C1.10218 23.1084 0.720645 22.9562 0.43934 22.6854C0.158036 22.4146 0 22.0473 0 21.6643C0 21.2813 0.158036 20.914 0.43934 20.6432C0.720645 20.3724 1.10218 20.2203 1.5 20.2203H3.255Z" fill="white"/>
</svg>
