<svg width="16" height="17" viewBox="0 0 16 17" fill="none" xmlns="http://www.w3.org/2000/svg">
<path fill-rule="evenodd" clip-rule="evenodd" d="M2.1667 1.9975C3.43093 1.73772 4.39198 1.72194 5.18836 1.82149C6.12085 1.93805 6.86983 2.21596 7.70745 2.53007L7.73246 2.53945C8.55495 2.84791 9.46574 3.1895 10.605 3.33191C11.525 3.4469 12.5677 3.43008 13.8334 3.19969V10.6688C12.5692 10.9285 11.6081 10.9443 10.8118 10.8448C9.87926 10.7282 9.13029 10.4503 8.29266 10.1362L8.26766 10.1268C7.44516 9.81835 6.53437 9.47677 5.39508 9.33436C4.47512 9.21936 3.43237 9.23618 2.16672 9.46657L2.1667 1.9975ZM14.4646 1.35801C12.8812 1.75387 11.7356 1.7936 10.8118 1.67811C9.87926 1.56155 9.13029 1.28364 8.29266 0.969525L8.26765 0.960147C7.44516 0.651684 6.53437 0.310103 5.39508 0.167693C4.23946 0.0232398 2.89009 0.0867826 1.14853 0.520376C0.777229 0.604445 0.5 0.93642 0.5 1.33315V15.4998C0.5 15.9601 0.873096 16.3331 1.33333 16.3331C1.79357 16.3331 2.16667 15.9601 2.16667 15.4998V11.1642C3.43091 10.9044 4.39198 10.8886 5.18836 10.9882C6.12085 11.1047 6.86983 11.3826 7.70745 11.6967L7.73245 11.7061C8.55494 12.0146 9.46575 12.3562 10.605 12.4986C11.7645 12.6435 13.1189 12.5791 14.8688 12.1416C15.2398 12.0488 15.5001 11.7155 15.5001 11.3331V2.16647C15.5001 1.90985 15.3818 1.66755 15.1796 1.50963C14.9773 1.35171 14.7136 1.29578 14.4646 1.35801Z" fill="#EFEFEF"/>
</svg>
