<svg width="19" height="18" viewBox="0 0 19 18" fill="none" xmlns="http://www.w3.org/2000/svg">
<path d="M12.2292 10.4641L12.1956 10.4809C12.7003 10.1725 13.1728 9.82233 13.6071 9.43476C16.6483 6.65733 18.209 4.15768 17.9775 1.02064C14.5426 0.808736 11.8056 2.23459 8.76486 5.01202C8.34014 5.40874 7.9564 5.84039 7.61851 6.3015L7.63781 6.27045C5.61848 5.75138 2.50013 6.7337 1 8.39999L6.28975 8.44531L6.3017 8.42559C5.94462 9.11472 5.6216 9.81814 5.33362 10.5337L7.56108 12.568C8.30173 12.3184 9.09108 12.0225 9.86894 11.6839L9.84781 11.6948L9.89743 16.5258C11.7215 15.1558 12.7975 12.3079 12.2292 10.4641V10.4641ZM6.02511 13.6192C5.11606 14.2914 4.01569 14.7126 2.85346 14.8331C2.98541 13.7717 3.44657 12.7667 4.18267 11.9365L4.63754 13.2037L6.02511 13.6192Z" stroke="#3DD368" stroke-linecap="round" stroke-linejoin="round"/>
<path d="M12.9894 6.59688C13.6071 6.59688 14.1077 6.13961 14.1077 5.57554C14.1077 5.01147 13.6071 4.5542 12.9894 4.5542C12.3718 4.5542 11.8711 5.01147 11.8711 5.57554C11.8711 6.13961 12.3718 6.59688 12.9894 6.59688Z" stroke="#3DD368" stroke-linecap="round" stroke-linejoin="round"/>
</svg>
