<svg width="8" height="14" viewBox="0 0 8 14" fill="none" xmlns="http://www.w3.org/2000/svg">
<path fill-rule="evenodd" clip-rule="evenodd" d="M2.99163 1.52513C3.64801 0.868749 4.53825 0.5 5.4665 0.5H7.2665C7.54265 0.5 7.7665 0.723858 7.7665 1V3.4C7.7665 3.67614 7.54265 3.9 7.2665 3.9H5.4665C5.43998 3.9 5.41455 3.91054 5.39579 3.92929C5.37704 3.94804 5.3665 3.97348 5.3665 4V5.3H7.2665C7.42047 5.3 7.56585 5.37094 7.66061 5.49229C7.75536 5.61365 7.78892 5.7719 7.75157 5.92127L7.15158 8.32127C7.09593 8.54385 6.89594 8.7 6.6665 8.7H5.3665V13C5.3665 13.2761 5.14265 13.5 4.8665 13.5H2.4665C2.19036 13.5 1.9665 13.2761 1.9665 13V8.7H0.666504C0.390362 8.7 0.166504 8.47614 0.166504 8.2V5.8C0.166504 5.52386 0.390362 5.3 0.666504 5.3H1.9665V4C1.9665 3.07174 2.33525 2.1815 2.99163 1.52513ZM5.4665 1.5C4.80346 1.5 4.16758 1.76339 3.69874 2.23223C3.2299 2.70107 2.9665 3.33696 2.9665 4V5.8C2.9665 6.07614 2.74265 6.3 2.4665 6.3H1.1665V7.7H2.4665C2.74265 7.7 2.9665 7.92386 2.9665 8.2V12.5H4.3665V8.2C4.3665 7.92386 4.59036 7.7 4.8665 7.7H6.27612L6.62612 6.3H4.8665C4.59036 6.3 4.3665 6.07614 4.3665 5.8V4C4.3665 3.70826 4.4824 3.42847 4.68869 3.22218C4.89498 3.01589 5.17477 2.9 5.4665 2.9H6.7665V1.5H5.4665Z" fill="#3DD368"/>
</svg>
