<svg width="29" height="28" viewBox="0 0 29 28" fill="none" xmlns="http://www.w3.org/2000/svg">
<path d="M20.1249 9.57734C20.8151 9.57734 21.3747 9.01776 21.3747 8.32749C21.3747 7.63721 20.8151 7.07764 20.1249 7.07764C19.4346 7.07764 18.875 7.63721 18.875 8.32749C18.875 9.01776 19.4346 9.57734 20.1249 9.57734Z" fill="#3DD368"/>
<path d="M14.5651 8.53906C13.5073 8.53906 12.4733 8.85274 11.5938 9.44042C10.7142 10.0281 10.0287 10.8634 9.62392 11.8407C9.21911 12.8179 9.1132 13.8933 9.31957 14.9308C9.52593 15.9683 10.0353 16.9212 10.7833 17.6692C11.5313 18.4172 12.4842 18.9266 13.5217 19.1329C14.5592 19.3393 15.6346 19.2334 16.6118 18.8286C17.5891 18.4238 18.4244 17.7383 19.0121 16.8588C19.5998 15.9792 19.9134 14.9452 19.9134 13.8874C19.9134 12.4689 19.35 11.1086 18.347 10.1055C17.344 9.10254 15.9836 8.53906 14.5651 8.53906ZM14.5651 17.3592C13.8785 17.3592 13.2072 17.1556 12.6363 16.7741C12.0654 16.3926 11.6204 15.8504 11.3576 15.216C11.0948 14.5816 11.0261 13.8835 11.16 13.2101C11.294 12.5366 11.6246 11.918 12.1102 11.4324C12.5957 10.9469 13.2143 10.6162 13.8878 10.4823C14.5613 10.3483 15.2593 10.4171 15.8937 10.6799C16.5281 10.9426 17.0703 11.3876 17.4518 11.9586C17.8333 12.5295 18.0369 13.2007 18.0369 13.8874C18.0369 14.8082 17.6712 15.6912 17.0201 16.3423C16.369 16.9934 15.4859 17.3592 14.5651 17.3592Z" fill="#3DD368"/>
<path d="M14.5658 5.34868C17.3467 5.34868 17.6766 5.3591 18.7745 5.40944C19.4349 5.41728 20.089 5.53853 20.7083 5.7679C21.1576 5.94123 21.5657 6.20669 21.9062 6.54722C22.2467 6.88775 22.5122 7.29579 22.6855 7.7451C22.9149 8.36441 23.0361 9.01852 23.044 9.6789C23.0943 10.7769 23.1047 11.1067 23.1047 13.8885C23.1047 16.6703 23.0943 16.9983 23.044 18.0963C23.0361 18.7567 22.9149 19.4108 22.6855 20.0301C22.5122 20.4794 22.2467 20.8875 21.9062 21.228C21.5657 21.5685 21.1576 21.834 20.7083 22.0073C20.089 22.2367 19.4349 22.3579 18.7745 22.3658C17.6766 22.4161 17.3467 22.4265 14.5658 22.4265C11.7849 22.4265 11.4551 22.4161 10.3571 22.3658C9.69675 22.3579 9.04263 22.2367 8.42332 22.0073C7.97401 21.834 7.56597 21.5685 7.22544 21.228C6.88491 20.8875 6.61945 20.4794 6.44613 20.0301C6.21675 19.4108 6.0955 18.7567 6.08766 18.0963C6.03732 16.9983 6.0269 16.6685 6.0269 13.8876C6.0269 11.1067 6.03732 10.7769 6.08766 9.6789C6.0955 9.01852 6.21675 8.36441 6.44613 7.7451C6.61945 7.29579 6.88491 6.88775 7.22544 6.54722C7.56597 6.20669 7.97401 5.94123 8.42332 5.7679C9.04263 5.53853 9.69675 5.41728 10.3571 5.40944C11.4551 5.3591 11.7849 5.34868 14.5658 5.34868ZM14.5658 3.47217C11.7372 3.47217 11.3822 3.48432 10.2712 3.53466C9.40738 3.5521 8.55278 3.71586 7.74371 4.01898C7.05172 4.28657 6.42326 4.69579 5.89864 5.22041C5.37401 5.74504 4.96479 6.37349 4.6972 7.06549C4.39399 7.87483 4.23023 8.72974 4.21288 9.59384C4.16254 10.7048 4.15039 11.0581 4.15039 13.8876C4.15039 16.7171 4.16254 17.0712 4.21288 18.1822C4.23033 19.046 4.39409 19.9006 4.6972 20.7097C4.96479 21.4017 5.37401 22.0302 5.89864 22.5548C6.42326 23.0794 7.05172 23.4886 7.74371 23.7562C8.55306 24.0594 9.40796 24.2232 10.2721 24.2405C11.383 24.2909 11.7372 24.303 14.5658 24.303C17.3945 24.303 17.7495 24.2909 18.8604 24.2405C19.7246 24.2232 20.5795 24.0594 21.3888 23.7562C22.0808 23.4886 22.7092 23.0794 23.2339 22.5548C23.7585 22.0302 24.1677 21.4017 24.4353 20.7097C24.7382 19.9003 24.9017 19.0454 24.9188 18.1814C24.9691 17.0704 24.9813 16.7171 24.9813 13.8876C24.9813 11.0581 24.9691 10.7039 24.9188 9.59297C24.9013 8.72916 24.7376 7.87456 24.4344 7.06549C24.1669 6.37349 23.7576 5.74504 23.233 5.22041C22.7084 4.69579 22.0799 4.28657 21.3879 4.01898C20.5785 3.71606 19.7236 3.5526 18.8596 3.53553C17.7486 3.48345 17.3953 3.47217 14.5658 3.47217Z" fill="#3DD368"/>
</svg>
