<svg width="15" height="15" viewBox="0 0 15 15" fill="none" xmlns="http://www.w3.org/2000/svg">
<path fill-rule="evenodd" clip-rule="evenodd" d="M2.33333 0.833496C1.32081 0.833496 0.5 1.65431 0.5 2.66683C0.5 3.67935 1.32081 4.50016 2.33333 4.50016C3.34586 4.50016 4.16667 3.67935 4.16667 2.66683C4.16667 1.65431 3.34586 0.833496 2.33333 0.833496ZM1.5 2.66683C1.5 2.20659 1.8731 1.8335 2.33333 1.8335C2.79357 1.8335 3.16667 2.20659 3.16667 2.66683C3.16667 3.12707 2.79357 3.50016 2.33333 3.50016C1.8731 3.50016 1.5 3.12707 1.5 2.66683Z" fill="#3DD368"/>
<path fill-rule="evenodd" clip-rule="evenodd" d="M0.5 5.3335C0.5 5.05735 0.723858 4.8335 1 4.8335H3.66667C3.94281 4.8335 4.16667 5.05735 4.16667 5.3335V14.0002C4.16667 14.2763 3.94281 14.5002 3.66667 14.5002H1C0.723858 14.5002 0.5 14.2763 0.5 14.0002V5.3335ZM1.5 5.8335V13.5002H3.16667V5.8335H1.5Z" fill="#3DD368"/>
<path fill-rule="evenodd" clip-rule="evenodd" d="M5.16667 5.3335C5.16667 5.05735 5.39052 4.8335 5.66667 4.8335H8.33333C8.60948 4.8335 8.83333 5.05735 8.83333 5.3335V5.62285L9.12352 5.49848C9.62241 5.28467 10.1559 5.15059 10.6955 5.10154C12.5455 4.93336 14.1667 6.38708 14.1667 8.25366V14.0002C14.1667 14.2763 13.9428 14.5002 13.6667 14.5002H11C10.7239 14.5002 10.5 14.2763 10.5 14.0002V9.3335C10.5 9.11248 10.4122 8.90052 10.2559 8.74424C10.0996 8.58796 9.88768 8.50016 9.66667 8.50016C9.44565 8.50016 9.23369 8.58796 9.07741 8.74424C8.92113 8.90052 8.83333 9.11248 8.83333 9.3335V14.0002C8.83333 14.2763 8.60948 14.5002 8.33333 14.5002H5.66667C5.39052 14.5002 5.16667 14.2763 5.16667 14.0002V5.3335ZM6.16667 5.8335V13.5002H7.83333V9.3335C7.83333 8.84727 8.02649 8.38095 8.3703 8.03713C8.71412 7.69332 9.18044 7.50016 9.66667 7.50016C10.1529 7.50016 10.6192 7.69332 10.963 8.03713C11.3068 8.38095 11.5 8.84727 11.5 9.3335V13.5002H13.1667V8.25366C13.1667 6.98408 12.0594 5.98168 10.786 6.09743C10.35 6.13707 9.91896 6.24554 9.51743 6.41763L8.53029 6.84069C8.37581 6.90689 8.1984 6.89106 8.05809 6.79854C7.91778 6.70601 7.83333 6.54919 7.83333 6.38112V5.8335H6.16667Z" fill="#3DD368"/>
</svg>
