<svg width="15" height="12" viewBox="0 0 15 12" fill="none" xmlns="http://www.w3.org/2000/svg">
<path d="M5.75 2.17516V3.50016H1.58333C1.125 3.50016 0.75 3.87516 0.75 4.3335L0.75 7.66683C0.75 8.12516 1.125 8.50016 1.58333 8.50016H5.75V9.82516C5.75 10.5668 6.65 10.9418 7.175 10.4168L11 6.59183C11.325 6.26683 11.325 5.74183 11 5.41683L7.175 1.59183C6.65 1.06683 5.75 1.4335 5.75 2.17516ZM14.0833 11.8335C14.5417 11.8335 14.9167 11.4585 14.9167 11.0002V1.00016C14.9167 0.54183 14.5417 0.16683 14.0833 0.16683C13.625 0.16683 13.25 0.54183 13.25 1.00016V11.0002C13.25 11.4585 13.625 11.8335 14.0833 11.8335Z" fill="#041F29"/>
</svg>
