<svg width="16" height="13" viewBox="0 0 16 13" fill="none" xmlns="http://www.w3.org/2000/svg">
<path fill-rule="evenodd" clip-rule="evenodd" d="M10.0145 0.228771C10.3534 0.170716 10.733 0.151332 11.0902 0.211761C11.7281 0.319682 12.3173 0.616168 12.7831 1.06067C13.0875 1.06756 13.3867 1.00758 13.6515 0.92207C13.8756 0.849703 14.0648 0.762322 14.1975 0.69323C14.2634 0.658877 14.3144 0.629571 14.3475 0.609731C14.364 0.599827 14.376 0.592331 14.3832 0.587803L14.3895 0.583762C14.5874 0.451944 14.8509 0.477599 15.0195 0.64527C15.1881 0.812979 15.2153 1.07626 15.0844 1.27486C14.9459 1.48506 14.7537 1.85977 14.5383 2.27961C14.5045 2.34562 14.47 2.41275 14.4351 2.48053C14.3116 2.72051 14.185 2.96305 14.0669 3.17114C13.9928 3.3018 13.9135 3.43445 13.8335 3.54907V3.73159C13.8386 4.40201 13.7617 5.06893 13.6057 5.71775C13.5075 6.12597 13.378 6.52704 13.2178 6.91729C12.8029 7.9284 12.1906 8.84669 11.4168 9.61852C10.643 10.3904 9.7231 11.0003 8.71093 11.4126C7.69966 11.8246 6.6165 12.0311 5.5246 12.0202C3.94172 12.0216 2.39215 11.5655 1.06233 10.7069C0.866466 10.5804 0.784 10.3354 0.863557 10.1162C0.943115 9.89709 1.16358 9.762 1.39496 9.79064C1.5952 9.81542 1.79681 9.82752 1.99857 9.82686C2.72354 9.82483 3.4347 9.66464 4.08394 9.36288C3.87757 9.26894 3.68055 9.15311 3.49645 9.01659C2.9553 8.61532 2.5527 8.05535 2.34465 7.4146C2.29059 7.24809 2.32755 7.06543 2.44209 6.93304C2.44414 6.93067 2.44622 6.92833 2.4483 6.926C2.32595 6.8169 2.21147 6.69811 2.10607 6.57036C1.63186 5.99555 1.37074 5.2746 1.36689 4.52944L1.36687 4.52685L1.36688 4.49352C1.36688 4.31628 1.46071 4.15228 1.61352 4.06247C1.65225 4.0397 1.69331 4.02256 1.73554 4.01107C1.50999 3.56101 1.39269 3.06405 1.39355 2.55988C1.39328 1.9887 1.54248 1.42739 1.82632 0.93172C1.90826 0.78863 2.05548 0.695138 2.21983 0.681821C2.38418 0.668503 2.54453 0.737073 2.64844 0.865104C3.29015 1.65578 4.09101 2.30262 4.999 2.7636C5.46575 3.00057 5.95545 3.1857 6.45932 3.31665C6.74181 3.39007 7.02875 3.44646 7.3186 3.48541C7.30583 3.00324 7.40105 2.52133 7.60086 2.07604C7.89399 1.42283 8.39563 0.885374 9.02712 0.547979C9.29455 0.405093 9.64956 0.291285 10.0145 0.228771ZM2.49573 5.26043C2.58216 5.50369 2.71074 5.73191 2.87744 5.93397C3.20499 6.331 3.65962 6.60271 4.16443 6.70313C4.38929 6.74786 4.55492 6.93979 4.56627 7.16877C4.57762 7.39775 4.43178 7.60511 4.21245 7.67186C4.03079 7.72715 3.84467 7.76567 3.65643 7.78706C3.78082 7.9474 3.92714 8.09103 4.09208 8.21333C4.4662 8.49075 4.9175 8.64465 5.38317 8.65361C5.59445 8.65768 5.78036 8.79413 5.84758 8.99448C5.91479 9.19482 5.84881 9.41579 5.68273 9.54646C4.98329 10.0968 4.17449 10.4806 3.31745 10.6765C4.02778 10.904 4.77274 11.0211 5.52627 11.0202L5.53207 11.0202C6.49211 11.0302 7.44451 10.8488 8.33365 10.4865C9.22278 10.1243 10.0308 9.58853 10.7106 8.91051C11.3903 8.2325 11.9282 7.42583 12.2927 6.53763C12.4334 6.19481 12.5472 5.8425 12.6334 5.4839C12.7706 4.91339 12.8382 4.32694 12.8336 3.73743L12.8335 3.73352V3.38019C12.8335 3.25895 12.8776 3.14185 12.9575 3.05066C13.0037 2.99797 13.0845 2.87627 13.1971 2.67767C13.3042 2.48891 13.4228 2.26231 13.546 2.02285C13.5535 2.00837 13.561 1.99382 13.5685 1.97919C13.2488 2.04862 12.8864 2.08501 12.5065 2.04396C12.3862 2.03096 12.2747 1.97477 12.1926 1.88581C11.8574 1.52225 11.411 1.28024 10.9233 1.19775C10.707 1.16115 10.4454 1.16952 10.1834 1.21442C9.89861 1.26319 9.65081 1.34853 9.49836 1.42998C9.06218 1.66303 8.71568 2.03426 8.51322 2.48545C8.31075 2.93664 8.26376 3.44227 8.37963 3.92304C8.41657 4.07632 8.37905 4.23804 8.2784 4.35939C8.17775 4.48074 8.02575 4.54751 7.86829 4.53955C7.30601 4.51111 6.74969 4.42534 6.20777 4.2845C5.63451 4.1355 5.07735 3.92487 4.5463 3.65526C3.76445 3.25832 3.05241 2.74026 2.43586 2.1218C2.40773 2.26554 2.39345 2.41222 2.39355 2.55986L2.39355 2.56114C2.39285 2.92828 2.48295 3.2899 2.65582 3.6138C2.82869 3.9377 3.07898 4.21383 3.38438 4.4176C3.56973 4.54126 3.65089 4.77265 3.58338 4.985C3.51588 5.19734 3.31601 5.3394 3.09328 5.33334C2.89155 5.32785 2.69151 5.30331 2.49573 5.26043Z" fill="#3DD368"/>
</svg>
