<svg width="43" height="42" viewBox="0 0 43 42" fill="none" xmlns="http://www.w3.org/2000/svg">
<path fill-rule="evenodd" clip-rule="evenodd" d="M21.2972 35.0802C22.7915 35.6475 24.2648 36.2218 25.7749 36.7454C26.0994 36.8592 26.4518 36.6893 26.5641 36.3672C26.6781 36.0433 26.5063 35.6896 26.1836 35.5775C24.6822 35.0557 23.2212 34.4867 21.7375 33.9229C21.4165 33.8021 21.0586 33.9632 20.9376 34.2801C20.8166 34.6005 20.9762 34.9594 21.2972 35.0802Z" fill="#ED7832"/>
<path fill-rule="evenodd" clip-rule="evenodd" d="M19.843 23.4608C24.0476 21.5946 28.155 19.5175 32.3169 17.5631C32.5995 17.4295 32.7199 17.0939 32.5877 16.8133C32.4539 16.5312 32.1193 16.4094 31.835 16.5415C27.681 18.4938 23.5815 20.5689 19.3846 22.4297C19.0984 22.5572 18.9714 22.8899 19.0974 23.1741C19.225 23.4598 19.5584 23.5866 19.843 23.4608Z" fill="#ED7832"/>
<path fill-rule="evenodd" clip-rule="evenodd" d="M9.77567 14.9794C11.6157 11.132 13.3508 7.22727 15.2338 3.40054C15.3828 3.09393 15.2562 2.72372 14.9504 2.57302C14.6427 2.42091 14.2704 2.54933 14.1195 2.85453C12.2356 6.68674 10.4977 10.5956 8.65691 14.4484C8.51003 14.7564 8.64005 15.1261 8.9486 15.2727C9.25918 15.4207 9.62738 15.2894 9.77567 14.9794Z" fill="#ED7832"/>
</svg>
