<svg width="33" height="32" viewBox="0 0 33 32" fill="none" xmlns="http://www.w3.org/2000/svg">
<rect x="0.689453" width="32" height="32" rx="8" fill="#033945"/>
<path d="M20.9987 11C20.9987 10.4478 21.4464 10 21.9987 10C22.551 10 22.9987 10.4478 22.9987 11C22.9987 11.5523 22.551 12 21.9987 12C21.4464 12 20.9987 11.5523 20.9987 11Z" fill="#C5CED0"/>
<path fill-rule="evenodd" clip-rule="evenodd" d="M16.9987 11.25C14.3754 11.25 12.2487 13.3767 12.2487 16C12.2487 18.6234 14.3754 20.75 16.9987 20.75C19.6221 20.75 21.7487 18.6234 21.7487 16C21.7487 13.3767 19.6221 11.25 16.9987 11.25ZM13.7487 16C13.7487 14.2051 15.2038 12.75 16.9987 12.75C18.7936 12.75 20.2487 14.2051 20.2487 16C20.2487 17.795 18.7936 19.25 16.9987 19.25C15.2038 19.25 13.7487 17.795 13.7487 16Z" fill="#C5CED0"/>
<path fill-rule="evenodd" clip-rule="evenodd" d="M22.257 6.83306C18.7904 6.44562 15.2071 6.44562 11.7405 6.83306C9.72843 7.05794 8.1041 8.64295 7.86754 10.6655C7.45301 14.2098 7.45301 17.7903 7.86754 21.3346C8.1041 23.3571 9.72843 24.9422 11.7405 25.167C15.2071 25.5545 18.7904 25.5545 22.257 25.167C24.269 24.9422 25.8934 23.3571 26.1299 21.3346C26.5445 17.7903 26.5445 14.2098 26.1299 10.6655C25.8934 8.64295 24.269 7.05794 22.257 6.83306ZM11.9071 8.32378C15.2629 7.94871 18.7345 7.94871 22.0904 8.32378C23.4205 8.47244 24.486 9.52205 24.6401 10.8397C25.0411 14.2683 25.0411 17.7318 24.6401 21.1604C24.486 22.478 23.4205 23.5277 22.0904 23.6763C18.7345 24.0514 15.2629 24.0514 11.9071 23.6763C10.577 23.5277 9.5115 22.478 9.35739 21.1604C8.95639 17.7318 8.95639 14.2683 9.35739 10.8397C9.5115 9.52205 10.577 8.47244 11.9071 8.32378Z" fill="#C5CED0"/>
</svg>
