<svg width="24" height="19" viewBox="0 0 24 19" fill="none" xmlns="http://www.w3.org/2000/svg">
<path d="M16.8987 1.99998C16.8987 1.35565 17.421 0.833313 18.0654 0.833313C18.8082 0.833313 19.5382 0.98258 20.2487 1.26676C21.0218 1.57602 21.617 2.03499 22.157 2.57502C22.697 3.11506 23.156 3.71019 23.4653 4.48336C23.7494 5.1938 23.8987 5.92378 23.8987 6.66665C23.8987 7.40951 23.7494 8.1395 23.4653 8.84994C23.1599 9.61341 22.7085 10.2033 22.1773 10.7379L21.0286 12.0014C21.0162 12.0151 21.0034 12.0285 20.9903 12.0416L17.257 15.7749C16.717 16.315 16.1218 16.7739 15.3487 17.0832C14.6382 17.3674 13.9082 17.5166 13.1654 17.5166C12.4225 17.5166 11.6925 17.3674 10.9821 17.0832C10.2089 16.7739 9.61378 16.315 9.07374 15.7749C8.5337 15.2349 8.07474 14.6398 7.76547 13.8666C7.47583 13.1425 7.33203 12.4118 7.33203 11.5666C7.33203 10.8238 7.4813 10.0938 7.76547 9.38336C8.07474 8.61019 8.5337 8.01506 9.07374 7.47502L10.3571 6.19169C10.8127 5.73608 11.5514 5.73608 12.007 6.19169C12.4626 6.6473 12.4626 7.38599 12.007 7.84161L10.7237 9.12494C10.3304 9.51824 10.0893 9.85643 9.93192 10.2499C9.74943 10.7062 9.66536 11.1428 9.66536 11.5666C9.66536 12.1215 9.7549 12.5575 9.93192 13C10.0893 13.3935 10.3304 13.7317 10.7237 14.125C11.117 14.5183 11.4552 14.7594 11.8487 14.9168C12.3049 15.0992 12.7416 15.1833 13.1654 15.1833C13.5892 15.1833 14.0258 15.0992 14.4821 14.9168C14.8756 14.7594 15.2138 14.5183 15.6071 14.125L19.3208 10.4113L20.4688 9.14853C20.4812 9.13484 20.494 9.12144 20.5071 9.10836C20.9004 8.71506 21.1414 8.37686 21.2988 7.98336C21.4813 7.52713 21.5654 7.09045 21.5654 6.66665C21.5654 6.24284 21.4813 5.80616 21.2988 5.34994C21.1414 4.95643 20.9004 4.61823 20.5071 4.22494C20.1138 3.83164 19.7756 3.5906 19.3821 3.4332C18.9258 3.25071 18.4892 3.16665 18.0654 3.16665C17.421 3.16665 16.8987 2.64431 16.8987 1.99998ZM11.182 3.74998C10.7582 3.74998 10.3215 3.83405 9.86532 4.01654C9.47182 4.17394 9.13362 4.41497 8.74032 4.80827L4.90995 8.63864L3.76196 9.90143C3.74951 9.91512 3.73674 9.92852 3.72366 9.9416C3.33036 10.3349 3.08932 10.6731 2.93192 11.0666C2.74943 11.5228 2.66536 11.9595 2.66536 12.3833C2.66536 12.8071 2.74943 13.2438 2.93192 13.7C3.08932 14.0935 3.33036 14.4317 3.72366 14.825C4.11695 15.2183 4.45515 15.4594 4.84865 15.6168C5.30488 15.7992 5.74156 15.8833 6.16536 15.8833C6.8097 15.8833 7.33203 16.4056 7.33203 17.05C7.33203 17.6943 6.8097 18.2166 6.16536 18.2166C5.4225 18.2166 4.69252 18.0674 3.98208 17.7832C3.20891 17.4739 2.61378 17.015 2.07374 16.4749C1.5337 15.9349 1.07474 15.3398 0.765475 14.5666C0.481299 13.8562 0.332031 13.1262 0.332031 12.3833C0.332031 11.6405 0.481299 10.9105 0.765475 10.2C1.07086 9.43655 1.52222 8.84668 2.05346 8.31203L3.2021 7.04853C3.21455 7.03484 3.22732 7.02144 3.24041 7.00836L7.09041 3.15836C7.63044 2.61832 8.22558 2.15936 8.99874 1.85009C9.70918 1.56591 10.4392 1.41665 11.182 1.41665C11.9249 1.41665 12.6549 1.56591 13.3653 1.85009C14.1385 2.15936 14.7336 2.61832 15.2737 3.15836C15.8137 3.69839 16.2727 4.29352 16.5819 5.06669C16.8661 5.77713 17.0154 6.50712 17.0154 7.24998C17.0154 7.99284 16.8661 8.72283 16.5819 9.43327C16.2762 10.1976 15.8242 10.7879 15.2922 11.323L14.0254 12.705C13.59 13.18 12.852 13.2121 12.377 12.7767C11.902 12.3413 11.87 11.6033 12.3054 11.1283L13.5887 9.7283C13.6001 9.71585 13.6118 9.70364 13.6237 9.69169C14.017 9.29839 14.2581 8.96019 14.4155 8.56669C14.598 8.11046 14.682 7.67379 14.682 7.24998C14.682 6.82617 14.598 6.3895 14.4155 5.93327C14.2581 5.53977 14.017 5.20157 13.6237 4.80827C13.2304 4.41497 12.8922 4.17394 12.4987 4.01654C12.0425 3.83405 11.6058 3.74998 11.182 3.74998Z" fill="#C5CED0"/>
</svg>
