<svg width="33" height="32" viewBox="0 0 33 32" fill="none" xmlns="http://www.w3.org/2000/svg">
<rect x="0.689453" width="32" height="32" rx="8" fill="#033945"/>
<path fill-rule="evenodd" clip-rule="evenodd" d="M9.99805 5.25C8.47926 5.25 7.24805 6.48122 7.24805 8C7.24805 9.51878 8.47926 10.75 9.99805 10.75C11.5168 10.75 12.748 9.51878 12.748 8C12.748 6.48122 11.5168 5.25 9.99805 5.25ZM8.74805 8C8.74805 7.30964 9.30769 6.75 9.99805 6.75C10.6884 6.75 11.248 7.30964 11.248 8C11.248 8.69036 10.6884 9.25 9.99805 9.25C9.30769 9.25 8.74805 8.69036 8.74805 8Z" fill="#C5CED0"/>
<path fill-rule="evenodd" clip-rule="evenodd" d="M7.24805 12C7.24805 11.5858 7.58383 11.25 7.99805 11.25H11.998C12.4123 11.25 12.748 11.5858 12.748 12V25C12.748 25.4142 12.4123 25.75 11.998 25.75H7.99805C7.58383 25.75 7.24805 25.4142 7.24805 25V12ZM8.74805 12.75V24.25H11.248V12.75H8.74805Z" fill="#C5CED0"/>
<path fill-rule="evenodd" clip-rule="evenodd" d="M14.248 12C14.248 11.5858 14.5838 11.25 14.998 11.25H18.998C19.4123 11.25 19.748 11.5858 19.748 12V12.434L20.1833 12.2475C20.9317 11.9268 21.7319 11.7256 22.5413 11.6521C25.3163 11.3998 27.748 13.5804 27.748 16.3803V25C27.748 25.4142 27.4123 25.75 26.998 25.75H22.998C22.5838 25.75 22.248 25.4142 22.248 25V18C22.248 17.6685 22.1164 17.3505 21.8819 17.1161C21.6475 16.8817 21.3296 16.75 20.998 16.75C20.6665 16.75 20.3486 16.8817 20.1142 17.1161C19.8797 17.3505 19.748 17.6685 19.748 18V25C19.748 25.4142 19.4123 25.75 18.998 25.75H14.998C14.5838 25.75 14.248 25.4142 14.248 25V12ZM15.748 12.75V24.25H18.248V18C18.248 17.2707 18.5378 16.5712 19.0535 16.0555C19.5692 15.5397 20.2687 15.25 20.998 15.25C21.7274 15.25 22.4269 15.5397 22.9426 16.0555C23.4583 16.5712 23.748 17.2707 23.748 18V24.25H26.248V16.3803C26.248 14.4759 24.5871 12.9723 22.6771 13.1459C22.0231 13.2054 21.3765 13.3681 20.7742 13.6262L19.2935 14.2608C19.0618 14.3601 18.7956 14.3363 18.5852 14.1976C18.3747 14.0588 18.248 13.8235 18.248 13.5714V12.75H15.748Z" fill="#C5CED0"/>
</svg>
