<svg width="15" height="19" viewBox="0 0 15 19" fill="none" xmlns="http://www.w3.org/2000/svg">
<path d="M7.25053 10.545C6.59875 10.545 5.96161 10.3517 5.41968 9.98962C4.87774 9.62751 4.45536 9.11283 4.20593 8.51067C3.95651 7.9085 3.89125 7.2459 4.0184 6.60664C4.14556 5.96739 4.45942 5.3802 4.9203 4.91932C5.38117 4.45844 5.96837 4.14458 6.60762 4.01742C7.24688 3.89027 7.90948 3.95553 8.51165 4.20495C9.11381 4.45438 9.62849 4.87677 9.9906 5.4187C10.3527 5.96063 10.546 6.59778 10.546 7.24955C10.5449 8.12324 10.1974 8.96084 9.57961 9.57863C8.96182 10.1964 8.12422 10.544 7.25053 10.545ZM7.25053 5.27228C6.85946 5.27228 6.47718 5.38825 6.15202 5.60551C5.82686 5.82278 5.57343 6.13159 5.42377 6.49289C5.27412 6.85418 5.23496 7.25175 5.31125 7.6353C5.38755 8.01885 5.57586 8.37117 5.85239 8.6477C6.12892 8.92422 6.48123 9.11254 6.86478 9.18883C7.24834 9.26513 7.6459 9.22597 8.0072 9.07631C8.3685 8.92666 8.67731 8.67323 8.89457 8.34807C9.11184 8.02291 9.2278 7.64062 9.2278 7.24955C9.22728 6.72531 9.01879 6.22269 8.64809 5.85199C8.2774 5.48129 7.77478 5.27281 7.25053 5.27228Z" fill="#C5CED0"/>
<path d="M7.25 18.4545L1.68992 11.8972C1.61266 11.7988 1.5362 11.6997 1.46055 11.6C0.51079 10.3489 -0.00229442 8.82075 7.71326e-06 7.24999C7.71326e-06 5.32718 0.763844 3.48311 2.12348 2.12347C3.48312 0.763837 5.32718 0 7.25 0C9.17282 0 11.0169 0.763837 12.3765 2.12347C13.7362 3.48311 14.5 5.32718 14.5 7.24999C14.5023 8.82004 13.9894 10.3475 13.0401 11.598L13.0394 11.6C13.0394 11.6 12.8417 11.8597 12.8121 11.8946L7.25 18.4545ZM2.51246 10.8058C2.51378 10.8058 2.66669 11.0088 2.70162 11.0523L7.25 16.4166L11.8043 11.045C11.8333 11.0088 11.9875 10.8045 11.9882 10.8038C12.764 9.78163 13.1833 8.53326 13.1818 7.24999C13.1818 5.67678 12.5569 4.168 11.4444 3.05557C10.332 1.94314 8.82321 1.31818 7.25 1.31818C5.67679 1.31818 4.16801 1.94314 3.05558 3.05557C1.94315 4.168 1.31819 5.67678 1.31819 7.24999C1.31681 8.53406 1.73656 9.78315 2.51312 10.8058H2.51246Z" fill="#C5CED0"/>
</svg>
