<svg width="52" height="61" viewBox="0 0 52 61" fill="none" xmlns="http://www.w3.org/2000/svg">
<path fill-rule="evenodd" clip-rule="evenodd" d="M2.07031 26.0397C2.11474 12.9645 12.7502 2.40103 25.8254 2.44545C38.9005 2.48987 49.464 13.1254 49.4196 26.2005V26.4686C49.2587 34.9679 44.5131 42.8237 38.6949 48.9636C35.3676 52.4188 31.6518 55.4778 27.6218 58.0795C26.5442 59.0116 24.9457 59.0116 23.8681 58.0795C17.8603 54.1691 12.5874 49.2319 8.2906 43.494C4.46098 38.4904 2.28666 32.4173 2.07031 26.1201L2.07031 26.0397Z" stroke="#3DD368" stroke-width="4" stroke-linecap="round" stroke-linejoin="round"/>
<path opacity="0.4" d="M25.7459 36.0831C31.041 36.0831 35.3336 31.7905 35.3336 26.4954C35.3336 21.2003 31.041 16.9077 25.7459 16.9077C20.4508 16.9077 16.1582 21.2003 16.1582 26.4954C16.1582 31.7905 20.4508 36.0831 25.7459 36.0831Z" stroke="#46DC71" stroke-width="4" stroke-linecap="round" stroke-linejoin="round"/>
</svg>
