<svg width="18" height="18" viewBox="0 0 18 18" fill="none" xmlns="http://www.w3.org/2000/svg">
    <path
        d="M7.98649 1.95932C8.41191 1.1369 9.58809 1.13691 10.0135 1.95932C10.3222 2.55602 11.077 2.75827 11.6426 2.39584C12.4222 1.89631 13.4409 2.48441 13.3981 3.40935C13.367 4.08043 13.9196 4.63298 14.5907 4.60193C15.5156 4.55915 16.1037 5.57776 15.6042 6.35739C15.2417 6.92304 15.444 7.67783 16.0407 7.98649C16.8631 8.41191 16.8631 9.58809 16.0407 10.0135C15.444 10.3222 15.2417 11.077 15.6042 11.6426C16.1037 12.4222 15.5156 13.4409 14.5907 13.3981C13.9196 13.367 13.367 13.9196 13.3981 14.5907C13.4409 15.5156 12.4222 16.1037 11.6426 15.6042C11.077 15.2417 10.3222 15.444 10.0135 16.0407C9.58809 16.8631 8.41191 16.8631 7.98649 16.0407C7.67783 15.444 6.92304 15.2417 6.35739 15.6042C5.57776 16.1037 4.55915 15.5156 4.60193 14.5907C4.63298 13.9196 4.08043 13.367 3.40935 13.3981C2.48441 13.4409 1.89631 12.4222 2.39584 11.6426C2.75827 11.077 2.55602 10.3222 1.95932 10.0135C1.13691 9.58809 1.1369 8.41191 1.95932 7.98649C2.55602 7.67783 2.75827 6.92304 2.39584 6.35739C1.89631 5.57776 2.48441 4.55915 3.40935 4.60193C4.08043 4.63298 4.63298 4.08043 4.60193 3.40935C4.55915 2.48441 5.57776 1.89631 6.35739 2.39584C6.92304 2.75827 7.67783 2.55602 7.98649 1.95932Z"
        fill="#3DD368" />
    <circle cx="9" cy="9" r="4.89583" stroke="#041F29" stroke-width="0.708333" />
    <g clip-path="url(#clip0_2757_59344)">
        <path
            d="M9.29899 6.16468C9.20555 5.87687 8.79836 5.87687 8.70461 6.16468L8.22992 7.62531C8.20948 7.68801 8.16972 7.74264 8.11634 7.78137C8.06296 7.8201 7.99869 7.84095 7.93274 7.84093H6.39711C6.09461 7.84093 5.96836 8.22843 6.21336 8.40656L7.45586 9.30906C7.50923 9.34786 7.54896 9.40256 7.56933 9.46532C7.58971 9.52808 7.5897 9.59568 7.5693 9.65843L7.09492 11.1191C7.00117 11.4069 7.33086 11.6466 7.57555 11.4684L8.81805 10.5659C8.87145 10.5271 8.93578 10.5062 9.0018 10.5062C9.06782 10.5062 9.13215 10.5271 9.18555 10.5659L10.428 11.4684C10.6727 11.6466 11.0024 11.4072 10.9087 11.1191L10.4343 9.65843C10.4139 9.59568 10.4139 9.52808 10.4343 9.46532C10.4546 9.40256 10.4944 9.34786 10.5477 9.30906L11.7902 8.40656C12.0349 8.22843 11.9093 7.84093 11.6065 7.84093H10.0705C10.0047 7.84088 9.94045 7.82 9.88713 7.78128C9.83382 7.74255 9.7941 7.68796 9.77367 7.62531L9.29899 6.16468Z"
            stroke="#041F29" stroke-width="0.708333" stroke-linecap="round" stroke-linejoin="round" />
    </g>
    <defs>
        <clipPath id="clip0_2757_59344">
            <rect width="7.5" height="7.5" fill="white" transform="translate(5.25195 5.25)" />
        </clipPath>
    </defs>
</svg>