<svg width="16" height="16" viewBox="0 0 16 16" fill="none" xmlns="http://www.w3.org/2000/svg">
<path d="M7.75 1.57287C5.84769 1.57287 4.30556 2.98127 4.30556 4.71862C4.30556 6.45596 5.84769 7.86436 7.75 7.86436C9.65231 7.86436 11.1944 6.45596 11.1944 4.71862C11.1944 2.98127 9.65231 1.57287 7.75 1.57287ZM2.58333 4.71862C2.58333 2.1126 4.89653 0 7.75 0C10.6035 0 12.9167 2.1126 12.9167 4.71862C12.9167 7.32464 10.6035 9.43723 7.75 9.43723C4.89653 9.43723 2.58333 7.32464 2.58333 4.71862ZM4.30556 12.583C2.87882 12.583 1.72222 13.6393 1.72222 14.9423C1.72222 15.3766 1.33669 15.7287 0.861111 15.7287C0.385533 15.7287 0 15.3766 0 14.9423C0 12.7706 1.92766 11.0101 4.30556 11.0101H11.1944C13.5723 11.0101 15.5 12.7706 15.5 14.9423C15.5 15.3766 15.1145 15.7287 14.6389 15.7287C14.1633 15.7287 13.7778 15.3766 13.7778 14.9423C13.7778 13.6393 12.6212 12.583 11.1944 12.583H4.30556Z" fill="#3DD368"/>
</svg>
