<svg width="173" height="138" viewBox="0 0 173 138" fill="none" xmlns="http://www.w3.org/2000/svg">
<rect x="0.5" y="0.5" width="172" height="137" rx="3.5" stroke="#285E6A"/>
<g clip-path="url(#clip0_3514_71349)">
<path d="M120.001 80V91H131.001V98.3333H120.001V109.333H112.667V98.3333H101.667V91H112.667V80H120.001ZM120.03 36C122.039 36 123.667 37.6317 123.667 39.641V73.9207C121.312 73.0887 118.832 72.6646 116.334 72.6667V43.3333H57.6673L57.671 94.6667L91.7417 60.5923C92.3722 59.9598 93.2121 59.5793 94.1034 59.5226C94.9947 59.4659 95.876 59.7368 96.5817 60.2843L96.9227 60.596L109.925 73.6127C107.082 74.479 104.444 75.9121 102.169 77.8255C99.8953 79.739 98.0322 82.0932 96.6926 84.7461C95.3529 87.3991 94.5644 90.2959 94.3745 93.2619C94.1847 96.2279 94.5975 99.2015 95.588 102.004L53.9713 102C53.0063 101.999 52.0811 101.615 51.3991 100.932C50.7171 100.25 50.334 99.324 50.334 98.359V39.641C50.3407 38.6781 50.726 37.7564 51.4065 37.0751C52.0871 36.3939 53.0084 36.0077 53.9713 36H120.03ZM72.334 50.6667C74.2789 50.6667 76.1442 51.4393 77.5194 52.8145C78.8947 54.1898 79.6673 56.0551 79.6673 58C79.6673 59.9449 78.8947 61.8102 77.5194 63.1854C76.1442 64.5607 74.2789 65.3333 72.334 65.3333C70.3891 65.3333 68.5238 64.5607 67.1485 63.1854C65.7733 61.8102 65.0007 59.9449 65.0007 58C65.0007 56.0551 65.7733 54.1898 67.1485 52.8145C68.5238 51.4393 70.3891 50.6667 72.334 50.6667Z" fill="#73797B"/>
</g>
<defs>
<clipPath id="clip0_3514_71349">
<rect width="88" height="88" fill="white" transform="translate(43 25)"/>
</clipPath>
</defs>
</svg>
