<svg width="20" height="20" viewBox="0 0 20 20" fill="none" xmlns="http://www.w3.org/2000/svg">
<path d="M19.6004 9.9999C19.6004 12.546 18.589 14.9878 16.7886 16.7881C14.9883 18.5885 12.5465 19.5999 10.0004 19.5999C7.45431 19.5999 5.01252 18.5885 3.21217 16.7881C1.41182 14.9878 0.400391 12.546 0.400391 9.9999C0.400391 7.45382 1.41182 5.01203 3.21217 3.21168C5.01252 1.41133 7.45431 0.399902 10.0004 0.399902C12.5465 0.399902 14.9883 1.41133 16.7886 3.21168C18.589 5.01203 19.6004 7.45382 19.6004 9.9999ZM5.20039 9.9999C5.20039 10.159 5.26361 10.3116 5.37613 10.4242C5.48865 10.5367 5.64126 10.5999 5.80039 10.5999H9.40039V14.1999C9.40039 14.359 9.4636 14.5116 9.57613 14.6242C9.68865 14.7367 9.84126 14.7999 10.0004 14.7999C10.1595 14.7999 10.3121 14.7367 10.4247 14.6242C10.5372 14.5116 10.6004 14.359 10.6004 14.1999V10.5999H14.2004C14.3595 10.5999 14.5121 10.5367 14.6247 10.4242C14.7372 10.3116 14.8004 10.159 14.8004 9.9999C14.8004 9.84077 14.7372 9.68816 14.6247 9.57564C14.5121 9.46312 14.3595 9.3999 14.2004 9.3999H10.6004V5.7999C10.6004 5.64077 10.5372 5.48816 10.4247 5.37564C10.3121 5.26312 10.1595 5.1999 10.0004 5.1999C9.84126 5.1999 9.68865 5.26312 9.57613 5.37564C9.4636 5.48816 9.40039 5.64077 9.40039 5.7999V9.3999H5.80039C5.64126 9.3999 5.48865 9.46312 5.37613 9.57564C5.26361 9.68816 5.20039 9.84077 5.20039 9.9999Z" fill="#3DD368"/>
</svg>
