<svg width="16" height="17" viewBox="0 0 16 17" fill="none" xmlns="http://www.w3.org/2000/svg">
<path d="M12.6667 13.8332H3.33333C2.97971 13.8332 2.64057 13.6927 2.39052 13.4426C2.14048 13.1926 2 12.8535 2 12.4998V4.49984C2 4.14622 2.14048 3.80708 2.39052 3.55703C2.64057 3.30698 2.97971 3.1665 3.33333 3.1665H10C10.3536 3.1665 10.6928 3.30698 10.9428 3.55703C11.1929 3.80708 11.3333 4.14622 11.3333 4.49984V5.1665M12.6667 13.8332C12.313 13.8332 11.9739 13.6927 11.7239 13.4426C11.4738 13.1926 11.3333 12.8535 11.3333 12.4998V5.1665M12.6667 13.8332C13.0203 13.8332 13.3594 13.6927 13.6095 13.4426C13.8595 13.1926 14 12.8535 14 12.4998V6.49984C14 6.14622 13.8595 5.80708 13.6095 5.55703C13.3594 5.30698 13.0203 5.1665 12.6667 5.1665H11.3333M8.66667 3.1665H6M4.66667 11.1665H8.66667M4.66667 5.83317H8.66667V8.49984H4.66667V5.83317Z" stroke="white" stroke-linecap="round" stroke-linejoin="round"/>
</svg>
