<svg width="20" height="19" viewBox="0 0 20 19" fill="none" xmlns="http://www.w3.org/2000/svg">
    <path
        d="M3.81315 14.5C3.02303 14.5 2.26526 14.1861 1.70656 13.6274C1.14786 13.0687 0.833984 12.311 0.833984 11.5208V3.72917C0.833984 2.93904 1.14786 2.18128 1.70656 1.62258C2.26526 1.06388 3.02303 0.75 3.81315 0.75H16.1882C16.5794 0.75 16.9668 0.827058 17.3282 0.976776C17.6897 1.12649 18.0181 1.34594 18.2947 1.62258C18.5714 1.89922 18.7908 2.22764 18.9405 2.58909C19.0903 2.95054 19.1673 3.33794 19.1673 3.72917V11.5208C19.1673 11.9121 19.0903 12.2995 18.9405 12.6609C18.7908 13.0224 18.5714 13.3508 18.2947 13.6274C18.0181 13.9041 17.6897 14.1235 17.3282 14.2732C16.9668 14.4229 16.5794 14.5 16.1882 14.5H10.9283L6.33398 17.9375C6.16375 18.0649 5.96141 18.1424 5.74962 18.1614C5.53783 18.1804 5.32493 18.14 5.13476 18.0449C4.94459 17.9498 4.78464 17.8036 4.67282 17.6227C4.56099 17.4419 4.5017 17.2335 4.50157 17.0208V14.5H3.81407H3.81315ZM10.4718 13.125H16.1882C16.6136 13.125 17.0216 12.956 17.3225 12.6552C17.6233 12.3543 17.7923 11.9463 17.7923 11.5208V3.72917C17.7923 3.30372 17.6233 2.89569 17.3225 2.59485C17.0216 2.29401 16.6136 2.125 16.1882 2.125H3.81315C3.3877 2.125 2.97967 2.29401 2.67883 2.59485C2.37799 2.89569 2.20898 3.30372 2.20898 3.72917V11.5208C2.20898 12.4063 2.92765 13.125 3.81315 13.125H5.87473V16.5625L10.4718 13.125Z"
        fill="#EFEFEF" />
</svg>