<svg width="16" height="14" viewBox="0 0 16 14" fill="none" xmlns="http://www.w3.org/2000/svg">
<path d="M8.93426 1.6707C11.3949 3.2457 12.6249 5.14383 12.6249 7.36258C12.6249 8.0532 12.5043 8.3982 12.2643 8.3982L12.0168 8.33133C11.8218 8.25633 11.6649 8.21883 11.5443 8.21883C10.8399 8.21883 10.2505 8.47508 9.77863 8.98758C9.30613 9.50008 9.06988 10.1313 9.06988 10.8851C9.06988 11.6082 9.32613 12.2226 9.83551 12.727C10.3455 13.2313 10.9605 13.4832 11.6805 13.4832C12.6855 13.4832 13.5149 13.0707 14.168 12.2438C14.8199 11.4188 15.1455 10.3813 15.1455 9.1332C15.1455 7.7207 14.8693 6.42883 14.3143 5.25633C13.758 4.08445 12.9118 3.02508 11.7718 2.0782C10.6318 1.13195 9.90426 0.658203 9.58926 0.658203C9.37926 0.658203 9.20676 0.759453 9.07176 0.961953C8.93676 1.16383 8.86926 1.34008 8.86926 1.49008L8.93613 1.67008L8.93426 1.6707ZM0.834257 1.6707C3.29488 3.2457 4.52426 5.1432 4.52426 7.3632C4.52426 8.05383 4.40363 8.39883 4.16363 8.39883L3.91613 8.33195C3.72113 8.25695 3.56426 8.21945 3.44363 8.21945C2.75426 8.21945 2.16863 8.4757 1.68926 8.9882C1.20801 9.5007 0.969257 10.132 0.969257 10.8857C0.969257 11.6088 1.22551 12.2232 1.73488 12.7276C2.24488 13.232 2.85988 13.4838 3.57988 13.4838C4.58488 13.4838 5.41426 13.0713 6.06738 12.2445C6.71926 11.4195 7.04488 10.382 7.04488 9.13383C7.04488 7.70633 6.76488 6.40258 6.20113 5.22383C5.63863 4.04445 4.79176 2.9882 3.65926 2.05695C2.52488 1.12508 1.80176 0.658828 1.48738 0.658828C1.27676 0.658828 1.10426 0.760078 0.968633 0.962578C0.834257 1.16508 0.766758 1.34133 0.766758 1.49133L0.834257 1.6707Z" fill="#C5CED0"/>
</svg>
