<svg width="16" height="14" viewBox="0 0 16 14" fill="none" xmlns="http://www.w3.org/2000/svg">
<path d="M7.06574 1.6707C4.60512 3.2457 3.37512 5.14383 3.37512 7.36258C3.37512 8.0532 3.49574 8.3982 3.73574 8.3982L3.98324 8.33133C4.17824 8.25633 4.33512 8.21883 4.45574 8.21883C5.16012 8.21883 5.74949 8.47508 6.22137 8.98758C6.69387 9.50008 6.93012 10.1313 6.93012 10.8851C6.93012 11.6082 6.67387 12.2226 6.16449 12.727C5.65449 13.2313 5.03949 13.4832 4.31949 13.4832C3.31449 13.4832 2.48512 13.0707 1.83199 12.2438C1.18012 11.4188 0.854492 10.3813 0.854492 9.1332C0.854492 7.7207 1.13074 6.42883 1.68574 5.25633C2.24199 4.08445 3.08824 3.02508 4.22824 2.0782C5.36824 1.13195 6.09574 0.658203 6.41074 0.658203C6.62074 0.658203 6.79324 0.759453 6.92824 0.961953C7.06324 1.16383 7.13074 1.34008 7.13074 1.49008L7.06387 1.67008L7.06574 1.6707ZM15.1657 1.6707C12.7051 3.2457 11.4757 5.1432 11.4757 7.3632C11.4757 8.05383 11.5964 8.39883 11.8364 8.39883L12.0839 8.33195C12.2789 8.25695 12.4357 8.21945 12.5564 8.21945C13.2457 8.21945 13.8314 8.4757 14.3107 8.9882C14.792 9.5007 15.0307 10.132 15.0307 10.8857C15.0307 11.6088 14.7745 12.2232 14.2651 12.7276C13.7551 13.232 13.1401 13.4838 12.4201 13.4838C11.4151 13.4838 10.5857 13.0713 9.93262 12.2445C9.28074 11.4195 8.95512 10.382 8.95512 9.13383C8.95512 7.70633 9.23512 6.40258 9.79887 5.22383C10.3614 4.04445 11.2082 2.9882 12.3407 2.05695C13.4751 1.12508 14.1982 0.658828 14.5126 0.658828C14.7232 0.658828 14.8957 0.760078 15.0314 0.962578C15.1657 1.16508 15.2332 1.34133 15.2332 1.49133L15.1657 1.6707Z" fill="#C5CED0"/>
</svg>
