<svg width="22" height="22" viewBox="0 0 22 22" fill="none" xmlns="http://www.w3.org/2000/svg">
    <path
        d="M4.81315 16.5C4.02303 16.5 3.26526 16.1861 2.70656 15.6274C2.14786 15.0687 1.83398 14.311 1.83398 13.5208V5.72917C1.83398 4.93904 2.14786 4.18128 2.70656 3.62258C3.26526 3.06388 4.02303 2.75 4.81315 2.75H17.1882C17.5794 2.75 17.9668 2.82706 18.3282 2.97678C18.6897 3.12649 19.0181 3.34594 19.2947 3.62258C19.5714 3.89922 19.7908 4.22764 19.9405 4.58909C20.0903 4.95054 20.1673 5.33794 20.1673 5.72917V13.5208C20.1673 13.9121 20.0903 14.2995 19.9405 14.6609C19.7908 15.0224 19.5714 15.3508 19.2947 15.6274C19.0181 15.9041 18.6897 16.1235 18.3282 16.2732C17.9668 16.4229 17.5794 16.5 17.1882 16.5H11.9283L7.33398 19.9375C7.16375 20.0649 6.96141 20.1424 6.74962 20.1614C6.53783 20.1804 6.32493 20.14 6.13476 20.0449C5.94459 19.9498 5.78464 19.8036 5.67282 19.6227C5.56099 19.4419 5.5017 19.2335 5.50157 19.0208V16.5H4.81407H4.81315ZM11.4718 15.125H17.1882C17.6136 15.125 18.0216 14.956 18.3225 14.6552C18.6233 14.3543 18.7923 13.9463 18.7923 13.5208V5.72917C18.7923 5.30372 18.6233 4.89569 18.3225 4.59485C18.0216 4.29401 17.6136 4.125 17.1882 4.125H4.81315C4.3877 4.125 3.97967 4.29401 3.67883 4.59485C3.37799 4.89569 3.20898 5.30372 3.20898 5.72917V13.5208C3.20898 14.4063 3.92765 15.125 4.81315 15.125H6.87473V18.5625L11.4718 15.125Z"
        fill="#EFEFEF" />
    <path
        d="M5.42 11V8.2H6.512C6.75733 8.2 6.96667 8.23867 7.14 8.316C7.31333 8.39333 7.44667 8.50533 7.54 8.652C7.63333 8.79867 7.68 8.97333 7.68 9.176C7.68 9.37867 7.63333 9.55333 7.54 9.7C7.44667 9.844 7.31333 9.95467 7.14 10.032C6.96667 10.1093 6.75733 10.148 6.512 10.148H5.64L5.82 9.964V11H5.42ZM7.292 11L6.58 9.984H7.008L7.728 11H7.292ZM5.82 10.004L5.64 9.808H6.5C6.756 9.808 6.94933 9.75333 7.08 9.644C7.21333 9.532 7.28 9.376 7.28 9.176C7.28 8.976 7.21333 8.82133 7.08 8.712C6.94933 8.60267 6.756 8.548 6.5 8.548H5.64L5.82 8.348V10.004ZM9.21425 11.024C8.98758 11.024 8.78758 10.9773 8.61425 10.884C8.44358 10.7907 8.31025 10.6627 8.21425 10.5C8.12092 10.3373 8.07425 10.1507 8.07425 9.94C8.07425 9.72933 8.11958 9.54267 8.21025 9.38C8.30358 9.21733 8.43025 9.09067 8.59025 9C8.75292 8.90667 8.93558 8.86 9.13825 8.86C9.34358 8.86 9.52492 8.90533 9.68225 8.996C9.83958 9.08667 9.96225 9.21467 10.0503 9.38C10.1409 9.54267 10.1863 9.73333 10.1863 9.952C10.1863 9.968 10.1849 9.98667 10.1823 10.008C10.1823 10.0293 10.1809 10.0493 10.1783 10.068H8.37425V9.792H9.97825L9.82225 9.888C9.82492 9.752 9.79692 9.63067 9.73825 9.524C9.67958 9.41733 9.59825 9.33467 9.49425 9.276C9.39292 9.21467 9.27425 9.184 9.13825 9.184C9.00492 9.184 8.88625 9.21467 8.78225 9.276C8.67825 9.33467 8.59692 9.41867 8.53825 9.528C8.47958 9.63467 8.45025 9.75733 8.45025 9.896V9.96C8.45025 10.1013 8.48225 10.228 8.54625 10.34C8.61292 10.4493 8.70492 10.5347 8.82225 10.596C8.93958 10.6573 9.07425 10.688 9.22625 10.688C9.35158 10.688 9.46492 10.6667 9.56625 10.624C9.67025 10.5813 9.76092 10.5173 9.83825 10.432L10.0503 10.68C9.95425 10.792 9.83425 10.8773 9.69025 10.936C9.54892 10.9947 9.39025 11.024 9.21425 11.024ZM11.8435 11.024C11.6675 11.024 11.5061 10.984 11.3595 10.904C11.2155 10.8213 11.0995 10.7 11.0115 10.54C10.9261 10.38 10.8835 10.18 10.8835 9.94C10.8835 9.7 10.9248 9.5 11.0075 9.34C11.0928 9.18 11.2075 9.06 11.3515 8.98C11.4981 8.9 11.6621 8.86 11.8435 8.86C12.0515 8.86 12.2355 8.90533 12.3955 8.996C12.5555 9.08667 12.6821 9.21333 12.7755 9.376C12.8688 9.536 12.9155 9.724 12.9155 9.94C12.9155 10.156 12.8688 10.3453 12.7755 10.508C12.6821 10.6707 12.5555 10.7973 12.3955 10.888C12.2355 10.9787 12.0515 11.024 11.8435 11.024ZM10.7195 11.776V8.88H11.0875V9.452L11.0635 9.944L11.1035 10.436V11.776H10.7195ZM11.8115 10.688C11.9475 10.688 12.0688 10.6573 12.1755 10.596C12.2848 10.5347 12.3701 10.448 12.4315 10.336C12.4955 10.2213 12.5275 10.0893 12.5275 9.94C12.5275 9.788 12.4955 9.65733 12.4315 9.548C12.3701 9.436 12.2848 9.34933 12.1755 9.288C12.0688 9.22667 11.9475 9.196 11.8115 9.196C11.6781 9.196 11.5568 9.22667 11.4475 9.288C11.3408 9.34933 11.2555 9.436 11.1915 9.548C11.1301 9.65733 11.0995 9.788 11.0995 9.94C11.0995 10.0893 11.1301 10.2213 11.1915 10.336C11.2555 10.448 11.3408 10.5347 11.4475 10.596C11.5568 10.6573 11.6781 10.688 11.8115 10.688ZM13.446 11V8.032H13.83V11H13.446ZM14.6552 11.8C14.5539 11.8 14.4552 11.7827 14.3592 11.748C14.2632 11.716 14.1806 11.668 14.1112 11.604L14.2752 11.316C14.3286 11.3667 14.3872 11.4053 14.4512 11.432C14.5152 11.4587 14.5832 11.472 14.6552 11.472C14.7486 11.472 14.8259 11.448 14.8872 11.4C14.9486 11.352 15.0059 11.2667 15.0592 11.144L15.1912 10.852L15.2312 10.804L16.0632 8.88H16.4392L15.4112 11.212C15.3499 11.3613 15.2806 11.4787 15.2032 11.564C15.1286 11.6493 15.0459 11.7093 14.9552 11.744C14.8646 11.7813 14.7646 11.8 14.6552 11.8ZM15.1592 11.068L14.1912 8.88H14.5912L15.4152 10.768L15.1592 11.068Z"
        fill="white" />
</svg>