<svg width="14" height="14" viewBox="0 0 14 14" fill="none" xmlns="http://www.w3.org/2000/svg">
<path d="M7.00065 1.66683C4.05513 1.66683 1.66732 4.05464 1.66732 7.00016C1.66732 9.94568 4.05513 12.3335 7.00065 12.3335C9.94617 12.3335 12.334 9.94568 12.334 7.00016C12.334 4.05464 9.94617 1.66683 7.00065 1.66683ZM0.333984 7.00016C0.333984 3.31826 3.31875 0.333496 7.00065 0.333496C10.6825 0.333496 13.6673 3.31826 13.6673 7.00016C13.6673 10.6821 10.6825 13.6668 7.00065 13.6668C3.31875 13.6668 0.333984 10.6821 0.333984 7.00016Z" fill="#F14D42"/>
<path d="M7.00065 8.3335C6.63246 8.3335 6.33398 8.03502 6.33398 7.66683L6.33398 3.66683C6.33398 3.29864 6.63246 3.00016 7.00065 3.00016C7.36884 3.00016 7.66732 3.29864 7.66732 3.66683L7.66732 7.66683C7.66732 8.03502 7.36884 8.3335 7.00065 8.3335Z" fill="#F14D42"/>
<path d="M6.00065 10.0002C6.00065 9.44788 6.44837 9.00016 7.00065 9.00016C7.55294 9.00016 8.00065 9.44788 8.00065 10.0002C8.00065 10.5524 7.55294 11.0002 7.00065 11.0002C6.44837 11.0002 6.00065 10.5524 6.00065 10.0002Z" fill="#F14D42"/>
</svg>
