<svg width="14" height="12" viewBox="0 0 14 12" fill="none" xmlns="http://www.w3.org/2000/svg">
<path d="M5.66667 2.5H2.33333C1.97971 2.5 1.64057 2.64048 1.39052 2.89052C1.14048 3.14057 1 3.47971 1 3.83333V9.83333C1 10.187 1.14048 10.5261 1.39052 10.7761C1.64057 11.0262 1.97971 11.1667 2.33333 11.1667H11.6667C12.0203 11.1667 12.3594 11.0262 12.6095 10.7761C12.8595 10.5261 13 10.187 13 9.83333V3.83333C13 3.47971 12.8595 3.14057 12.6095 2.89052C12.3594 2.64048 12.0203 2.5 11.6667 2.5H8.33333M5.66667 2.5V1.83333C5.66667 1.47971 5.80714 1.14057 6.05719 0.890524C6.30724 0.640476 6.64638 0.5 7 0.5C7.35362 0.5 7.69276 0.640476 7.94281 0.890524C8.19286 1.14057 8.33333 1.47971 8.33333 1.83333V2.5M5.66667 2.5C5.66667 2.85362 5.80714 3.19276 6.05719 3.44281C6.30724 3.69286 6.64638 3.83333 7 3.83333C7.35362 3.83333 7.69276 3.69286 7.94281 3.44281C8.19286 3.19276 8.33333 2.85362 8.33333 2.5M5 7.83333C5.35362 7.83333 5.69276 7.69286 5.94281 7.44281C6.19286 7.19276 6.33333 6.85362 6.33333 6.5C6.33333 6.14638 6.19286 5.80724 5.94281 5.55719C5.69276 5.30714 5.35362 5.16667 5 5.16667C4.64638 5.16667 4.30724 5.30714 4.05719 5.55719C3.80714 5.80724 3.66667 6.14638 3.66667 6.5C3.66667 6.85362 3.80714 7.19276 4.05719 7.44281C4.30724 7.69286 4.64638 7.83333 5 7.83333ZM5 7.83333C5.87067 7.83333 6.61133 8.39 6.88667 9.16667M5 7.83333C4.58626 7.83321 4.18265 7.96137 3.84477 8.20016C3.50688 8.43895 3.25134 8.77662 3.11333 9.16667M9 5.83333H11M9 8.5H10.3333" stroke="white" stroke-linecap="round" stroke-linejoin="round"/>
</svg>
