<svg width="32" height="32" viewBox="0 0 32 32" fill="none" xmlns="http://www.w3.org/2000/svg">
<circle cx="16" cy="16" r="15.5" stroke="url(#paint0_linear_2615_70476)"/>
<path d="M16.0901 9.29289C16.4424 8.90237 17.0135 8.90237 17.3658 9.29289L22.7782 15.2929C22.9473 15.4804 23.0424 15.7348 23.0424 16C23.0424 16.2652 22.9473 16.5196 22.7782 16.7071L17.3658 22.7071C17.0135 23.0976 16.4424 23.0976 16.0901 22.7071C15.7378 22.3166 15.7378 21.6834 16.0901 21.2929L19.9625 17L9.51144 17C9.01324 17 8.60938 16.5523 8.60938 16C8.60938 15.4477 9.01324 15 9.51144 15L19.9625 15L16.0901 10.7071C15.7378 10.3166 15.7378 9.68342 16.0901 9.29289Z" fill="white"/>
<defs>
<linearGradient id="paint0_linear_2615_70476" x1="0.685714" y1="7.86886" x2="32.334" y2="8.5986" gradientUnits="userSpaceOnUse">
<stop offset="0.452889" stop-color="#FE9730"/>
<stop offset="1" stop-color="#FB5046"/>
</linearGradient>
</defs>
</svg>
