<svg width="14" height="16" viewBox="0 0 14 16" fill="none" xmlns="http://www.w3.org/2000/svg">
<path d="M0 1.59824C0 0.715558 0.783501 0 1.75 0H12.25C13.2165 0 14 0.715557 14 1.59824V15.1833C14 15.4826 13.8168 15.7569 13.5254 15.8938C13.2339 16.0308 12.8831 16.0075 12.6164 15.8336L7 12.1697L1.38358 15.8336C1.11687 16.0075 0.766053 16.0308 0.474616 15.8938C0.183179 15.7569 0 15.4826 0 15.1833V1.59824ZM12.25 1.59824L1.75 1.59824V13.6304L6.49142 10.5374C6.79565 10.3389 7.20435 10.3389 7.50858 10.5374L12.25 13.6304V1.59824Z" fill="#3DD368"/>
</svg>
