<svg width="17" height="16" viewBox="0 0 17 16" fill="none" xmlns="http://www.w3.org/2000/svg">
<path d="M8.5 1.55258C8.03056 1.55258 7.65 1.90013 7.65 2.32887C7.65 3.64254 5.91089 4.30044 4.89378 3.37153C4.56183 3.06837 4.02364 3.06837 3.69169 3.37153C3.35975 3.67469 3.35975 4.1662 3.69169 4.46936C4.70885 5.39831 3.98839 6.98659 2.55 6.98659C2.08056 6.98659 1.7 7.33415 1.7 7.76288C1.7 8.19162 2.08056 8.53917 2.55 8.53917C3.98851 8.53917 4.70869 10.1275 3.69164 11.0564C3.35969 11.3596 3.35969 11.8511 3.69164 12.1542C4.02359 12.4574 4.56178 12.4574 4.89372 12.1542C5.91082 11.2253 7.65 11.8832 7.65 13.1969C7.65 13.6256 8.03056 13.9732 8.5 13.9732C8.96944 13.9732 9.35 13.6256 9.35 13.1969C9.35 11.8832 11.0891 11.2253 12.1063 12.1542C12.4382 12.4574 12.9764 12.4574 13.3083 12.1542C13.6403 11.8511 13.6403 11.3595 13.3083 11.0564C12.2913 10.1275 13.0115 8.53917 14.45 8.53917C14.9194 8.53917 15.3 8.19162 15.3 7.76288C15.3 7.33415 14.9194 6.9866 14.45 6.9866C13.0117 6.9866 12.2911 5.39835 13.3083 4.46938C13.6402 4.16622 13.6402 3.6747 13.3083 3.37154C12.9763 3.06838 12.4382 3.06838 12.1062 3.37154C11.0891 4.30048 9.35 3.6425 9.35 2.32887C9.35 1.90013 8.96944 1.55258 8.5 1.55258ZM5.95694 2.15577C6.0539 0.950411 7.15542 0 8.5 0C9.84458 0 10.9461 0.950411 11.0431 2.15578C12.0449 1.36609 13.5596 1.4054 14.5104 2.2737C15.4611 3.14201 15.5042 4.52541 14.6395 5.44035C15.9593 5.52889 17 6.53489 17 7.76288C17 8.99086 15.9593 9.99685 14.6395 10.0854C15.5042 11.0004 15.4612 12.3838 14.5104 13.2521C13.5597 14.1204 12.0449 14.1597 11.0431 13.3699C10.9461 14.5753 9.84459 15.5258 8.5 15.5258C7.15541 15.5258 6.05388 14.5753 5.95693 13.37C4.95512 14.1597 3.44033 14.1204 2.48956 13.2521C1.53879 12.3838 1.49576 11.0004 2.36047 10.0854C1.04065 9.99685 0 8.99086 0 7.76288C0 6.53489 1.04068 5.52889 2.36052 5.44035C1.49582 4.52541 1.53885 3.14201 2.48961 2.27369C3.44037 1.40538 4.95512 1.36607 5.95694 2.15577Z" fill="#3DD368"/>
<path d="M8.5 6.21031C8.04913 6.21031 7.61673 6.37388 7.29792 6.66505C6.97911 6.95621 6.8 7.35111 6.8 7.76288C6.8 8.17465 6.97911 8.56956 7.29792 8.86072C7.61673 9.15189 8.04913 9.31546 8.5 9.31546C8.95087 9.31546 9.38327 9.15189 9.70208 8.86072C10.0209 8.56956 10.2 8.17465 10.2 7.76288C10.2 7.35111 10.0209 6.95621 9.70208 6.66505C9.38327 6.37388 8.95087 6.21031 8.5 6.21031ZM6.09584 5.56721C6.73346 4.98488 7.59826 4.65773 8.5 4.65773C9.40174 4.65773 10.2665 4.98488 10.9042 5.56721C11.5418 6.14954 11.9 6.93935 11.9 7.76288C11.9 8.58642 11.5418 9.37623 10.9042 9.95856C10.2665 10.5409 9.40174 10.868 8.5 10.868C7.59826 10.868 6.73346 10.5409 6.09584 9.95856C5.45821 9.37623 5.1 8.58642 5.1 7.76288C5.1 6.93935 5.45821 6.14954 6.09584 5.56721Z" fill="#3DD368"/>
</svg>
