<svg width="20" height="20" viewBox="0 0 20 20" fill="none" xmlns="http://www.w3.org/2000/svg">
<path d="M13.5003 4.99984C13.5003 4.5396 13.8734 4.1665 14.3337 4.1665C14.8643 4.1665 15.3857 4.27312 15.8932 4.47611C16.4454 4.69701 16.8705 5.02484 17.2562 5.41058C17.642 5.79632 17.9698 6.22142 18.1907 6.77368C18.3937 7.28113 18.5003 7.80255 18.5003 8.33317C18.5003 8.86379 18.3937 9.38521 18.1907 9.89266C17.9726 10.438 17.6502 10.8593 17.2707 11.2412L16.4503 12.1437C16.4414 12.1535 16.4323 12.1631 16.4229 12.1724L13.7562 14.8391C13.3705 15.2248 12.9454 15.5527 12.3932 15.7736C11.8857 15.9766 11.3643 16.0832 10.8337 16.0832C10.303 16.0832 9.78162 15.9766 9.27417 15.7736C8.72191 15.5527 8.29681 15.2248 7.91107 14.8391C7.52533 14.4534 7.1975 14.0283 6.97659 13.476C6.76971 12.9588 6.66699 12.4369 6.66699 11.8332C6.66699 11.3026 6.77361 10.7811 6.97659 10.2737C7.1975 9.72142 7.52533 9.29632 7.91107 8.91058L8.82774 7.99392C9.15317 7.66848 9.68081 7.66848 10.0062 7.99392C10.3317 8.31935 10.3317 8.84699 10.0062 9.17243L9.08958 10.0891C8.80865 10.37 8.63649 10.6116 8.52406 10.8927C8.39371 11.2185 8.33366 11.5305 8.33366 11.8332C8.33366 12.2295 8.39761 12.5409 8.52406 12.857C8.63649 13.1381 8.80865 13.3797 9.08958 13.6606C9.37051 13.9415 9.61208 14.1137 9.89315 14.2261C10.219 14.3565 10.5309 14.4165 10.8337 14.4165C11.1364 14.4165 11.4483 14.3565 11.7742 14.2261C12.0552 14.1137 12.2968 13.9415 12.5777 13.6606L15.2304 11.0079L16.0504 10.1059C16.0593 10.0962 16.0684 10.0866 16.0777 10.0772C16.3587 9.79632 16.5308 9.55475 16.6433 9.27368C16.7736 8.9478 16.8337 8.63589 16.8337 8.33317C16.8337 8.03045 16.7736 7.71854 16.6433 7.39266C16.5308 7.11159 16.3587 6.87002 16.0777 6.58909C15.7968 6.30817 15.5552 6.136 15.2742 6.02357C14.9483 5.89322 14.6364 5.83317 14.3337 5.83317C13.8734 5.83317 13.5003 5.46007 13.5003 4.99984ZM9.41699 6.24984C9.11427 6.24984 8.80236 6.30988 8.47648 6.44023C8.19541 6.55266 7.95384 6.72483 7.67291 7.00576L4.93694 9.74174L4.11694 10.6437C4.10805 10.6535 4.09893 10.6631 4.08958 10.6724C3.80865 10.9534 3.63648 11.1949 3.52406 11.476C3.39371 11.8019 3.33366 12.1138 3.33366 12.4165C3.33366 12.7192 3.39371 13.0311 3.52406 13.357C3.63648 13.6381 3.80866 13.8797 4.08958 14.1606C4.37051 14.4415 4.61208 14.6137 4.89315 14.7261C5.21903 14.8565 5.53094 14.9165 5.83366 14.9165C6.2939 14.9165 6.66699 15.2896 6.66699 15.7498C6.66699 16.2101 6.2939 16.5832 5.83366 16.5832C5.30304 16.5832 4.78162 16.4766 4.27417 16.2736C3.7219 16.0527 3.29681 15.7248 2.91107 15.3391C2.52533 14.9534 2.1975 14.5283 1.97659 13.976C1.77361 13.4685 1.66699 12.9471 1.66699 12.4165C1.66699 11.8859 1.77361 11.3645 1.97659 10.857C2.19473 10.3117 2.51712 9.89034 2.89659 9.50845L3.71704 8.60594C3.72593 8.59616 3.73506 8.58659 3.7444 8.57725L6.4944 5.82725C6.88014 5.44151 7.30524 5.11368 7.8575 4.89277C8.36496 4.68979 8.88638 4.58317 9.41699 4.58317C9.94761 4.58317 10.469 4.68979 10.9765 4.89277C11.5287 5.11368 11.9538 5.44151 12.3396 5.82725C12.7253 6.21299 13.0532 6.63808 13.2741 7.19035C13.477 7.6978 13.5837 8.21922 13.5837 8.74984C13.5837 9.28045 13.477 9.80187 13.2741 10.3093C13.0557 10.8553 12.7328 11.2769 12.3528 11.6592L11.448 12.6463C11.137 12.9855 10.6098 13.0085 10.2706 12.6975C9.93129 12.3865 9.90837 11.8593 10.2194 11.5201L11.136 10.5201C11.1442 10.5112 11.1525 10.5024 11.1611 10.4939C11.442 10.213 11.6142 9.97142 11.7266 9.69034C11.8569 9.36447 11.917 9.05256 11.917 8.74984C11.917 8.44712 11.8569 8.13521 11.7266 7.80933C11.6142 7.52826 11.442 7.28669 11.1611 7.00576C10.8801 6.72483 10.6386 6.55266 10.3575 6.44023C10.0316 6.30988 9.71971 6.24984 9.41699 6.24984Z" fill="#3DD368"/>
</svg>
