<svg width="17" height="16" viewBox="0 0 17 16" fill="none" xmlns="http://www.w3.org/2000/svg">
<path d="M8.3335 3.04492C8.55456 3.04492 8.76656 3.12512 8.92287 3.26788C9.07919 3.41063 9.167 3.60425 9.167 3.80614V8.37346C9.167 8.57534 9.07919 8.76896 8.92287 8.91172C8.76656 9.05448 8.55456 9.13468 8.3335 9.13468C8.11244 9.13468 7.90044 9.05448 7.74413 8.91172C7.58782 8.76896 7.5 8.57534 7.5 8.37346V3.80614C7.5 3.60425 7.58782 3.41063 7.74413 3.26788C7.90044 3.12512 8.11244 3.04492 8.3335 3.04492ZM8.3335 10.6571C8.11244 10.6571 7.90044 10.7373 7.74413 10.8801C7.58782 11.0228 7.5 11.2164 7.5 11.4183C7.5 11.6202 7.58782 11.8138 7.74413 11.9566C7.90044 12.0994 8.11244 12.1796 8.3335 12.1796C8.55456 12.1796 8.76656 12.0994 8.92287 11.9566C9.07919 11.8138 9.167 11.6202 9.167 11.4183C9.167 11.2164 9.07919 11.0228 8.92287 10.8801C8.76656 10.7373 8.55456 10.6571 8.3335 10.6571Z" fill="#3DD368"/>
<path fill-rule="evenodd" clip-rule="evenodd" d="M8.335 0C3.73158 0 0 3.40798 0 7.61219C0 11.8164 3.73158 15.2244 8.335 15.2244C12.9384 15.2244 16.67 11.8164 16.67 7.61219C16.67 3.40798 12.9384 0 8.335 0ZM1.667 7.61219C1.667 9.2273 2.36952 10.7762 3.62001 11.9183C4.8705 13.0603 6.56654 13.7019 8.335 13.7019C10.1035 13.7019 11.7995 13.0603 13.05 11.9183C14.3005 10.7762 15.003 9.2273 15.003 7.61219C15.003 5.99709 14.3005 4.44814 13.05 3.30609C11.7995 2.16404 10.1035 1.52244 8.335 1.52244C6.56654 1.52244 4.8705 2.16404 3.62001 3.30609C2.36952 4.44814 1.667 5.99709 1.667 7.61219Z" fill="#3DD368"/>
</svg>
