<svg width="146" height="19" viewBox="0 0 146 19" fill="none" xmlns="http://www.w3.org/2000/svg">
<path d="M10.4062 13.5352C10.4062 13.2305 10.3594 12.957 10.2656 12.7148C10.1797 12.4648 10.0156 12.2383 9.77344 12.0352C9.53125 11.8242 9.19141 11.6172 8.75391 11.4141C8.31641 11.2109 7.75 11 7.05469 10.7812C6.28125 10.5312 5.54688 10.25 4.85156 9.9375C4.16406 9.625 3.55469 9.26172 3.02344 8.84766C2.5 8.42578 2.08594 7.9375 1.78125 7.38281C1.48438 6.82812 1.33594 6.18359 1.33594 5.44922C1.33594 4.73828 1.49219 4.09375 1.80469 3.51562C2.11719 2.92969 2.55469 2.42969 3.11719 2.01562C3.67969 1.59375 4.34375 1.26953 5.10938 1.04297C5.88281 0.816406 6.73047 0.703125 7.65234 0.703125C8.91016 0.703125 10.0078 0.929687 10.9453 1.38281C11.8828 1.83594 12.6094 2.45703 13.125 3.24609C13.6484 4.03516 13.9102 4.9375 13.9102 5.95312H10.418C10.418 5.45312 10.3125 5.01562 10.1016 4.64062C9.89844 4.25781 9.58594 3.95703 9.16406 3.73828C8.75 3.51953 8.22656 3.41016 7.59375 3.41016C6.98438 3.41016 6.47656 3.50391 6.07031 3.69141C5.66406 3.87109 5.35938 4.11719 5.15625 4.42969C4.95312 4.73438 4.85156 5.07812 4.85156 5.46094C4.85156 5.75 4.92188 6.01172 5.0625 6.24609C5.21094 6.48047 5.42969 6.69922 5.71875 6.90234C6.00781 7.10547 6.36328 7.29688 6.78516 7.47656C7.20703 7.65625 7.69531 7.83203 8.25 8.00391C9.17969 8.28516 9.99609 8.60156 10.6992 8.95312C11.4102 9.30469 12.0039 9.69922 12.4805 10.1367C12.957 10.5742 13.3164 11.0703 13.5586 11.625C13.8008 12.1797 13.9219 12.8086 13.9219 13.5117C13.9219 14.2539 13.7773 14.918 13.4883 15.5039C13.1992 16.0898 12.7812 16.5859 12.2344 16.9922C11.6875 17.3984 11.0352 17.707 10.2773 17.918C9.51953 18.1289 8.67188 18.2344 7.73438 18.2344C6.89062 18.2344 6.05859 18.125 5.23828 17.9062C4.41797 17.6797 3.67188 17.3398 3 16.8867C2.33594 16.4336 1.80469 15.8555 1.40625 15.1523C1.00781 14.4492 0.808594 13.6172 0.808594 12.6562H4.33594C4.33594 13.1875 4.41797 13.6367 4.58203 14.0039C4.74609 14.3711 4.97656 14.668 5.27344 14.8945C5.57812 15.1211 5.9375 15.2852 6.35156 15.3867C6.77344 15.4883 7.23438 15.5391 7.73438 15.5391C8.34375 15.5391 8.84375 15.4531 9.23438 15.2812C9.63281 15.1094 9.92578 14.8711 10.1133 14.5664C10.3086 14.2617 10.4062 13.918 10.4062 13.5352ZM18.6562 0.9375L22.2188 8.71875L25.7812 0.9375H29.6133L24 11.7891V18H20.4375V11.7891L14.8125 0.9375H18.6562ZM45.0586 0.9375V18H41.543L34.6875 6.5625V18H31.1719V0.9375H34.6875L41.5547 12.3867V0.9375H45.0586ZM59.5664 15.2578V18H50.4844V15.2578H59.5664ZM51.6328 0.9375V18H48.1172V0.9375H51.6328ZM58.3828 7.88672V10.5586H50.4844V7.88672H58.3828ZM59.5547 0.9375V3.69141H50.4844V0.9375H59.5547ZM61.6172 0.9375H67.9805C69.2852 0.9375 70.4062 1.13281 71.3438 1.52344C72.2891 1.91406 73.0156 2.49219 73.5234 3.25781C74.0312 4.02344 74.2852 4.96484 74.2852 6.08203C74.2852 6.99609 74.1289 7.78125 73.8164 8.4375C73.5117 9.08594 73.0781 9.62891 72.5156 10.0664C71.9609 10.4961 71.3086 10.8398 70.5586 11.0977L69.4453 11.6836H63.9141L63.8906 8.94141H68.0039C68.6211 8.94141 69.1328 8.83203 69.5391 8.61328C69.9453 8.39453 70.25 8.08984 70.4531 7.69922C70.6641 7.30859 70.7695 6.85547 70.7695 6.33984C70.7695 5.79297 70.668 5.32031 70.4648 4.92188C70.2617 4.52344 69.9531 4.21875 69.5391 4.00781C69.125 3.79688 68.6055 3.69141 67.9805 3.69141H65.1328V18H61.6172V0.9375ZM71.1562 18L67.2656 10.3945L70.9805 10.3711L74.918 17.8359V18H71.1562ZM90.5156 9.08203V15.8438C90.25 16.1641 89.8398 16.5117 89.2852 16.8867C88.7305 17.2539 88.0156 17.5703 87.1406 17.8359C86.2656 18.1016 85.207 18.2344 83.9648 18.2344C82.8633 18.2344 81.8594 18.0547 80.9531 17.6953C80.0469 17.3281 79.2656 16.793 78.6094 16.0898C77.9609 15.3867 77.4609 14.5273 77.1094 13.5117C76.7578 12.4883 76.582 11.3203 76.582 10.0078V8.94141C76.582 7.62891 76.75 6.46094 77.0859 5.4375C77.4297 4.41406 77.918 3.55078 78.5508 2.84766C79.1836 2.14453 79.9375 1.60937 80.8125 1.24219C81.6875 0.875 82.6602 0.691406 83.7305 0.691406C85.2148 0.691406 86.4336 0.933594 87.3867 1.41797C88.3398 1.89453 89.0664 2.55859 89.5664 3.41016C90.0742 4.25391 90.3867 5.22266 90.5039 6.31641H87.0938C87.0078 5.73828 86.8438 5.23438 86.6016 4.80469C86.3594 4.375 86.0117 4.03906 85.5586 3.79688C85.1133 3.55469 84.5352 3.43359 83.8242 3.43359C83.2383 3.43359 82.7148 3.55469 82.2539 3.79688C81.8008 4.03125 81.418 4.37891 81.1055 4.83984C80.793 5.30078 80.5547 5.87109 80.3906 6.55078C80.2266 7.23047 80.1445 8.01953 80.1445 8.91797V10.0078C80.1445 10.8984 80.2305 11.6875 80.4023 12.375C80.5742 13.0547 80.8281 13.6289 81.1641 14.0977C81.5078 14.5586 81.9297 14.9062 82.4297 15.1406C82.9297 15.375 83.5117 15.4922 84.1758 15.4922C84.7305 15.4922 85.1914 15.4453 85.5586 15.3516C85.9336 15.2578 86.2344 15.1445 86.4609 15.0117C86.6953 14.8711 86.875 14.7383 87 14.6133V11.5898H83.7891V9.08203H90.5156ZM95.6953 0.9375L99.2578 8.71875L102.82 0.9375H106.652L101.039 11.7891V18H97.4766V11.7891L91.8516 0.9375H95.6953ZM108.164 16.3711C108.164 15.8711 108.336 15.4531 108.68 15.1172C109.031 14.7812 109.496 14.6133 110.074 14.6133C110.652 14.6133 111.113 14.7812 111.457 15.1172C111.809 15.4531 111.984 15.8711 111.984 16.3711C111.984 16.8711 111.809 17.2891 111.457 17.625C111.113 17.9609 110.652 18.1289 110.074 18.1289C109.496 18.1289 109.031 17.9609 108.68 17.625C108.336 17.2891 108.164 16.8711 108.164 16.3711ZM129.059 0.9375V18H125.543L118.688 6.5625V18H115.172V0.9375H118.688L125.555 12.3867V0.9375H129.059ZM145.641 9.08203V15.8438C145.375 16.1641 144.965 16.5117 144.41 16.8867C143.855 17.2539 143.141 17.5703 142.266 17.8359C141.391 18.1016 140.332 18.2344 139.09 18.2344C137.988 18.2344 136.984 18.0547 136.078 17.6953C135.172 17.3281 134.391 16.793 133.734 16.0898C133.086 15.3867 132.586 14.5273 132.234 13.5117C131.883 12.4883 131.707 11.3203 131.707 10.0078V8.94141C131.707 7.62891 131.875 6.46094 132.211 5.4375C132.555 4.41406 133.043 3.55078 133.676 2.84766C134.309 2.14453 135.062 1.60937 135.938 1.24219C136.812 0.875 137.785 0.691406 138.855 0.691406C140.34 0.691406 141.559 0.933594 142.512 1.41797C143.465 1.89453 144.191 2.55859 144.691 3.41016C145.199 4.25391 145.512 5.22266 145.629 6.31641H142.219C142.133 5.73828 141.969 5.23438 141.727 4.80469C141.484 4.375 141.137 4.03906 140.684 3.79688C140.238 3.55469 139.66 3.43359 138.949 3.43359C138.363 3.43359 137.84 3.55469 137.379 3.79688C136.926 4.03125 136.543 4.37891 136.23 4.83984C135.918 5.30078 135.68 5.87109 135.516 6.55078C135.352 7.23047 135.27 8.01953 135.27 8.91797V10.0078C135.27 10.8984 135.355 11.6875 135.527 12.375C135.699 13.0547 135.953 13.6289 136.289 14.0977C136.633 14.5586 137.055 14.9062 137.555 15.1406C138.055 15.375 138.637 15.4922 139.301 15.4922C139.855 15.4922 140.316 15.4453 140.684 15.3516C141.059 15.2578 141.359 15.1445 141.586 15.0117C141.82 14.8711 142 14.7383 142.125 14.6133V11.5898H138.914V9.08203H145.641Z" fill="#ED7832"/>
</svg>
