<svg width="33" height="32" viewBox="0 0 33 32" fill="none" xmlns="http://www.w3.org/2000/svg">
<rect x="0.689453" width="32" height="32" rx="8" fill="#033945"/>
<path fill-rule="evenodd" clip-rule="evenodd" d="M20.0196 7.34365C20.528 7.25656 21.0973 7.22749 21.633 7.31813C22.5899 7.48001 23.4737 7.92474 24.1724 8.5915C24.6291 8.60183 25.0779 8.51186 25.4751 8.38359C25.8112 8.27504 26.0951 8.14397 26.294 8.04033C26.393 7.9888 26.4694 7.94484 26.519 7.91509C26.5439 7.90023 26.5619 7.88898 26.5726 7.88219L26.5821 7.87613C26.8789 7.6784 27.2741 7.71689 27.527 7.96839C27.7799 8.21996 27.8207 8.61488 27.6244 8.91278C27.4167 9.22808 27.1284 9.79015 26.8053 10.4199C26.7545 10.5189 26.7029 10.6196 26.6505 10.7213C26.4652 11.0812 26.2752 11.4451 26.0982 11.7572C25.987 11.9532 25.868 12.1522 25.7481 12.3241V12.5979C25.7557 13.6035 25.6404 14.6039 25.4063 15.5771C25.259 16.1895 25.0648 16.791 24.8245 17.3764C24.2021 18.8931 23.2837 20.2705 22.123 21.4283C20.9622 22.586 19.5825 23.5009 18.0642 24.1194C16.5473 24.7374 14.9225 25.0472 13.2847 25.0308C10.9104 25.0328 8.58602 24.3488 6.5913 23.0608C6.2975 22.8712 6.1738 22.5036 6.29314 22.1748C6.41247 21.8461 6.74317 21.6435 7.09024 21.6865C7.3906 21.7236 7.69301 21.7418 7.99566 21.7408C9.08311 21.7377 10.1499 21.4975 11.1237 21.0448C10.8142 20.9039 10.5186 20.7301 10.2425 20.5254C9.43076 19.9235 8.82685 19.0835 8.51478 18.1224C8.43369 17.8726 8.48913 17.5986 8.66094 17.4001C8.66402 17.3965 8.66713 17.393 8.67026 17.3895C8.48673 17.2258 8.315 17.0477 8.15691 16.856C7.44559 15.9938 7.05391 14.9124 7.04813 13.7946L7.04811 13.7908L7.04812 13.7408C7.04812 13.4749 7.18887 13.2289 7.41808 13.0942C7.47618 13.06 7.53776 13.0343 7.60111 13.0171C7.26278 12.342 7.08684 11.5966 7.08812 10.8403C7.08772 9.98354 7.31152 9.14157 7.73728 8.39807C7.86019 8.18343 8.08102 8.0432 8.32755 8.02322C8.57408 8.00324 8.8146 8.1061 8.97047 8.29814C9.93302 9.48416 11.1343 10.4544 12.4963 11.1459C13.1964 11.5013 13.931 11.779 14.6868 11.9755C15.1105 12.0856 15.5409 12.1702 15.9757 12.2286C15.9565 11.5054 16.0994 10.7825 16.3991 10.1146C16.8388 9.13473 17.5912 8.32855 18.5385 7.82246C18.9396 7.60813 19.4721 7.43742 20.0196 7.34365ZM8.7414 14.8911C8.87104 15.256 9.06391 15.5984 9.31397 15.9014C9.80529 16.497 10.4872 16.9045 11.2445 17.0552C11.5817 17.1223 11.8302 17.4102 11.8472 17.7536C11.8642 18.0971 11.6455 18.4082 11.3165 18.5083C11.044 18.5912 10.7648 18.649 10.4825 18.6811C10.669 18.9216 10.8885 19.137 11.1359 19.3205C11.6971 19.7366 12.3741 19.9675 13.0726 19.9809C13.3895 19.987 13.6683 20.1917 13.7692 20.4922C13.87 20.7927 13.771 21.1242 13.5219 21.3202C12.4727 22.1457 11.2595 22.7214 9.97398 23.0153C11.0395 23.3565 12.1569 23.5322 13.2872 23.5308L13.2959 23.5308C14.736 23.5457 16.1646 23.2736 17.4983 22.7303C18.832 22.1869 20.044 21.3833 21.0637 20.3663C22.0833 19.3492 22.8901 18.1392 23.4368 16.8069C23.6479 16.2927 23.8185 15.7642 23.9479 15.2263C24.1537 14.3706 24.2551 13.4909 24.2481 12.6066L24.2481 12.6008V12.0708C24.2481 11.8889 24.3142 11.7133 24.434 11.5765C24.5033 11.4974 24.6245 11.3149 24.7935 11.017C24.9541 10.7339 25.1319 10.394 25.3168 10.0348C25.328 10.013 25.3392 9.99121 25.3505 9.96928C24.8709 10.0734 24.3274 10.128 23.7575 10.0664C23.5771 10.0469 23.4098 9.96264 23.2868 9.8292C22.7839 9.28386 22.1142 8.92085 21.3828 8.79711C21.0583 8.74221 20.6659 8.75478 20.2728 8.82211C19.8457 8.89527 19.474 9.02329 19.2453 9.14546C18.5911 9.49503 18.0713 10.0519 17.7676 10.7287C17.4639 11.4054 17.3934 12.1639 17.5672 12.8851C17.6227 13.115 17.5664 13.3575 17.4154 13.5396C17.2644 13.7216 17.0364 13.8218 16.8002 13.8098C15.9568 13.7672 15.1223 13.6385 14.3095 13.4272C13.4496 13.2037 12.6138 12.8878 11.8173 12.4834C10.6445 11.888 9.57642 11.1109 8.65159 10.1832C8.6094 10.3988 8.58798 10.6188 8.58812 10.8403L8.58812 10.8422C8.58708 11.3929 8.72222 11.9353 8.98153 12.4212C9.24084 12.907 9.61627 13.3212 10.0744 13.6269C10.3524 13.8124 10.4741 14.1595 10.3729 14.478C10.2716 14.7965 9.97182 15.0096 9.63772 15.0005C9.33513 14.9923 9.03507 14.9555 8.7414 14.8911Z" fill="#C5CED0"/>
</svg>
