<svg width="74" height="74" viewBox="0 0 74 74" fill="none" xmlns="http://www.w3.org/2000/svg">
<g clip-path="url(#clip0_2936_64028)">
<path d="M66.5165 41.9034C64.0448 35.3424 57.4689 31.7999 50.7658 33.418C45.5567 34.674 41.4349 39.3138 40.746 44.6929C40.6739 45.2564 41.0129 45.752 41.5329 45.8415C42.0777 45.9359 42.5378 45.623 42.6667 45.0583C42.7521 44.6843 42.8102 44.3035 42.8968 43.9295C44.4332 37.2488 51.4323 33.3724 57.7824 35.6836C63.3668 37.7159 66.4717 43.6419 65.0261 49.508C63.3771 56.1999 56.309 59.9997 49.9958 57.5311C46.3031 56.0869 43.9664 53.3418 42.9168 49.4568C42.7255 48.7674 42.2593 48.4366 41.6758 48.5903C41.1043 48.7415 40.8343 49.2636 40.9905 49.9147C42.4434 55.969 47.831 60.2669 53.9693 60.2688C55.4371 60.2675 56.8951 60.0252 58.2873 59.551C65.3542 57.1583 69.177 48.9668 66.5165 41.9034Z" fill="#3DD368"/>
<path d="M66.5165 41.9034C64.0448 35.3424 57.4689 31.7999 50.7658 33.418C45.5567 34.674 41.4349 39.3138 40.746 44.6929C40.6739 45.2564 41.0129 45.752 41.5329 45.8415C42.0777 45.9359 42.5378 45.623 42.6667 45.0583C42.7521 44.6843 42.8102 44.3035 42.8968 43.9295C44.4332 37.2488 51.4323 33.3724 57.7824 35.6836C63.3668 37.7159 66.4717 43.6419 65.0261 49.508C63.3771 56.1999 56.309 59.9997 49.9958 57.5311C46.3031 56.0869 43.9664 53.3418 42.9168 49.4568C42.7255 48.7674 42.2593 48.4366 41.6758 48.5903C41.1043 48.7415 40.8343 49.2636 40.9905 49.9147C42.4434 55.969 47.831 60.2669 53.9693 60.2688C55.4371 60.2675 56.8951 60.0252 58.2873 59.551C65.3542 57.1583 69.177 48.9668 66.5165 41.9034Z" fill="#3DD368"/>
<path d="M66.5165 41.9034C64.0448 35.3424 57.4689 31.7999 50.7658 33.418C45.5567 34.674 41.4349 39.3138 40.746 44.6929C40.6739 45.2564 41.0129 45.752 41.5329 45.8415C42.0777 45.9359 42.5378 45.623 42.6667 45.0583C42.7521 44.6843 42.8102 44.3035 42.8968 43.9295C44.4332 37.2488 51.4323 33.3724 57.7824 35.6836C63.3668 37.7159 66.4717 43.6419 65.0261 49.508C63.3771 56.1999 56.309 59.9997 49.9958 57.5311C46.3031 56.0869 43.9664 53.3418 42.9168 49.4568C42.7255 48.7674 42.2593 48.4366 41.6758 48.5903C41.1043 48.7415 40.8343 49.2636 40.9905 49.9147C42.4434 55.969 47.831 60.2669 53.9693 60.2688C55.4371 60.2675 56.8951 60.0252 58.2873 59.551C65.3542 57.1583 69.177 48.9668 66.5165 41.9034Z" fill="#3DD368"/>
<path d="M66.5165 41.9034C64.0448 35.3424 57.4689 31.7999 50.7658 33.418C45.5567 34.674 41.4349 39.3138 40.746 44.6929C40.6739 45.2564 41.0129 45.752 41.5329 45.8415C42.0777 45.9359 42.5378 45.623 42.6667 45.0583C42.7521 44.6843 42.8102 44.3035 42.8968 43.9295C44.4332 37.2488 51.4323 33.3724 57.7824 35.6836C63.3668 37.7159 66.4717 43.6419 65.0261 49.508C63.3771 56.1999 56.309 59.9997 49.9958 57.5311C46.3031 56.0869 43.9664 53.3418 42.9168 49.4568C42.7255 48.7674 42.2593 48.4366 41.6758 48.5903C41.1043 48.7415 40.8343 49.2636 40.9905 49.9147C42.4434 55.969 47.831 60.2669 53.9693 60.2688C55.4371 60.2675 56.8951 60.0252 58.2873 59.551C65.3542 57.1583 69.177 48.9668 66.5165 41.9034Z" fill="#3DD368"/>
<path d="M66.5165 41.9034C64.0448 35.3424 57.4689 31.7999 50.7658 33.418C45.5567 34.674 41.4349 39.3138 40.746 44.6929C40.6739 45.2564 41.0129 45.752 41.5329 45.8415C42.0777 45.9359 42.5378 45.623 42.6667 45.0583C42.7521 44.6843 42.8102 44.3035 42.8968 43.9295C44.4332 37.2488 51.4323 33.3724 57.7824 35.6836C63.3668 37.7159 66.4717 43.6419 65.0261 49.508C63.3771 56.1999 56.309 59.9997 49.9958 57.5311C46.3031 56.0869 43.9664 53.3418 42.9168 49.4568C42.7255 48.7674 42.2593 48.4366 41.6758 48.5903C41.1043 48.7415 40.8343 49.2636 40.9905 49.9147C42.4434 55.969 47.831 60.2669 53.9693 60.2688C55.4371 60.2675 56.8951 60.0252 58.2873 59.551C65.3542 57.1583 69.177 48.9668 66.5165 41.9034Z" fill="#3DD368"/>
<path d="M66.5165 41.9034C64.0448 35.3424 57.4689 31.7999 50.7658 33.418C45.5567 34.674 41.4349 39.3138 40.746 44.6929C40.6739 45.2564 41.0129 45.752 41.5329 45.8415C42.0777 45.9359 42.5378 45.623 42.6667 45.0583C42.7521 44.6843 42.8102 44.3035 42.8968 43.9295C44.4332 37.2488 51.4323 33.3724 57.7824 35.6836C63.3668 37.7159 66.4717 43.6419 65.0261 49.508C63.3771 56.1999 56.309 59.9997 49.9958 57.5311C46.3031 56.0869 43.9664 53.3418 42.9168 49.4568C42.7255 48.7674 42.2593 48.4366 41.6758 48.5903C41.1043 48.7415 40.8343 49.2636 40.9905 49.9147C42.4434 55.969 47.831 60.2669 53.9693 60.2688C55.4371 60.2675 56.8951 60.0252 58.2873 59.551C65.3542 57.1583 69.177 48.9668 66.5165 41.9034Z" fill="#3DD368"/>
<path d="M66.5165 41.9034C64.0448 35.3424 57.4689 31.7999 50.7658 33.418C45.5567 34.674 41.4349 39.3138 40.746 44.6929C40.6739 45.2564 41.0129 45.752 41.5329 45.8415C42.0777 45.9359 42.5378 45.623 42.6667 45.0583C42.7521 44.6843 42.8102 44.3035 42.8968 43.9295C44.4332 37.2488 51.4323 33.3724 57.7824 35.6836C63.3668 37.7159 66.4717 43.6419 65.0261 49.508C63.3771 56.1999 56.309 59.9997 49.9958 57.5311C46.3031 56.0869 43.9664 53.3418 42.9168 49.4568C42.7255 48.7674 42.2593 48.4366 41.6758 48.5903C41.1043 48.7415 40.8343 49.2636 40.9905 49.9147C42.4434 55.969 47.831 60.2669 53.9693 60.2688C55.4371 60.2675 56.8951 60.0252 58.2873 59.551C65.3542 57.1583 69.177 48.9668 66.5165 41.9034Z" fill="#3DD368"/>
<path d="M66.5165 41.9034C64.0448 35.3424 57.4689 31.7999 50.7658 33.418C45.5567 34.674 41.4349 39.3138 40.746 44.6929C40.6739 45.2564 41.0129 45.752 41.5329 45.8415C42.0777 45.9359 42.5378 45.623 42.6667 45.0583C42.7521 44.6843 42.8102 44.3035 42.8968 43.9295C44.4332 37.2488 51.4323 33.3724 57.7824 35.6836C63.3668 37.7159 66.4717 43.6419 65.0261 49.508C63.3771 56.1999 56.309 59.9997 49.9958 57.5311C46.3031 56.0869 43.9664 53.3418 42.9168 49.4568C42.7255 48.7674 42.2593 48.4366 41.6758 48.5903C41.1043 48.7415 40.8343 49.2636 40.9905 49.9147C42.4434 55.969 47.831 60.2669 53.9693 60.2688C55.4371 60.2675 56.8951 60.0252 58.2873 59.551C65.3542 57.1583 69.177 48.9668 66.5165 41.9034Z" fill="#3DD368"/>
<path d="M66.5165 41.9034C64.0448 35.3424 57.4689 31.7999 50.7658 33.418C45.5567 34.674 41.4349 39.3138 40.746 44.6929C40.6739 45.2564 41.0129 45.752 41.5329 45.8415C42.0777 45.9359 42.5378 45.623 42.6667 45.0583C42.7521 44.6843 42.8102 44.3035 42.8968 43.9295C44.4332 37.2488 51.4323 33.3724 57.7824 35.6836C63.3668 37.7159 66.4717 43.6419 65.0261 49.508C63.3771 56.1999 56.309 59.9997 49.9958 57.5311C46.3031 56.0869 43.9664 53.3418 42.9168 49.4568C42.7255 48.7674 42.2593 48.4366 41.6758 48.5903C41.1043 48.7415 40.8343 49.2636 40.9905 49.9147C42.4434 55.969 47.831 60.2669 53.9693 60.2688C55.4371 60.2675 56.8951 60.0252 58.2873 59.551C65.3542 57.1583 69.177 48.9668 66.5165 41.9034Z" fill="#3DD368"/>
<path d="M66.5165 41.9034C64.0448 35.3424 57.4689 31.7999 50.7658 33.418C45.5567 34.674 41.4349 39.3138 40.746 44.6929C40.6739 45.2564 41.0129 45.752 41.5329 45.8415C42.0777 45.9359 42.5378 45.623 42.6667 45.0583C42.7521 44.6843 42.8102 44.3035 42.8968 43.9295C44.4332 37.2488 51.4323 33.3724 57.7824 35.6836C63.3668 37.7159 66.4717 43.6419 65.0261 49.508C63.3771 56.1999 56.309 59.9997 49.9958 57.5311C46.3031 56.0869 43.9664 53.3418 42.9168 49.4568C42.7255 48.7674 42.2593 48.4366 41.6758 48.5903C41.1043 48.7415 40.8343 49.2636 40.9905 49.9147C42.4434 55.969 47.831 60.2669 53.9693 60.2688C55.4371 60.2675 56.8951 60.0252 58.2873 59.551C65.3542 57.1583 69.177 48.9668 66.5165 41.9034Z" fill="#3DD368"/>
<path d="M66.5165 41.9034C64.0448 35.3424 57.4689 31.7999 50.7658 33.418C45.5567 34.674 41.4349 39.3138 40.746 44.6929C40.6739 45.2564 41.0129 45.752 41.5329 45.8415C42.0777 45.9359 42.5378 45.623 42.6667 45.0583C42.7521 44.6843 42.8102 44.3035 42.8968 43.9295C44.4332 37.2488 51.4323 33.3724 57.7824 35.6836C63.3668 37.7159 66.4717 43.6419 65.0261 49.508C63.3771 56.1999 56.309 59.9997 49.9958 57.5311C46.3031 56.0869 43.9664 53.3418 42.9168 49.4568C42.7255 48.7674 42.2593 48.4366 41.6758 48.5903C41.1043 48.7415 40.8343 49.2636 40.9905 49.9147C42.4434 55.969 47.831 60.2669 53.9693 60.2688C55.4371 60.2675 56.8951 60.0252 58.2873 59.551C65.3542 57.1583 69.177 48.9668 66.5165 41.9034Z" fill="#3DD368"/>
<path d="M66.5165 41.9034C64.0448 35.3424 57.4689 31.7999 50.7658 33.418C45.5567 34.674 41.4349 39.3138 40.746 44.6929C40.6739 45.2564 41.0129 45.752 41.5329 45.8415C42.0777 45.9359 42.5378 45.623 42.6667 45.0583C42.7521 44.6843 42.8102 44.3035 42.8968 43.9295C44.4332 37.2488 51.4323 33.3724 57.7824 35.6836C63.3668 37.7159 66.4717 43.6419 65.0261 49.508C63.3771 56.1999 56.309 59.9997 49.9958 57.5311C46.3031 56.0869 43.9664 53.3418 42.9168 49.4568C42.7255 48.7674 42.2593 48.4366 41.6758 48.5903C41.1043 48.7415 40.8343 49.2636 40.9905 49.9147C42.4434 55.969 47.831 60.2669 53.9693 60.2688C55.4371 60.2675 56.8951 60.0252 58.2873 59.551C65.3542 57.1583 69.177 48.9668 66.5165 41.9034Z" fill="#3DD368"/>
<path d="M66.5165 41.9034C64.0448 35.3424 57.4689 31.7999 50.7658 33.418C45.5567 34.674 41.4349 39.3138 40.746 44.6929C40.6739 45.2564 41.0129 45.752 41.5329 45.8415C42.0777 45.9359 42.5378 45.623 42.6667 45.0583C42.7521 44.6843 42.8102 44.3035 42.8968 43.9295C44.4332 37.2488 51.4323 33.3724 57.7824 35.6836C63.3668 37.7159 66.4717 43.6419 65.0261 49.508C63.3771 56.1999 56.309 59.9997 49.9958 57.5311C46.3031 56.0869 43.9664 53.3418 42.9168 49.4568C42.7255 48.7674 42.2593 48.4366 41.6758 48.5903C41.1043 48.7415 40.8343 49.2636 40.9905 49.9147C42.4434 55.969 47.831 60.2669 53.9693 60.2688C55.4371 60.2675 56.8951 60.0252 58.2873 59.551C65.3542 57.1583 69.177 48.9668 66.5165 41.9034Z" fill="#3DD368"/>
<path d="M66.5165 41.9034C64.0448 35.3424 57.4689 31.7999 50.7658 33.418C45.5567 34.674 41.4349 39.3138 40.746 44.6929C40.6739 45.2564 41.0129 45.752 41.5329 45.8415C42.0777 45.9359 42.5378 45.623 42.6667 45.0583C42.7521 44.6843 42.8102 44.3035 42.8968 43.9295C44.4332 37.2488 51.4323 33.3724 57.7824 35.6836C63.3668 37.7159 66.4717 43.6419 65.0261 49.508C63.3771 56.1999 56.309 59.9997 49.9958 57.5311C46.3031 56.0869 43.9664 53.3418 42.9168 49.4568C42.7255 48.7674 42.2593 48.4366 41.6758 48.5903C41.1043 48.7415 40.8343 49.2636 40.9905 49.9147C42.4434 55.969 47.831 60.2669 53.9693 60.2688C55.4371 60.2675 56.8951 60.0252 58.2873 59.551C65.3542 57.1583 69.177 48.9668 66.5165 41.9034Z" fill="#3DD368"/>
<path d="M66.5165 41.9034C64.0448 35.3424 57.4689 31.7999 50.7658 33.418C45.5567 34.674 41.4349 39.3138 40.746 44.6929C40.6739 45.2564 41.0129 45.752 41.5329 45.8415C42.0777 45.9359 42.5378 45.623 42.6667 45.0583C42.7521 44.6843 42.8102 44.3035 42.8968 43.9295C44.4332 37.2488 51.4323 33.3724 57.7824 35.6836C63.3668 37.7159 66.4717 43.6419 65.0261 49.508C63.3771 56.1999 56.309 59.9997 49.9958 57.5311C46.3031 56.0869 43.9664 53.3418 42.9168 49.4568C42.7255 48.7674 42.2593 48.4366 41.6758 48.5903C41.1043 48.7415 40.8343 49.2636 40.9905 49.9147C42.4434 55.969 47.831 60.2669 53.9693 60.2688C55.4371 60.2675 56.8951 60.0252 58.2873 59.551C65.3542 57.1583 69.177 48.9668 66.5165 41.9034Z" fill="#3DD368"/>
<path d="M66.5165 41.9034C64.0448 35.3424 57.4689 31.7999 50.7658 33.418C45.5567 34.674 41.4349 39.3138 40.746 44.6929C40.6739 45.2564 41.0129 45.752 41.5329 45.8415C42.0777 45.9359 42.5378 45.623 42.6667 45.0583C42.7521 44.6843 42.8102 44.3035 42.8968 43.9295C44.4332 37.2488 51.4323 33.3724 57.7824 35.6836C63.3668 37.7159 66.4717 43.6419 65.0261 49.508C63.3771 56.1999 56.309 59.9997 49.9958 57.5311C46.3031 56.0869 43.9664 53.3418 42.9168 49.4568C42.7255 48.7674 42.2593 48.4366 41.6758 48.5903C41.1043 48.7415 40.8343 49.2636 40.9905 49.9147C42.4434 55.969 47.831 60.2669 53.9693 60.2688C55.4371 60.2675 56.8951 60.0252 58.2873 59.551C65.3542 57.1583 69.177 48.9668 66.5165 41.9034Z" fill="#3DD368"/>
<path d="M66.5165 41.9034C64.0448 35.3424 57.4689 31.7999 50.7658 33.418C45.5567 34.674 41.4349 39.3138 40.746 44.6929C40.6739 45.2564 41.0129 45.752 41.5329 45.8415C42.0777 45.9359 42.5378 45.623 42.6667 45.0583C42.7521 44.6843 42.8102 44.3035 42.8968 43.9295C44.4332 37.2488 51.4323 33.3724 57.7824 35.6836C63.3668 37.7159 66.4717 43.6419 65.0261 49.508C63.3771 56.1999 56.309 59.9997 49.9958 57.5311C46.3031 56.0869 43.9664 53.3418 42.9168 49.4568C42.7255 48.7674 42.2593 48.4366 41.6758 48.5903C41.1043 48.7415 40.8343 49.2636 40.9905 49.9147C42.4434 55.969 47.831 60.2669 53.9693 60.2688C55.4371 60.2675 56.8951 60.0252 58.2873 59.551C65.3542 57.1583 69.177 48.9668 66.5165 41.9034Z" fill="#3DD368"/>
<path d="M66.5165 41.9034C64.0448 35.3424 57.4689 31.7999 50.7658 33.418C45.5567 34.674 41.4349 39.3138 40.746 44.6929C40.6739 45.2564 41.0129 45.752 41.5329 45.8415C42.0777 45.9359 42.5378 45.623 42.6667 45.0583C42.7521 44.6843 42.8102 44.3035 42.8968 43.9295C44.4332 37.2488 51.4323 33.3724 57.7824 35.6836C63.3668 37.7159 66.4717 43.6419 65.0261 49.508C63.3771 56.1999 56.309 59.9997 49.9958 57.5311C46.3031 56.0869 43.9664 53.3418 42.9168 49.4568C42.7255 48.7674 42.2593 48.4366 41.6758 48.5903C41.1043 48.7415 40.8343 49.2636 40.9905 49.9147C42.4434 55.969 47.831 60.2669 53.9693 60.2688C55.4371 60.2675 56.8951 60.0252 58.2873 59.551C65.3542 57.1583 69.177 48.9668 66.5165 41.9034Z" fill="#3DD368"/>
<path d="M66.5165 41.9034C64.0448 35.3424 57.4689 31.7999 50.7658 33.418C45.5567 34.674 41.4349 39.3138 40.746 44.6929C40.6739 45.2564 41.0129 45.752 41.5329 45.8415C42.0777 45.9359 42.5378 45.623 42.6667 45.0583C42.7521 44.6843 42.8102 44.3035 42.8968 43.9295C44.4332 37.2488 51.4323 33.3724 57.7824 35.6836C63.3668 37.7159 66.4717 43.6419 65.0261 49.508C63.3771 56.1999 56.309 59.9997 49.9958 57.5311C46.3031 56.0869 43.9664 53.3418 42.9168 49.4568C42.7255 48.7674 42.2593 48.4366 41.6758 48.5903C41.1043 48.7415 40.8343 49.2636 40.9905 49.9147C42.4434 55.969 47.831 60.2669 53.9693 60.2688C55.4371 60.2675 56.8951 60.0252 58.2873 59.551C65.3542 57.1583 69.177 48.9668 66.5165 41.9034Z" fill="#3DD368"/>
<path d="M66.5165 41.9034C64.0448 35.3424 57.4689 31.7999 50.7658 33.418C45.5567 34.674 41.4349 39.3138 40.746 44.6929C40.6739 45.2564 41.0129 45.752 41.5329 45.8415C42.0777 45.9359 42.5378 45.623 42.6667 45.0583C42.7521 44.6843 42.8102 44.3035 42.8968 43.9295C44.4332 37.2488 51.4323 33.3724 57.7824 35.6836C63.3668 37.7159 66.4717 43.6419 65.0261 49.508C63.3771 56.1999 56.309 59.9997 49.9958 57.5311C46.3031 56.0869 43.9664 53.3418 42.9168 49.4568C42.7255 48.7674 42.2593 48.4366 41.6758 48.5903C41.1043 48.7415 40.8343 49.2636 40.9905 49.9147C42.4434 55.969 47.831 60.2669 53.9693 60.2688C55.4371 60.2675 56.8951 60.0252 58.2873 59.551C65.3542 57.1583 69.177 48.9668 66.5165 41.9034Z" fill="#3DD368"/>
<path d="M66.5165 41.9034C64.0448 35.3424 57.4689 31.7999 50.7658 33.418C45.5567 34.674 41.4349 39.3138 40.746 44.6929C40.6739 45.2564 41.0129 45.752 41.5329 45.8415C42.0777 45.9359 42.5378 45.623 42.6667 45.0583C42.7521 44.6843 42.8102 44.3035 42.8968 43.9295C44.4332 37.2488 51.4323 33.3724 57.7824 35.6836C63.3668 37.7159 66.4717 43.6419 65.0261 49.508C63.3771 56.1999 56.309 59.9997 49.9958 57.5311C46.3031 56.0869 43.9664 53.3418 42.9168 49.4568C42.7255 48.7674 42.2593 48.4366 41.6758 48.5903C41.1043 48.7415 40.8343 49.2636 40.9905 49.9147C42.4434 55.969 47.831 60.2669 53.9693 60.2688C55.4371 60.2675 56.8951 60.0252 58.2873 59.551C65.3542 57.1583 69.177 48.9668 66.5165 41.9034Z" fill="#3DD368"/>
<path d="M66.5165 41.9034C64.0448 35.3424 57.4689 31.7999 50.7658 33.418C45.5567 34.674 41.4349 39.3138 40.746 44.6929C40.6739 45.2564 41.0129 45.752 41.5329 45.8415C42.0777 45.9359 42.5378 45.623 42.6667 45.0583C42.7521 44.6843 42.8102 44.3035 42.8968 43.9295C44.4332 37.2488 51.4323 33.3724 57.7824 35.6836C63.3668 37.7159 66.4717 43.6419 65.0261 49.508C63.3771 56.1999 56.309 59.9997 49.9958 57.5311C46.3031 56.0869 43.9664 53.3418 42.9168 49.4568C42.7255 48.7674 42.2593 48.4366 41.6758 48.5903C41.1043 48.7415 40.8343 49.2636 40.9905 49.9147C42.4434 55.969 47.831 60.2669 53.9693 60.2688C55.4371 60.2675 56.8951 60.0252 58.2873 59.551C65.3542 57.1583 69.177 48.9668 66.5165 41.9034Z" fill="#3DD368"/>
<path d="M66.5165 41.9034C64.0448 35.3424 57.4689 31.7999 50.7658 33.418C45.5567 34.674 41.4349 39.3138 40.746 44.6929C40.6739 45.2564 41.0129 45.752 41.5329 45.8415C42.0777 45.9359 42.5378 45.623 42.6667 45.0583C42.7521 44.6843 42.8102 44.3035 42.8968 43.9295C44.4332 37.2488 51.4323 33.3724 57.7824 35.6836C63.3668 37.7159 66.4717 43.6419 65.0261 49.508C63.3771 56.1999 56.309 59.9997 49.9958 57.5311C46.3031 56.0869 43.9664 53.3418 42.9168 49.4568C42.7255 48.7674 42.2593 48.4366 41.6758 48.5903C41.1043 48.7415 40.8343 49.2636 40.9905 49.9147C42.4434 55.969 47.831 60.2669 53.9693 60.2688C55.4371 60.2675 56.8951 60.0252 58.2873 59.551C65.3542 57.1583 69.177 48.9668 66.5165 41.9034Z" fill="#3DD368"/>
<path d="M66.5165 41.9034C64.0448 35.3424 57.4689 31.7999 50.7658 33.418C45.5567 34.674 41.4349 39.3138 40.746 44.6929C40.6739 45.2564 41.0129 45.752 41.5329 45.8415C42.0777 45.9359 42.5378 45.623 42.6667 45.0583C42.7521 44.6843 42.8102 44.3035 42.8968 43.9295C44.4332 37.2488 51.4323 33.3724 57.7824 35.6836C63.3668 37.7159 66.4717 43.6419 65.0261 49.508C63.3771 56.1999 56.309 59.9997 49.9958 57.5311C46.3031 56.0869 43.9664 53.3418 42.9168 49.4568C42.7255 48.7674 42.2593 48.4366 41.6758 48.5903C41.1043 48.7415 40.8343 49.2636 40.9905 49.9147C42.4434 55.969 47.831 60.2669 53.9693 60.2688C55.4371 60.2675 56.8951 60.0252 58.2873 59.551C65.3542 57.1583 69.177 48.9668 66.5165 41.9034Z" fill="#3DD368"/>
<path d="M66.5165 41.9034C64.0448 35.3424 57.4689 31.7999 50.7658 33.418C45.5567 34.674 41.4349 39.3138 40.746 44.6929C40.6739 45.2564 41.0129 45.752 41.5329 45.8415C42.0777 45.9359 42.5378 45.623 42.6667 45.0583C42.7521 44.6843 42.8102 44.3035 42.8968 43.9295C44.4332 37.2488 51.4323 33.3724 57.7824 35.6836C63.3668 37.7159 66.4717 43.6419 65.0261 49.508C63.3771 56.1999 56.309 59.9997 49.9958 57.5311C46.3031 56.0869 43.9664 53.3418 42.9168 49.4568C42.7255 48.7674 42.2593 48.4366 41.6758 48.5903C41.1043 48.7415 40.8343 49.2636 40.9905 49.9147C42.4434 55.969 47.831 60.2669 53.9693 60.2688C55.4371 60.2675 56.8951 60.0252 58.2873 59.551C65.3542 57.1583 69.177 48.9668 66.5165 41.9034Z" fill="#3DD368"/>
<path d="M66.5165 41.9034C64.0448 35.3424 57.4689 31.7999 50.7658 33.418C45.5567 34.674 41.4349 39.3138 40.746 44.6929C40.6739 45.2564 41.0129 45.752 41.5329 45.8415C42.0777 45.9359 42.5378 45.623 42.6667 45.0583C42.7521 44.6843 42.8102 44.3035 42.8968 43.9295C44.4332 37.2488 51.4323 33.3724 57.7824 35.6836C63.3668 37.7159 66.4717 43.6419 65.0261 49.508C63.3771 56.1999 56.309 59.9997 49.9958 57.5311C46.3031 56.0869 43.9664 53.3418 42.9168 49.4568C42.7255 48.7674 42.2593 48.4366 41.6758 48.5903C41.1043 48.7415 40.8343 49.2636 40.9905 49.9147C42.4434 55.969 47.831 60.2669 53.9693 60.2688C55.4371 60.2675 56.8951 60.0252 58.2873 59.551C65.3542 57.1583 69.177 48.9668 66.5165 41.9034Z" fill="#3DD368"/>
<path d="M66.5165 41.9034C64.0448 35.3424 57.4689 31.7999 50.7658 33.418C45.5567 34.674 41.4349 39.3138 40.746 44.6929C40.6739 45.2564 41.0129 45.752 41.5329 45.8415C42.0777 45.9359 42.5378 45.623 42.6667 45.0583C42.7521 44.6843 42.8102 44.3035 42.8968 43.9295C44.4332 37.2488 51.4323 33.3724 57.7824 35.6836C63.3668 37.7159 66.4717 43.6419 65.0261 49.508C63.3771 56.1999 56.309 59.9997 49.9958 57.5311C46.3031 56.0869 43.9664 53.3418 42.9168 49.4568C42.7255 48.7674 42.2593 48.4366 41.6758 48.5903C41.1043 48.7415 40.8343 49.2636 40.9905 49.9147C42.4434 55.969 47.831 60.2669 53.9693 60.2688C55.4371 60.2675 56.8951 60.0252 58.2873 59.551C65.3542 57.1583 69.177 48.9668 66.5165 41.9034Z" fill="#3DD368"/>
<path d="M11.8433 40.3597V39.7993C11.8397 39.9857 11.8378 40.1727 11.8433 40.3597Z" fill="#3DD368"/>
<path d="M11.8441 36.1684V34.1997C11.8417 34.8588 11.8405 35.5124 11.8441 36.1684Z" fill="#3DD368"/>
<path d="M66.5165 41.9034C64.0448 35.3424 57.4689 31.7999 50.7658 33.418C45.5567 34.674 41.4349 39.3138 40.746 44.6929C40.6739 45.2564 41.0129 45.752 41.5329 45.8415C42.0777 45.9359 42.5378 45.623 42.6667 45.0583C42.7521 44.6843 42.8102 44.3035 42.8968 43.9295C44.4332 37.2488 51.4323 33.3724 57.7824 35.6836C63.3668 37.7159 66.4717 43.6419 65.0261 49.508C63.3771 56.1999 56.309 59.9997 49.9958 57.5311C46.3031 56.0869 43.9664 53.3418 42.9168 49.4568C42.7255 48.7674 42.2593 48.4366 41.6758 48.5903C41.1043 48.7415 40.8343 49.2636 40.9905 49.9147C42.4434 55.969 47.831 60.2669 53.9693 60.2688C55.4371 60.2675 56.8951 60.0252 58.2873 59.551C65.3542 57.1583 69.177 48.9668 66.5165 41.9034Z" fill="#3DD368"/>
<path d="M66.5165 41.9034C64.0448 35.3424 57.4689 31.7999 50.7658 33.418C45.5567 34.674 41.4349 39.3138 40.746 44.6929C40.6739 45.2564 41.0129 45.752 41.5329 45.8415C42.0777 45.9359 42.5378 45.623 42.6667 45.0583C42.7521 44.6843 42.8102 44.3035 42.8968 43.9295C44.4332 37.2488 51.4323 33.3724 57.7824 35.6836C63.3668 37.7159 66.4717 43.6419 65.0261 49.508C63.3771 56.1999 56.309 59.9997 49.9958 57.5311C46.3031 56.0869 43.9664 53.3418 42.9168 49.4568C42.7255 48.7674 42.2593 48.4366 41.6758 48.5903C41.1043 48.7415 40.8343 49.2636 40.9905 49.9147C42.4434 55.969 47.831 60.2669 53.9693 60.2688C55.4371 60.2675 56.8951 60.0252 58.2873 59.551C65.3542 57.1583 69.177 48.9668 66.5165 41.9034Z" fill="#3DD368"/>
<path d="M66.5165 41.9034C64.0448 35.3424 57.4689 31.7999 50.7658 33.418C45.5567 34.674 41.4349 39.3138 40.746 44.6929C40.6739 45.2564 41.0129 45.752 41.5329 45.8415C42.0777 45.9359 42.5378 45.623 42.6667 45.0583C42.7521 44.6843 42.8102 44.3035 42.8968 43.9295C44.4332 37.2488 51.4323 33.3724 57.7824 35.6836C63.3668 37.7159 66.4717 43.6419 65.0261 49.508C63.3771 56.1999 56.309 59.9997 49.9958 57.5311C46.3031 56.0869 43.9664 53.3418 42.9168 49.4568C42.7255 48.7674 42.2593 48.4366 41.6758 48.5903C41.1043 48.7415 40.8343 49.2636 40.9905 49.9147C42.4434 55.969 47.831 60.2669 53.9693 60.2688C55.4371 60.2675 56.8951 60.0252 58.2873 59.551C65.3542 57.1583 69.177 48.9668 66.5165 41.9034Z" fill="#3DD368"/>
<path d="M66.5165 41.9034C64.0448 35.3424 57.4689 31.7999 50.7658 33.418C45.5567 34.674 41.4349 39.3138 40.746 44.6929C40.6739 45.2564 41.0129 45.752 41.5329 45.8415C42.0777 45.9359 42.5378 45.623 42.6667 45.0583C42.7521 44.6843 42.8102 44.3035 42.8968 43.9295C44.4332 37.2488 51.4323 33.3724 57.7824 35.6836C63.3668 37.7159 66.4717 43.6419 65.0261 49.508C63.3771 56.1999 56.309 59.9997 49.9958 57.5311C46.3031 56.0869 43.9664 53.3418 42.9168 49.4568C42.7255 48.7674 42.2593 48.4366 41.6758 48.5903C41.1043 48.7415 40.8343 49.2636 40.9905 49.9147C42.4434 55.969 47.831 60.2669 53.9693 60.2688C55.4371 60.2675 56.8951 60.0252 58.2873 59.551C65.3542 57.1583 69.177 48.9668 66.5165 41.9034Z" fill="#3DD368"/>
<path d="M66.5165 41.9034C64.0448 35.3424 57.4689 31.7999 50.7658 33.418C45.5567 34.674 41.4349 39.3138 40.746 44.6929C40.6739 45.2564 41.0129 45.752 41.5329 45.8415C42.0777 45.9359 42.5378 45.623 42.6667 45.0583C42.7521 44.6843 42.8102 44.3035 42.8968 43.9295C44.4332 37.2488 51.4323 33.3724 57.7824 35.6836C63.3668 37.7159 66.4717 43.6419 65.0261 49.508C63.3771 56.1999 56.309 59.9997 49.9958 57.5311C46.3031 56.0869 43.9664 53.3418 42.9168 49.4568C42.7255 48.7674 42.2593 48.4366 41.6758 48.5903C41.1043 48.7415 40.8343 49.2636 40.9905 49.9147C42.4434 55.969 47.831 60.2669 53.9693 60.2688C55.4371 60.2675 56.8951 60.0252 58.2873 59.551C65.3542 57.1583 69.177 48.9668 66.5165 41.9034Z" fill="#3DD368"/>
<path d="M66.5165 41.9034C64.0448 35.3424 57.4689 31.7999 50.7658 33.418C45.5567 34.674 41.4349 39.3138 40.746 44.6929C40.6739 45.2564 41.0129 45.752 41.5329 45.8415C42.0777 45.9359 42.5378 45.623 42.6667 45.0583C42.7521 44.6843 42.8102 44.3035 42.8968 43.9295C44.4332 37.2488 51.4323 33.3724 57.7824 35.6836C63.3668 37.7159 66.4717 43.6419 65.0261 49.508C63.3771 56.1999 56.309 59.9997 49.9958 57.5311C46.3031 56.0869 43.9664 53.3418 42.9168 49.4568C42.7255 48.7674 42.2593 48.4366 41.6758 48.5903C41.1043 48.7415 40.8343 49.2636 40.9905 49.9147C42.4434 55.969 47.831 60.2669 53.9693 60.2688C55.4371 60.2675 56.8951 60.0252 58.2873 59.551C65.3542 57.1583 69.177 48.9668 66.5165 41.9034Z" fill="#3DD368"/>
<path d="M66.5165 41.9034C64.0448 35.3424 57.4689 31.7999 50.7658 33.418C45.5567 34.674 41.4349 39.3138 40.746 44.6929C40.6739 45.2564 41.0129 45.752 41.5329 45.8415C42.0777 45.9359 42.5378 45.623 42.6667 45.0583C42.7521 44.6843 42.8102 44.3035 42.8968 43.9295C44.4332 37.2488 51.4323 33.3724 57.7824 35.6836C63.3668 37.7159 66.4717 43.6419 65.0261 49.508C63.3771 56.1999 56.309 59.9997 49.9958 57.5311C46.3031 56.0869 43.9664 53.3418 42.9168 49.4568C42.7255 48.7674 42.2593 48.4366 41.6758 48.5903C41.1043 48.7415 40.8343 49.2636 40.9905 49.9147C42.4434 55.969 47.831 60.2669 53.9693 60.2688C55.4371 60.2675 56.8951 60.0252 58.2873 59.551C65.3542 57.1583 69.177 48.9668 66.5165 41.9034Z" fill="#3DD368"/>
<path d="M66.5165 41.9034C64.0448 35.3424 57.4689 31.7999 50.7658 33.418C45.5567 34.674 41.4349 39.3138 40.746 44.6929C40.6739 45.2564 41.0129 45.752 41.5329 45.8415C42.0777 45.9359 42.5378 45.623 42.6667 45.0583C42.7521 44.6843 42.8102 44.3035 42.8968 43.9295C44.4332 37.2488 51.4323 33.3724 57.7824 35.6836C63.3668 37.7159 66.4717 43.6419 65.0261 49.508C63.3771 56.1999 56.309 59.9997 49.9958 57.5311C46.3031 56.0869 43.9664 53.3418 42.9168 49.4568C42.7255 48.7674 42.2593 48.4366 41.6758 48.5903C41.1043 48.7415 40.8343 49.2636 40.9905 49.9147C42.4434 55.969 47.831 60.2669 53.9693 60.2688C55.4371 60.2675 56.8951 60.0252 58.2873 59.551C65.3542 57.1583 69.177 48.9668 66.5165 41.9034Z" fill="#3DD368"/>
<path d="M58.2867 59.551C56.8946 60.0252 55.4365 60.2675 53.9687 60.2688C47.828 60.2669 42.4434 55.969 40.9875 49.9178C40.8313 49.2667 41.1013 48.7452 41.6728 48.5934C42.2557 48.4391 42.7225 48.7705 42.9101 49.4611C43.9598 53.3492 46.3001 56.0912 49.9891 57.5354C56.2994 60.004 63.3675 56.2048 65.0195 49.5123C66.4651 43.6444 63.3602 37.7184 57.7758 35.688C51.4275 33.3724 44.429 37.2488 42.8926 43.9314C42.806 44.3054 42.7479 44.6861 42.6625 45.0601C42.5336 45.6248 42.0723 45.9377 41.5287 45.8433C41.0099 45.7538 40.6709 45.2582 40.7418 44.6948C41.4343 39.3138 45.5561 34.674 50.7652 33.418C57.4683 31.7999 64.0443 35.3424 66.5159 41.9034C69.1765 48.9668 65.3536 57.1583 58.2867 59.551Z" fill="#3DD368"/>
<path d="M65.6865 24.3999C65.69 23.4479 65.4792 22.5077 65.0703 21.6517C63.7742 18.9696 61.6591 17.5069 58.7141 17.455L58.1832 17.447C55.085 17.4032 51.9855 17.4334 48.8867 17.447H48.6973L47.1197 17.4359C46.8461 17.4359 46.7825 17.2989 46.7856 17.0193C46.7965 15.6727 46.8037 14.326 46.7856 12.98C46.7619 11.1903 45.7056 9.75413 44.0306 9.25608C43.6108 9.14318 43.1777 9.09042 42.7436 9.09932C39.2174 9.08574 33.1215 9.09624 29.5941 9.10426C27.1951 9.10858 25.5788 10.7663 25.5721 13.2065C25.5673 14.4643 25.5564 15.7227 25.577 16.9798C25.5824 17.3285 25.4759 17.4513 25.1859 17.4513H21.104C21.0689 17.4513 21.0314 17.4513 20.9908 17.4513H20.5671C17.7733 17.4341 14.9784 17.4248 12.1847 17.4513C11.9119 17.4513 11.6389 17.454 11.3657 17.4594C10.5636 17.468 9.73122 17.5612 8.96908 17.8056C5.95744 18.7708 4.05481 21.6369 4.09234 24.7739C4.13108 27.8819 4.10142 30.9912 4.10142 34.0992C4.10142 40.967 4.08992 47.8353 4.11595 54.7025C4.11958 55.5048 4.21523 56.341 4.45919 57.0983C5.4665 60.2155 8.05741 62.0639 11.3396 62.0664C21.081 62.0734 30.8228 62.0734 40.5649 62.0664C40.7101 62.0719 40.8555 62.0653 40.9996 62.0467C41.5141 61.9621 41.8695 61.5326 41.8543 61.0296C41.8386 60.5075 41.4379 60.1038 40.8973 60.073C40.709 60.0625 40.5189 60.0668 40.3307 60.0668C30.6753 60.0668 21.0203 60.0668 11.3657 60.0668C8.25052 60.0668 6.06822 57.8549 6.0658 54.6846C6.06055 49.045 6.06055 43.4056 6.0658 37.7664C6.0658 37.6189 6.08941 37.4714 6.10636 37.2819C8.45574 39.068 8.69969 39.1649 11.5255 39.3802C11.7489 39.3975 11.8336 39.4821 11.8451 39.6648C11.8464 39.689 11.8464 39.7133 11.8451 39.7376C11.8451 39.7579 11.8451 39.7777 11.8451 39.7993V43.4029C11.8451 43.8939 12.0364 44.3649 12.377 44.7121C12.7176 45.0593 13.1795 45.2544 13.6612 45.2544H19.4223C19.904 45.2544 20.3659 45.0593 20.7065 44.7121C21.0471 44.3649 21.2384 43.8939 21.2384 43.4029V40.6787C21.2533 40.4487 21.2563 40.2179 21.2475 39.9875C21.2257 39.3895 21.2475 39.3864 21.8032 39.3864C27.1908 39.3864 33.0628 39.3864 38.4474 39.3864C38.5303 39.3864 38.6133 39.392 38.7101 39.3988C39.0227 38.6944 39.3804 38.0118 39.781 37.3553C39.7427 37.3646 39.7035 37.3696 39.6642 37.3702C33.8425 37.3881 27.5347 37.3831 21.7124 37.3911C21.3722 37.3911 21.2457 37.2813 21.2384 36.9591C21.2384 36.9418 21.2384 36.9233 21.2384 36.9042C21.2384 36.8851 21.2384 36.8733 21.2384 36.8579C21.2553 35.7044 21.2493 34.5504 21.2414 33.3963C21.2317 31.8614 20.2995 30.9066 18.7922 30.8955C17.3115 30.8863 15.8302 30.8912 14.3495 30.8955C12.8107 30.8955 11.8536 31.87 11.8457 33.4426C11.8457 33.6968 11.8447 33.9511 11.8427 34.2054V36.1741C11.8427 36.4325 11.8449 36.6913 11.8494 36.9505C11.8504 36.9971 11.8482 37.0437 11.8427 37.09C11.8155 37.3072 11.7004 37.3887 11.4274 37.3985C8.42002 37.4757 6.09122 35.2181 6.06943 32.1533C6.05187 29.6513 6.044 27.15 6.08033 24.6487C6.08931 24.0137 6.19951 23.3844 6.40661 22.7854C7.13304 20.7099 8.98784 19.4528 11.2724 19.4478C16.2957 19.4363 21.3189 19.4345 26.3421 19.4423C36.9996 19.4423 47.6563 19.4474 58.3121 19.4577C59.0385 19.4577 59.8152 19.541 60.4817 19.8095C62.4685 20.6075 63.6035 22.1442 63.6992 24.3401C63.7748 26.0984 63.7155 27.8622 63.7343 29.6236C63.733 29.9022 63.7897 30.178 63.9007 30.4327C64.0745 30.8091 64.5545 30.9832 64.9468 30.8838C65.4111 30.7647 65.6896 30.3901 65.6914 29.818C65.6966 28.0122 65.695 26.2062 65.6865 24.3999ZM13.801 35.0361C13.827 34.5201 13.8107 34.0011 13.801 33.4833C13.7937 33.084 13.9469 32.8865 14.367 32.8902C15.8174 32.9025 17.2683 32.9025 18.7195 32.8902C19.1366 32.8859 19.2934 33.0581 19.2789 33.4728C19.2595 34.0048 19.2589 34.5386 19.2789 35.07C19.291 35.3959 19.1826 35.5162 18.8551 35.5094C18.5276 35.5026 18.2044 35.4995 17.8793 35.4995C17.4356 35.4995 16.9912 35.5039 16.5475 35.5033C16.1038 35.5026 15.6673 35.4989 15.2278 35.4989C14.913 35.4989 14.5989 35.4989 14.2841 35.5088C13.9463 35.5162 13.781 35.4243 13.801 35.0361ZM13.801 39.4858C13.801 38.9421 13.8131 38.3971 13.8046 37.8534C13.7998 37.5214 13.9953 37.5072 14.2284 37.5078C14.999 37.5078 15.7678 37.5078 16.5372 37.5078C17.2927 37.5078 18.0476 37.522 18.8024 37.5028C19.1342 37.4942 19.2867 37.5757 19.2867 37.9262V42.2414C19.2867 42.5021 19.1851 42.7522 19.0043 42.9366C18.8234 43.1209 18.5782 43.2245 18.3224 43.2245H14.7623C14.5066 43.2245 14.2613 43.1209 14.0804 42.9366C13.8996 42.7522 13.798 42.5021 13.798 42.2414L13.801 39.4858ZM44.3635 17.439C42.634 17.4285 38.3348 17.439 36.6059 17.439H33.1554C31.4362 17.439 29.7176 17.439 27.9984 17.447C27.6406 17.447 27.5232 17.344 27.528 16.9724C27.548 15.7017 27.528 14.4297 27.5395 13.1578C27.551 11.8858 28.2902 11.1106 29.5517 11.1063C33.1076 11.0983 39.2326 11.086 42.7842 11.0983C44.1032 11.1026 44.8236 11.8673 44.826 13.2047C44.826 14.4612 44.8133 15.719 44.8357 16.9749C44.8424 17.3569 44.7146 17.4408 44.3635 17.439Z" fill="#3DD368" stroke="#3DD368" stroke-width="1.22" stroke-miterlimit="10"/>
<path d="M58.2867 59.551C56.8946 60.0252 55.4365 60.2675 53.9687 60.2688C47.828 60.2669 42.4434 55.969 40.9875 49.9178C40.8313 49.2667 41.1013 48.7452 41.6728 48.5934C42.2557 48.4391 42.7225 48.7705 42.9101 49.4611C43.9598 53.3492 46.3001 56.0912 49.9891 57.5354C56.2994 60.004 63.3675 56.2048 65.0195 49.5123C66.4651 43.6444 63.3602 37.7184 57.7758 35.688C51.4275 33.3724 44.429 37.2488 42.8926 43.9314C42.806 44.3054 42.7479 44.6861 42.6625 45.0601C42.5336 45.6248 42.0723 45.9377 41.5287 45.8433C41.0099 45.7538 40.6709 45.2582 40.7418 44.6948C41.4343 39.3138 45.5561 34.674 50.7652 33.418C57.4683 31.7999 64.0443 35.3424 66.5159 41.9034C69.1765 48.9668 65.3536 57.1583 58.2867 59.551Z" fill="#033945"/>
<path d="M58.9948 46.7136C58.8419 46.6983 58.6883 46.6934 58.5347 46.6988C58.4567 46.6988 58.378 46.6988 58.2999 46.6988C58.2563 46.6988 58.2133 46.6964 58.1709 46.6914L57.9566 46.6791V45.3787H58.131H58.3767C58.5584 45.3787 58.7273 45.3787 58.8992 45.3787C59.1613 45.3707 59.3453 45.2627 59.4591 45.0504C59.4682 45.0337 59.4767 45.0158 59.4845 44.9986C59.54 44.8884 59.5612 44.7637 59.5456 44.6409C59.5299 44.5181 59.478 44.4031 59.3968 44.311C59.3413 44.2372 59.2695 44.1777 59.1873 44.1374C59.105 44.0971 59.0146 44.0771 58.9234 44.079H57.9445V43.676C57.9445 43.3785 57.9445 43.0813 57.9445 42.7842C57.9445 42.6435 57.9445 42.5028 57.9445 42.3614C57.9445 41.8159 57.9445 41.2617 57.9397 40.7149C57.9429 40.5992 57.9202 40.4843 57.8732 40.379C57.8263 40.2737 57.7563 40.1807 57.6687 40.1072C57.5811 40.0336 57.4781 39.9815 57.3677 39.9547C57.2573 39.9279 57.1424 39.9272 57.0317 39.9527C56.6733 40.0212 56.4324 40.3476 56.4311 40.7655C56.4311 41.2882 56.4311 41.8146 56.4311 42.3368V43.6945C56.4311 43.7433 56.4311 43.792 56.4251 43.8395L56.4154 44.0339L56.2822 44.0605L56.2562 44.0667C56.2319 44.0735 56.2069 44.077 56.1817 44.0771H55.804C55.2089 44.0771 54.5933 44.0802 53.9879 44.0771C53.9232 44.0713 53.8607 44.0505 53.8052 44.0161C53.7497 43.9818 53.7026 43.9349 53.6677 43.879C53.5145 43.6322 53.365 43.376 53.2209 43.1292L53.0823 42.8922L51.5901 40.3538C51.4085 40.0452 51.1664 39.9138 50.8455 39.9471C50.4272 39.9897 50.1669 40.3051 50.1651 40.7704C50.1651 41.3921 50.1651 42.0138 50.1651 42.6355V43.6976C50.1651 43.7482 50.1615 43.797 50.1572 43.8476C50.1572 43.871 50.1536 43.8938 50.1518 43.9198L50.1409 44.0858H49.9775C49.8957 44.0858 49.8158 44.0858 49.7353 44.0858C49.5628 44.0858 49.4006 44.0821 49.2383 44.0895C49.1243 44.0905 49.0132 44.1255 48.9185 44.1902C48.8238 44.255 48.7498 44.3465 48.7056 44.4536C48.6582 44.5482 48.6353 44.6536 48.6391 44.7598C48.6429 44.866 48.6733 44.9695 48.7274 45.0603C48.7867 45.1576 48.8689 45.2383 48.9666 45.2949C49.0643 45.3515 49.1744 45.3822 49.2867 45.3843C49.4411 45.3886 49.5943 45.388 49.7565 45.3843H49.9805H50.1542V46.705H49.765C49.6064 46.705 49.4556 46.705 49.3031 46.705C48.9229 46.7118 48.6481 46.987 48.6487 47.3592C48.6475 47.472 48.6761 47.5831 48.7316 47.6807C48.7893 47.7801 48.8716 47.8624 48.9701 47.9193C49.0687 47.9763 49.1801 48.006 49.2934 48.0054C49.4641 48.0103 49.6403 48.0159 49.8092 48.0054C49.8571 47.9988 49.9058 48.0026 49.9522 48.0164C49.9986 48.0302 50.0416 48.0538 50.0786 48.0856C50.1121 48.1228 50.1376 48.1667 50.1537 48.2145C50.1697 48.2623 50.1759 48.313 50.1718 48.3633C50.1718 48.559 50.1718 48.7558 50.1718 48.9533C50.1718 49.3421 50.1718 49.7322 50.1718 50.1173C50.1718 50.3074 50.1718 50.4968 50.1718 50.6844V51.2226C50.1709 51.3015 50.1739 51.3804 50.1809 51.459C50.1918 51.5708 50.2268 51.6789 50.2835 51.7753C50.3401 51.8717 50.417 51.9542 50.5085 52.0168C50.6001 52.0795 50.7041 52.1207 50.8131 52.1376C50.9221 52.1544 51.0335 52.1465 51.1391 52.1144C51.4884 52.0083 51.6809 51.7225 51.684 51.3084C51.684 50.9646 51.684 50.64 51.684 50.329C51.684 49.8352 51.684 49.381 51.684 48.9478C51.684 48.7497 51.684 48.5559 51.684 48.3652C51.6794 48.3162 51.6849 48.2668 51.7 48.22C51.7151 48.1733 51.7395 48.1303 51.7717 48.0936C51.8448 48.0297 51.9397 47.998 52.0357 48.0054C52.7264 48.0128 53.4122 48.0128 54.0733 48.0054H54.0812C54.1643 48.002 54.2466 48.0231 54.3183 48.0661C54.3899 48.1091 54.448 48.1722 54.4855 48.2479C55.198 49.4686 55.8439 50.5721 56.5165 51.6954C56.596 51.8354 56.7068 51.9545 56.8398 52.0428C56.9489 52.1103 57.0737 52.147 57.2014 52.1491C57.3291 52.1511 57.455 52.1185 57.5662 52.0545C57.6828 51.9874 57.7797 51.8898 57.8471 51.7718C57.9144 51.6538 57.9497 51.5196 57.9494 51.3831C57.953 51.0622 57.9536 50.7388 57.9548 50.4172C57.9548 50.0426 57.9548 49.6686 57.9548 49.3008C57.9548 49.086 57.9548 48.8712 57.9548 48.6565V48.001H58.3919C58.5795 48.001 58.7551 48.001 58.9337 48.001C59.0433 48.0005 59.1508 47.9704 59.2454 47.914C59.34 47.8575 59.4183 47.7766 59.4724 47.6795C59.5207 47.5901 59.5482 47.4907 59.553 47.3888C59.5649 47.2242 59.5132 47.0614 59.4089 46.9352C59.3046 46.809 59.1559 46.7295 58.9948 46.7136ZM51.69 46.6883V45.3818H52.0332C52.2372 45.3818 52.4431 45.3818 52.6483 45.3818C52.6937 45.385 52.7376 45.3991 52.7766 45.423C52.8155 45.447 52.8483 45.48 52.8723 45.5194L52.9534 45.6552L53.2827 46.2181L53.5043 46.5958L53.5569 46.6865L51.69 46.6883ZM56.4196 46.6976H55.896C55.758 46.6976 55.62 46.6976 55.4813 46.6976C55.4359 46.6963 55.3915 46.684 55.3517 46.6617C55.3119 46.6394 55.2779 46.6077 55.2525 46.5692C55.1799 46.4507 55.1097 46.3304 55.037 46.2088L54.8239 45.8447L54.5818 45.43L54.5576 45.388H56.4215L56.4196 46.6976Z" fill="#3DD368"/>
<path d="M53.9818 29.2974C44.5825 29.2974 36.9629 37.0662 36.9629 46.6469C36.9629 56.2277 44.5825 64.0002 53.9818 64.0002C63.3812 64.0002 71.0014 56.2314 71.0014 46.6469C71.0014 37.0625 63.3818 29.2974 53.9818 29.2974ZM53.9818 62.0006C45.6661 62.0006 38.9242 55.1273 38.9242 46.6469C38.9242 38.1666 45.6661 31.2976 53.9818 31.2976C62.2976 31.2976 69.04 38.1703 69.04 46.6469C69.04 55.1236 62.297 62.0006 53.9818 62.0006Z" fill="#3DD368"/>
</g>
<defs>
<clipPath id="clip0_2936_64028">
<rect width="67" height="55" fill="white" transform="translate(4 9)"/>
</clipPath>
</defs>
</svg>
