<svg width="24" height="18" viewBox="0 0 24 18" fill="none" xmlns="http://www.w3.org/2000/svg">
<path d="M2.3853 17.8898H0C2.82804e-08 15.9919 0.753924 14.1718 2.09592 12.8298C3.43791 11.4878 5.25804 10.7339 7.15591 10.7339C9.05377 10.7339 10.8739 11.4878 12.2159 12.8298C13.5579 14.1718 14.3118 15.9919 14.3118 17.8898H11.9265C11.9265 16.6245 11.4239 15.4111 10.5292 14.5164C9.63457 13.6218 8.42115 13.1192 7.15591 13.1192C5.89066 13.1192 4.67724 13.6218 3.78258 14.5164C2.88792 15.4111 2.3853 16.6245 2.3853 17.8898ZM16.69 13.6082L13.4626 10.388L15.1467 8.69681L16.6876 10.2377L21.816 5.11886L23.5 6.80765L16.6876 13.6058L16.69 13.6082ZM7.15591 9.54121C5.89066 9.54121 4.67724 9.03859 3.78258 8.14393C2.88792 7.24927 2.3853 6.03585 2.3853 4.77061C2.3853 3.50536 2.88792 2.29194 3.78258 1.39728C4.67724 0.502616 5.89066 0 7.15591 0C8.42115 0 9.63457 0.502616 10.5292 1.39728C11.4239 2.29194 11.9265 3.50536 11.9265 4.77061C11.9265 6.03585 11.4239 7.24927 10.5292 8.14393C9.63457 9.03859 8.42115 9.54121 7.15591 9.54121ZM7.15591 2.3853C6.68881 2.38578 6.23214 2.52338 5.84254 2.78104C5.45294 3.0387 5.14756 3.40507 4.96429 3.83471C4.78102 4.26435 4.72793 4.73834 4.8116 5.19788C4.89527 5.65742 5.11202 6.08228 5.43496 6.41975C5.7579 6.75723 6.17282 6.99246 6.62823 7.09626C7.08364 7.20006 7.55951 7.16787 7.9968 7.00368C8.43408 6.83949 8.81354 6.55052 9.08808 6.17263C9.36263 5.79475 9.52019 5.34456 9.54121 4.87794V5.355V4.77061C9.54121 4.13798 9.2899 3.53127 8.84257 3.08394C8.39524 2.63661 7.78853 2.3853 7.15591 2.3853Z" fill="#33CA5F"/>
</svg>
