<svg width="20" height="24" viewBox="0 0 20 24" fill="none" xmlns="http://www.w3.org/2000/svg">
<path fill-rule="evenodd" clip-rule="evenodd" d="M9.65517 23.1602C10.0209 23.1602 10.3717 23.0077 10.6303 22.7363C10.8889 22.4649 11.0342 22.0967 11.0342 21.7129V4.94384L16.9532 11.1588C17.0814 11.2933 17.2336 11.4001 17.4011 11.4729C17.5687 11.5457 17.7482 11.5832 17.9295 11.5832C18.1109 11.5832 18.2904 11.5457 18.458 11.4729C18.6255 11.4001 18.7777 11.2933 18.9059 11.1588C19.0341 11.0242 19.1358 10.8644 19.2052 10.6886C19.2746 10.5128 19.3103 10.3244 19.3103 10.134C19.3103 9.94374 19.2746 9.75529 19.2052 9.57947C19.1358 9.40364 19.0341 9.24389 18.9059 9.10932L10.6315 0.425214C10.5034 0.290427 10.3513 0.183488 10.1837 0.110523C10.0162 0.0375577 9.83657 0 9.65517 0C9.47378 0 9.29417 0.0375577 9.12662 0.110523C8.95908 0.183488 8.8069 0.290427 8.6788 0.425214L0.404428 9.10932C0.145477 9.38109 0 9.7497 0 10.134C0 10.5184 0.145477 10.887 0.404428 11.1588C0.663379 11.4305 1.01459 11.5832 1.3808 11.5832C1.74702 11.5832 2.09823 11.4305 2.35718 11.1588L8.27611 4.94384V21.7129C8.27611 22.0967 8.4214 22.4649 8.68003 22.7363C8.93865 23.0077 9.28942 23.1602 9.65517 23.1602Z" fill="white"/>
</svg>
