<svg width="41" height="40" viewBox="0 0 41 40" fill="none" xmlns="http://www.w3.org/2000/svg">
<path d="M34.7 25.35L31.7 22.3333V14.9C31.74 12.1397 30.7798 9.45817 28.9969 7.35055C27.214 5.24293 24.7288 3.85155 22 3.43332C20.4164 3.22477 18.8065 3.35634 17.2777 3.81928C15.749 4.28221 14.3365 5.06586 13.1346 6.11792C11.9327 7.16999 10.969 8.46628 10.3077 9.92031C9.64649 11.3743 9.30296 12.9527 9.30004 14.55V22.3333L6.30004 25.35C5.92322 25.7331 5.66768 26.2188 5.56537 26.7463C5.46307 27.2739 5.51853 27.8199 5.72484 28.3161C5.93114 28.8122 6.27912 29.2366 6.72529 29.5361C7.17146 29.8356 7.69601 29.997 8.23337 30H13.8334V30.5667C13.9112 32.2587 14.6566 33.8508 15.9062 34.9942C17.1559 36.1376 18.8078 36.739 20.5 36.6667C22.1923 36.739 23.8442 36.1376 25.0938 34.9942C26.3435 33.8508 27.0889 32.2587 27.1667 30.5667V30H32.7667C33.3041 29.997 33.8286 29.8356 34.2748 29.5361C34.721 29.2366 35.0689 28.8122 35.2752 28.3161C35.4815 27.8199 35.537 27.2739 35.4347 26.7463C35.3324 26.2188 35.0769 25.7331 34.7 25.35ZM23.8334 30.5667C23.7409 31.3683 23.3428 32.1034 22.7218 32.6188C22.1009 33.1342 21.305 33.3901 20.5 33.3333C19.6951 33.3901 18.8992 33.1342 18.2783 32.6188C17.6573 32.1034 17.2591 31.3683 17.1667 30.5667V30H23.8334V30.5667ZM9.68337 26.6667L11.65 24.7C11.962 24.3899 12.2095 24.0211 12.3782 23.6149C12.547 23.2087 12.6337 22.7732 12.6334 22.3333V14.55C12.6343 13.4257 12.8757 12.3145 13.3414 11.2912C13.807 10.2678 14.4862 9.35591 15.3334 8.61665C16.1691 7.85946 17.1593 7.2929 18.2356 6.95621C19.3119 6.61951 20.4485 6.52071 21.5667 6.66665C23.4942 6.97961 25.2437 7.97834 26.4932 9.47895C27.7427 10.9796 28.408 12.881 28.3667 14.8333V22.3333C28.3642 22.772 28.4483 23.2069 28.6141 23.613C28.78 24.0191 29.0244 24.3885 29.3334 24.7L31.3167 26.6667H9.68337Z" fill="white" fill-opacity="0.4"/>
</svg>
