<svg width="41" height="40" viewBox="0 0 41 40" fill="none" xmlns="http://www.w3.org/2000/svg">
<path d="M34.7003 25.3502L31.7003 22.3336V14.9002C31.7402 12.1399 30.7801 9.45841 28.9972 7.35079C27.2143 5.24317 24.729 3.85179 22.0003 3.43356C20.4166 3.22501 18.8067 3.35659 17.278 3.81952C15.7492 4.28246 14.3367 5.0661 13.1348 6.11817C11.9329 7.17023 10.9692 8.46653 10.308 9.92056C9.64673 11.3746 9.3032 12.9529 9.30028 14.5502V22.3336L6.30028 25.3502C5.92346 25.7333 5.66792 26.219 5.56562 26.7466C5.46331 27.2741 5.51878 27.8201 5.72508 28.3163C5.93138 28.8125 6.27937 29.2369 6.72554 29.5364C7.1717 29.8359 7.69625 29.9972 8.23362 30.0002H13.8336V30.5669C13.9115 32.2589 14.6569 33.851 15.9065 34.9944C17.1561 36.1379 18.808 36.7393 20.5003 36.6669C22.1925 36.7393 23.8445 36.1379 25.0941 34.9944C26.3437 33.851 27.0891 32.2589 27.167 30.5669V30.0002H32.767C33.3043 29.9972 33.8289 29.8359 34.275 29.5364C34.7212 29.2369 35.0692 28.8125 35.2755 28.3163C35.4818 27.8201 35.5373 27.2741 35.4349 26.7466C35.3326 26.219 35.0771 25.7333 34.7003 25.3502ZM23.8336 30.5669C23.7412 31.3686 23.343 32.1037 22.7221 32.6191C22.1011 33.1344 21.3053 33.3904 20.5003 33.3336C19.6953 33.3904 18.8995 33.1344 18.2785 32.6191C17.6575 32.1037 17.2594 31.3686 17.167 30.5669V30.0002H23.8336V30.5669ZM9.68362 26.6669L11.6503 24.7002C11.9622 24.3901 12.2097 24.0214 12.3785 23.6152C12.5473 23.209 12.634 22.7734 12.6336 22.3336V14.5502C12.6345 13.4259 12.8759 12.3148 13.3416 11.2914C13.8073 10.2681 14.4865 9.35615 15.3336 8.6169C16.1693 7.8597 17.1596 7.29315 18.2359 6.95645C19.3121 6.61975 20.4487 6.52096 21.567 6.6669C23.4944 6.97986 25.2439 7.97858 26.4934 9.4792C27.7429 10.9798 28.4083 12.8813 28.367 14.8336V22.3336C28.3644 22.7723 28.4485 23.2071 28.6144 23.6133C28.7803 24.0194 29.0247 24.3888 29.3336 24.7002L31.317 26.6669H9.68362Z" fill="url(#paint0_linear_2361_2359)"/>
<defs>
<linearGradient id="paint0_linear_2361_2359" x1="6.15782" y1="11.5346" x2="35.8007" y2="12.1491" gradientUnits="userSpaceOnUse">
<stop offset="0.452889" stop-color="#FE9730"/>
<stop offset="1" stop-color="#FB5046"/>
</linearGradient>
</defs>
</svg>
