<svg width="20" height="18" viewBox="0 0 20 18" fill="none" xmlns="http://www.w3.org/2000/svg">
<g clip-path="url(#clip0_2936_53705)">
<path d="M2.99983 17.1796L2.99614 17.182L2.9955 17.1825L2.5825 17.4517L2.99549 17.1825L2.99613 17.182L2.99983 17.1796ZM2.99983 17.1796C2.99992 17.1803 2.99999 17.1812 3 17.182M2.99983 17.1796L3 17.182M3 17.182V17.1825C3 17.1823 3 17.1822 3 17.182ZM3 17.1781V2.45477C3 2.03239 3.19168 1.61101 3.561 1.2887C3.93248 0.964499 4.44925 0.772949 5 0.772949H15C15.5508 0.772949 16.0675 0.964499 16.439 1.2887C16.8083 1.61101 17 2.03239 17 2.45477V17.1781C16.9998 17.1784 16.9996 17.1787 16.9994 17.1791L17 17.1795L16.9994 17.1791C16.9961 17.1841 16.9862 17.1961 16.964 17.2075C16.9417 17.2191 16.912 17.2274 16.8783 17.2279C16.8446 17.2284 16.814 17.221 16.7905 17.2098L16.79 17.2095L10.215 14.0786L10 13.9762L9.78504 14.0786L3.21004 17.2095L3.20955 17.2098C3.18596 17.221 3.15541 17.2284 3.12172 17.2279C3.08803 17.2274 3.0583 17.2191 3.036 17.2075C3.01384 17.1961 3.00385 17.1841 3.00062 17.1791L3 17.1795L3.00062 17.1791C3.00038 17.1787 3.00017 17.1784 3 17.1781Z" fill="#3DD368" stroke="#3DD368"/>
</g>
<defs>
<clipPath id="clip0_2936_53705">
<rect width="20" height="17.4545" fill="white" transform="translate(0 0.272949)"/>
</clipPath>
</defs>
</svg>
