<svg width="37" height="32" viewBox="0 0 37 32" fill="none" xmlns="http://www.w3.org/2000/svg">
    <path
        d="M34.5278 19.1421C33.1629 15.3248 29.5314 13.2637 25.8297 14.2052C22.953 14.9359 20.6768 17.6355 20.2963 20.7652C20.2566 21.093 20.4438 21.3813 20.7309 21.4334C21.0318 21.4883 21.2859 21.3063 21.3571 20.9777C21.4042 20.7601 21.4363 20.5386 21.4841 20.321C22.3326 16.434 26.1977 14.1787 29.7045 15.5234C32.7885 16.7058 34.5031 20.1537 33.7048 23.5667C32.7941 27.4601 28.8909 29.6709 25.4044 28.2346C23.3652 27.3944 22.0748 25.7972 21.4951 23.5369C21.3895 23.1358 21.1321 22.9433 20.8098 23.0327C20.4942 23.1207 20.3451 23.4245 20.4314 23.8033C21.2337 27.3258 24.209 29.8264 27.5988 29.8275C28.4094 29.8267 29.2145 29.6857 29.9833 29.4099C33.886 28.0177 35.9971 23.2517 34.5278 19.1421Z"
        fill="#678087" />
    <path
        d="M34.5278 19.1421C33.1629 15.3248 29.5314 13.2637 25.8297 14.2052C22.953 14.9359 20.6768 17.6355 20.2963 20.7652C20.2566 21.093 20.4438 21.3813 20.7309 21.4334C21.0318 21.4883 21.2859 21.3063 21.3571 20.9777C21.4042 20.7601 21.4363 20.5386 21.4841 20.321C22.3326 16.434 26.1977 14.1787 29.7045 15.5234C32.7885 16.7058 34.5031 20.1537 33.7048 23.5667C32.7941 27.4601 28.8909 29.6709 25.4044 28.2346C23.3652 27.3944 22.0748 25.7972 21.4951 23.5369C21.3895 23.1358 21.1321 22.9433 20.8098 23.0327C20.4942 23.1207 20.3451 23.4245 20.4314 23.8033C21.2337 27.3258 24.209 29.8264 27.5988 29.8275C28.4094 29.8267 29.2145 29.6857 29.9833 29.4099C33.886 28.0177 35.9971 23.2517 34.5278 19.1421Z"
        fill="#678087" />
    <path
        d="M34.5278 19.1421C33.1629 15.3248 29.5314 13.2637 25.8297 14.2052C22.953 14.9359 20.6768 17.6355 20.2963 20.7652C20.2566 21.093 20.4438 21.3813 20.7309 21.4334C21.0318 21.4883 21.2859 21.3063 21.3571 20.9777C21.4042 20.7601 21.4363 20.5386 21.4841 20.321C22.3326 16.434 26.1977 14.1787 29.7045 15.5234C32.7885 16.7058 34.5031 20.1537 33.7048 23.5667C32.7941 27.4601 28.8909 29.6709 25.4044 28.2346C23.3652 27.3944 22.0748 25.7972 21.4951 23.5369C21.3895 23.1358 21.1321 22.9433 20.8098 23.0327C20.4942 23.1207 20.3451 23.4245 20.4314 23.8033C21.2337 27.3258 24.209 29.8264 27.5988 29.8275C28.4094 29.8267 29.2145 29.6857 29.9833 29.4099C33.886 28.0177 35.9971 23.2517 34.5278 19.1421Z"
        fill="#678087" />
    <path
        d="M34.5278 19.1421C33.1629 15.3248 29.5314 13.2637 25.8297 14.2052C22.953 14.9359 20.6768 17.6355 20.2963 20.7652C20.2566 21.093 20.4438 21.3813 20.7309 21.4334C21.0318 21.4883 21.2859 21.3063 21.3571 20.9777C21.4042 20.7601 21.4363 20.5386 21.4841 20.321C22.3326 16.434 26.1977 14.1787 29.7045 15.5234C32.7885 16.7058 34.5031 20.1537 33.7048 23.5667C32.7941 27.4601 28.8909 29.6709 25.4044 28.2346C23.3652 27.3944 22.0748 25.7972 21.4951 23.5369C21.3895 23.1358 21.1321 22.9433 20.8098 23.0327C20.4942 23.1207 20.3451 23.4245 20.4314 23.8033C21.2337 27.3258 24.209 29.8264 27.5988 29.8275C28.4094 29.8267 29.2145 29.6857 29.9833 29.4099C33.886 28.0177 35.9971 23.2517 34.5278 19.1421Z"
        fill="#678087" />
    <path
        d="M34.5278 19.1421C33.1629 15.3248 29.5314 13.2637 25.8297 14.2052C22.953 14.9359 20.6768 17.6355 20.2963 20.7652C20.2566 21.093 20.4438 21.3813 20.7309 21.4334C21.0318 21.4883 21.2859 21.3063 21.3571 20.9777C21.4042 20.7601 21.4363 20.5386 21.4841 20.321C22.3326 16.434 26.1977 14.1787 29.7045 15.5234C32.7885 16.7058 34.5031 20.1537 33.7048 23.5667C32.7941 27.4601 28.8909 29.6709 25.4044 28.2346C23.3652 27.3944 22.0748 25.7972 21.4951 23.5369C21.3895 23.1358 21.1321 22.9433 20.8098 23.0327C20.4942 23.1207 20.3451 23.4245 20.4314 23.8033C21.2337 27.3258 24.209 29.8264 27.5988 29.8275C28.4094 29.8267 29.2145 29.6857 29.9833 29.4099C33.886 28.0177 35.9971 23.2517 34.5278 19.1421Z"
        fill="#678087" />
    <path
        d="M34.5278 19.1421C33.1629 15.3248 29.5314 13.2637 25.8297 14.2052C22.953 14.9359 20.6768 17.6355 20.2963 20.7652C20.2566 21.093 20.4438 21.3813 20.7309 21.4334C21.0318 21.4883 21.2859 21.3063 21.3571 20.9777C21.4042 20.7601 21.4363 20.5386 21.4841 20.321C22.3326 16.434 26.1977 14.1787 29.7045 15.5234C32.7885 16.7058 34.5031 20.1537 33.7048 23.5667C32.7941 27.4601 28.8909 29.6709 25.4044 28.2346C23.3652 27.3944 22.0748 25.7972 21.4951 23.5369C21.3895 23.1358 21.1321 22.9433 20.8098 23.0327C20.4942 23.1207 20.3451 23.4245 20.4314 23.8033C21.2337 27.3258 24.209 29.8264 27.5988 29.8275C28.4094 29.8267 29.2145 29.6857 29.9833 29.4099C33.886 28.0177 35.9971 23.2517 34.5278 19.1421Z"
        fill="#678087" />
    <path
        d="M34.5278 19.1421C33.1629 15.3248 29.5314 13.2637 25.8297 14.2052C22.953 14.9359 20.6768 17.6355 20.2963 20.7652C20.2566 21.093 20.4438 21.3813 20.7309 21.4334C21.0318 21.4883 21.2859 21.3063 21.3571 20.9777C21.4042 20.7601 21.4363 20.5386 21.4841 20.321C22.3326 16.434 26.1977 14.1787 29.7045 15.5234C32.7885 16.7058 34.5031 20.1537 33.7048 23.5667C32.7941 27.4601 28.8909 29.6709 25.4044 28.2346C23.3652 27.3944 22.0748 25.7972 21.4951 23.5369C21.3895 23.1358 21.1321 22.9433 20.8098 23.0327C20.4942 23.1207 20.3451 23.4245 20.4314 23.8033C21.2337 27.3258 24.209 29.8264 27.5988 29.8275C28.4094 29.8267 29.2145 29.6857 29.9833 29.4099C33.886 28.0177 35.9971 23.2517 34.5278 19.1421Z"
        fill="#678087" />
    <path
        d="M34.5278 19.1421C33.1629 15.3248 29.5314 13.2637 25.8297 14.2052C22.953 14.9359 20.6768 17.6355 20.2963 20.7652C20.2566 21.093 20.4438 21.3813 20.7309 21.4334C21.0318 21.4883 21.2859 21.3063 21.3571 20.9777C21.4042 20.7601 21.4363 20.5386 21.4841 20.321C22.3326 16.434 26.1977 14.1787 29.7045 15.5234C32.7885 16.7058 34.5031 20.1537 33.7048 23.5667C32.7941 27.4601 28.8909 29.6709 25.4044 28.2346C23.3652 27.3944 22.0748 25.7972 21.4951 23.5369C21.3895 23.1358 21.1321 22.9433 20.8098 23.0327C20.4942 23.1207 20.3451 23.4245 20.4314 23.8033C21.2337 27.3258 24.209 29.8264 27.5988 29.8275C28.4094 29.8267 29.2145 29.6857 29.9833 29.4099C33.886 28.0177 35.9971 23.2517 34.5278 19.1421Z"
        fill="#678087" />
    <path
        d="M34.5278 19.1421C33.1629 15.3248 29.5314 13.2637 25.8297 14.2052C22.953 14.9359 20.6768 17.6355 20.2963 20.7652C20.2566 21.093 20.4438 21.3813 20.7309 21.4334C21.0318 21.4883 21.2859 21.3063 21.3571 20.9777C21.4042 20.7601 21.4363 20.5386 21.4841 20.321C22.3326 16.434 26.1977 14.1787 29.7045 15.5234C32.7885 16.7058 34.5031 20.1537 33.7048 23.5667C32.7941 27.4601 28.8909 29.6709 25.4044 28.2346C23.3652 27.3944 22.0748 25.7972 21.4951 23.5369C21.3895 23.1358 21.1321 22.9433 20.8098 23.0327C20.4942 23.1207 20.3451 23.4245 20.4314 23.8033C21.2337 27.3258 24.209 29.8264 27.5988 29.8275C28.4094 29.8267 29.2145 29.6857 29.9833 29.4099C33.886 28.0177 35.9971 23.2517 34.5278 19.1421Z"
        fill="#678087" />
    <path
        d="M34.5278 19.1421C33.1629 15.3248 29.5314 13.2637 25.8297 14.2052C22.953 14.9359 20.6768 17.6355 20.2963 20.7652C20.2566 21.093 20.4438 21.3813 20.7309 21.4334C21.0318 21.4883 21.2859 21.3063 21.3571 20.9777C21.4042 20.7601 21.4363 20.5386 21.4841 20.321C22.3326 16.434 26.1977 14.1787 29.7045 15.5234C32.7885 16.7058 34.5031 20.1537 33.7048 23.5667C32.7941 27.4601 28.8909 29.6709 25.4044 28.2346C23.3652 27.3944 22.0748 25.7972 21.4951 23.5369C21.3895 23.1358 21.1321 22.9433 20.8098 23.0327C20.4942 23.1207 20.3451 23.4245 20.4314 23.8033C21.2337 27.3258 24.209 29.8264 27.5988 29.8275C28.4094 29.8267 29.2145 29.6857 29.9833 29.4099C33.886 28.0177 35.9971 23.2517 34.5278 19.1421Z"
        fill="#678087" />
    <path
        d="M34.5278 19.1421C33.1629 15.3248 29.5314 13.2637 25.8297 14.2052C22.953 14.9359 20.6768 17.6355 20.2963 20.7652C20.2566 21.093 20.4438 21.3813 20.7309 21.4334C21.0318 21.4883 21.2859 21.3063 21.3571 20.9777C21.4042 20.7601 21.4363 20.5386 21.4841 20.321C22.3326 16.434 26.1977 14.1787 29.7045 15.5234C32.7885 16.7058 34.5031 20.1537 33.7048 23.5667C32.7941 27.4601 28.8909 29.6709 25.4044 28.2346C23.3652 27.3944 22.0748 25.7972 21.4951 23.5369C21.3895 23.1358 21.1321 22.9433 20.8098 23.0327C20.4942 23.1207 20.3451 23.4245 20.4314 23.8033C21.2337 27.3258 24.209 29.8264 27.5988 29.8275C28.4094 29.8267 29.2145 29.6857 29.9833 29.4099C33.886 28.0177 35.9971 23.2517 34.5278 19.1421Z"
        fill="#678087" />
    <path
        d="M34.5278 19.1421C33.1629 15.3248 29.5314 13.2637 25.8297 14.2052C22.953 14.9359 20.6768 17.6355 20.2963 20.7652C20.2566 21.093 20.4438 21.3813 20.7309 21.4334C21.0318 21.4883 21.2859 21.3063 21.3571 20.9777C21.4042 20.7601 21.4363 20.5386 21.4841 20.321C22.3326 16.434 26.1977 14.1787 29.7045 15.5234C32.7885 16.7058 34.5031 20.1537 33.7048 23.5667C32.7941 27.4601 28.8909 29.6709 25.4044 28.2346C23.3652 27.3944 22.0748 25.7972 21.4951 23.5369C21.3895 23.1358 21.1321 22.9433 20.8098 23.0327C20.4942 23.1207 20.3451 23.4245 20.4314 23.8033C21.2337 27.3258 24.209 29.8264 27.5988 29.8275C28.4094 29.8267 29.2145 29.6857 29.9833 29.4099C33.886 28.0177 35.9971 23.2517 34.5278 19.1421Z"
        fill="#678087" />
    <path
        d="M34.5278 19.1421C33.1629 15.3248 29.5314 13.2637 25.8297 14.2052C22.953 14.9359 20.6768 17.6355 20.2963 20.7652C20.2566 21.093 20.4438 21.3813 20.7309 21.4334C21.0318 21.4883 21.2859 21.3063 21.3571 20.9777C21.4042 20.7601 21.4363 20.5386 21.4841 20.321C22.3326 16.434 26.1977 14.1787 29.7045 15.5234C32.7885 16.7058 34.5031 20.1537 33.7048 23.5667C32.7941 27.4601 28.8909 29.6709 25.4044 28.2346C23.3652 27.3944 22.0748 25.7972 21.4951 23.5369C21.3895 23.1358 21.1321 22.9433 20.8098 23.0327C20.4942 23.1207 20.3451 23.4245 20.4314 23.8033C21.2337 27.3258 24.209 29.8264 27.5988 29.8275C28.4094 29.8267 29.2145 29.6857 29.9833 29.4099C33.886 28.0177 35.9971 23.2517 34.5278 19.1421Z"
        fill="#678087" />
    <path
        d="M34.5278 19.1421C33.1629 15.3248 29.5314 13.2637 25.8297 14.2052C22.953 14.9359 20.6768 17.6355 20.2963 20.7652C20.2566 21.093 20.4438 21.3813 20.7309 21.4334C21.0318 21.4883 21.2859 21.3063 21.3571 20.9777C21.4042 20.7601 21.4363 20.5386 21.4841 20.321C22.3326 16.434 26.1977 14.1787 29.7045 15.5234C32.7885 16.7058 34.5031 20.1537 33.7048 23.5667C32.7941 27.4601 28.8909 29.6709 25.4044 28.2346C23.3652 27.3944 22.0748 25.7972 21.4951 23.5369C21.3895 23.1358 21.1321 22.9433 20.8098 23.0327C20.4942 23.1207 20.3451 23.4245 20.4314 23.8033C21.2337 27.3258 24.209 29.8264 27.5988 29.8275C28.4094 29.8267 29.2145 29.6857 29.9833 29.4099C33.886 28.0177 35.9971 23.2517 34.5278 19.1421Z"
        fill="#678087" />
    <path
        d="M34.5278 19.1421C33.1629 15.3248 29.5314 13.2637 25.8297 14.2052C22.953 14.9359 20.6768 17.6355 20.2963 20.7652C20.2566 21.093 20.4438 21.3813 20.7309 21.4334C21.0318 21.4883 21.2859 21.3063 21.3571 20.9777C21.4042 20.7601 21.4363 20.5386 21.4841 20.321C22.3326 16.434 26.1977 14.1787 29.7045 15.5234C32.7885 16.7058 34.5031 20.1537 33.7048 23.5667C32.7941 27.4601 28.8909 29.6709 25.4044 28.2346C23.3652 27.3944 22.0748 25.7972 21.4951 23.5369C21.3895 23.1358 21.1321 22.9433 20.8098 23.0327C20.4942 23.1207 20.3451 23.4245 20.4314 23.8033C21.2337 27.3258 24.209 29.8264 27.5988 29.8275C28.4094 29.8267 29.2145 29.6857 29.9833 29.4099C33.886 28.0177 35.9971 23.2517 34.5278 19.1421Z"
        fill="#678087" />
    <path
        d="M34.5278 19.1421C33.1629 15.3248 29.5314 13.2637 25.8297 14.2052C22.953 14.9359 20.6768 17.6355 20.2963 20.7652C20.2566 21.093 20.4438 21.3813 20.7309 21.4334C21.0318 21.4883 21.2859 21.3063 21.3571 20.9777C21.4042 20.7601 21.4363 20.5386 21.4841 20.321C22.3326 16.434 26.1977 14.1787 29.7045 15.5234C32.7885 16.7058 34.5031 20.1537 33.7048 23.5667C32.7941 27.4601 28.8909 29.6709 25.4044 28.2346C23.3652 27.3944 22.0748 25.7972 21.4951 23.5369C21.3895 23.1358 21.1321 22.9433 20.8098 23.0327C20.4942 23.1207 20.3451 23.4245 20.4314 23.8033C21.2337 27.3258 24.209 29.8264 27.5988 29.8275C28.4094 29.8267 29.2145 29.6857 29.9833 29.4099C33.886 28.0177 35.9971 23.2517 34.5278 19.1421Z"
        fill="#678087" />
    <path
        d="M34.5278 19.1421C33.1629 15.3248 29.5314 13.2637 25.8297 14.2052C22.953 14.9359 20.6768 17.6355 20.2963 20.7652C20.2566 21.093 20.4438 21.3813 20.7309 21.4334C21.0318 21.4883 21.2859 21.3063 21.3571 20.9777C21.4042 20.7601 21.4363 20.5386 21.4841 20.321C22.3326 16.434 26.1977 14.1787 29.7045 15.5234C32.7885 16.7058 34.5031 20.1537 33.7048 23.5667C32.7941 27.4601 28.8909 29.6709 25.4044 28.2346C23.3652 27.3944 22.0748 25.7972 21.4951 23.5369C21.3895 23.1358 21.1321 22.9433 20.8098 23.0327C20.4942 23.1207 20.3451 23.4245 20.4314 23.8033C21.2337 27.3258 24.209 29.8264 27.5988 29.8275C28.4094 29.8267 29.2145 29.6857 29.9833 29.4099C33.886 28.0177 35.9971 23.2517 34.5278 19.1421Z"
        fill="#678087" />
    <path
        d="M34.5278 19.1421C33.1629 15.3248 29.5314 13.2637 25.8297 14.2052C22.953 14.9359 20.6768 17.6355 20.2963 20.7652C20.2566 21.093 20.4438 21.3813 20.7309 21.4334C21.0318 21.4883 21.2859 21.3063 21.3571 20.9777C21.4042 20.7601 21.4363 20.5386 21.4841 20.321C22.3326 16.434 26.1977 14.1787 29.7045 15.5234C32.7885 16.7058 34.5031 20.1537 33.7048 23.5667C32.7941 27.4601 28.8909 29.6709 25.4044 28.2346C23.3652 27.3944 22.0748 25.7972 21.4951 23.5369C21.3895 23.1358 21.1321 22.9433 20.8098 23.0327C20.4942 23.1207 20.3451 23.4245 20.4314 23.8033C21.2337 27.3258 24.209 29.8264 27.5988 29.8275C28.4094 29.8267 29.2145 29.6857 29.9833 29.4099C33.886 28.0177 35.9971 23.2517 34.5278 19.1421Z"
        fill="#678087" />
    <path
        d="M34.5278 19.1421C33.1629 15.3248 29.5314 13.2637 25.8297 14.2052C22.953 14.9359 20.6768 17.6355 20.2963 20.7652C20.2566 21.093 20.4438 21.3813 20.7309 21.4334C21.0318 21.4883 21.2859 21.3063 21.3571 20.9777C21.4042 20.7601 21.4363 20.5386 21.4841 20.321C22.3326 16.434 26.1977 14.1787 29.7045 15.5234C32.7885 16.7058 34.5031 20.1537 33.7048 23.5667C32.7941 27.4601 28.8909 29.6709 25.4044 28.2346C23.3652 27.3944 22.0748 25.7972 21.4951 23.5369C21.3895 23.1358 21.1321 22.9433 20.8098 23.0327C20.4942 23.1207 20.3451 23.4245 20.4314 23.8033C21.2337 27.3258 24.209 29.8264 27.5988 29.8275C28.4094 29.8267 29.2145 29.6857 29.9833 29.4099C33.886 28.0177 35.9971 23.2517 34.5278 19.1421Z"
        fill="#678087" />
    <path
        d="M34.5278 19.1421C33.1629 15.3248 29.5314 13.2637 25.8297 14.2052C22.953 14.9359 20.6768 17.6355 20.2963 20.7652C20.2566 21.093 20.4438 21.3813 20.7309 21.4334C21.0318 21.4883 21.2859 21.3063 21.3571 20.9777C21.4042 20.7601 21.4363 20.5386 21.4841 20.321C22.3326 16.434 26.1977 14.1787 29.7045 15.5234C32.7885 16.7058 34.5031 20.1537 33.7048 23.5667C32.7941 27.4601 28.8909 29.6709 25.4044 28.2346C23.3652 27.3944 22.0748 25.7972 21.4951 23.5369C21.3895 23.1358 21.1321 22.9433 20.8098 23.0327C20.4942 23.1207 20.3451 23.4245 20.4314 23.8033C21.2337 27.3258 24.209 29.8264 27.5988 29.8275C28.4094 29.8267 29.2145 29.6857 29.9833 29.4099C33.886 28.0177 35.9971 23.2517 34.5278 19.1421Z"
        fill="#678087" />
    <path
        d="M34.5278 19.1421C33.1629 15.3248 29.5314 13.2637 25.8297 14.2052C22.953 14.9359 20.6768 17.6355 20.2963 20.7652C20.2566 21.093 20.4438 21.3813 20.7309 21.4334C21.0318 21.4883 21.2859 21.3063 21.3571 20.9777C21.4042 20.7601 21.4363 20.5386 21.4841 20.321C22.3326 16.434 26.1977 14.1787 29.7045 15.5234C32.7885 16.7058 34.5031 20.1537 33.7048 23.5667C32.7941 27.4601 28.8909 29.6709 25.4044 28.2346C23.3652 27.3944 22.0748 25.7972 21.4951 23.5369C21.3895 23.1358 21.1321 22.9433 20.8098 23.0327C20.4942 23.1207 20.3451 23.4245 20.4314 23.8033C21.2337 27.3258 24.209 29.8264 27.5988 29.8275C28.4094 29.8267 29.2145 29.6857 29.9833 29.4099C33.886 28.0177 35.9971 23.2517 34.5278 19.1421Z"
        fill="#678087" />
    <path
        d="M34.5278 19.1421C33.1629 15.3248 29.5314 13.2637 25.8297 14.2052C22.953 14.9359 20.6768 17.6355 20.2963 20.7652C20.2566 21.093 20.4438 21.3813 20.7309 21.4334C21.0318 21.4883 21.2859 21.3063 21.3571 20.9777C21.4042 20.7601 21.4363 20.5386 21.4841 20.321C22.3326 16.434 26.1977 14.1787 29.7045 15.5234C32.7885 16.7058 34.5031 20.1537 33.7048 23.5667C32.7941 27.4601 28.8909 29.6709 25.4044 28.2346C23.3652 27.3944 22.0748 25.7972 21.4951 23.5369C21.3895 23.1358 21.1321 22.9433 20.8098 23.0327C20.4942 23.1207 20.3451 23.4245 20.4314 23.8033C21.2337 27.3258 24.209 29.8264 27.5988 29.8275C28.4094 29.8267 29.2145 29.6857 29.9833 29.4099C33.886 28.0177 35.9971 23.2517 34.5278 19.1421Z"
        fill="#678087" />
    <path
        d="M34.5278 19.1421C33.1629 15.3248 29.5314 13.2637 25.8297 14.2052C22.953 14.9359 20.6768 17.6355 20.2963 20.7652C20.2566 21.093 20.4438 21.3813 20.7309 21.4334C21.0318 21.4883 21.2859 21.3063 21.3571 20.9777C21.4042 20.7601 21.4363 20.5386 21.4841 20.321C22.3326 16.434 26.1977 14.1787 29.7045 15.5234C32.7885 16.7058 34.5031 20.1537 33.7048 23.5667C32.7941 27.4601 28.8909 29.6709 25.4044 28.2346C23.3652 27.3944 22.0748 25.7972 21.4951 23.5369C21.3895 23.1358 21.1321 22.9433 20.8098 23.0327C20.4942 23.1207 20.3451 23.4245 20.4314 23.8033C21.2337 27.3258 24.209 29.8264 27.5988 29.8275C28.4094 29.8267 29.2145 29.6857 29.9833 29.4099C33.886 28.0177 35.9971 23.2517 34.5278 19.1421Z"
        fill="#678087" />
    <path
        d="M34.5278 19.1421C33.1629 15.3248 29.5314 13.2637 25.8297 14.2052C22.953 14.9359 20.6768 17.6355 20.2963 20.7652C20.2566 21.093 20.4438 21.3813 20.7309 21.4334C21.0318 21.4883 21.2859 21.3063 21.3571 20.9777C21.4042 20.7601 21.4363 20.5386 21.4841 20.321C22.3326 16.434 26.1977 14.1787 29.7045 15.5234C32.7885 16.7058 34.5031 20.1537 33.7048 23.5667C32.7941 27.4601 28.8909 29.6709 25.4044 28.2346C23.3652 27.3944 22.0748 25.7972 21.4951 23.5369C21.3895 23.1358 21.1321 22.9433 20.8098 23.0327C20.4942 23.1207 20.3451 23.4245 20.4314 23.8033C21.2337 27.3258 24.209 29.8264 27.5988 29.8275C28.4094 29.8267 29.2145 29.6857 29.9833 29.4099C33.886 28.0177 35.9971 23.2517 34.5278 19.1421Z"
        fill="#678087" />
    <path
        d="M34.5278 19.1421C33.1629 15.3248 29.5314 13.2637 25.8297 14.2052C22.953 14.9359 20.6768 17.6355 20.2963 20.7652C20.2566 21.093 20.4438 21.3813 20.7309 21.4334C21.0318 21.4883 21.2859 21.3063 21.3571 20.9777C21.4042 20.7601 21.4363 20.5386 21.4841 20.321C22.3326 16.434 26.1977 14.1787 29.7045 15.5234C32.7885 16.7058 34.5031 20.1537 33.7048 23.5667C32.7941 27.4601 28.8909 29.6709 25.4044 28.2346C23.3652 27.3944 22.0748 25.7972 21.4951 23.5369C21.3895 23.1358 21.1321 22.9433 20.8098 23.0327C20.4942 23.1207 20.3451 23.4245 20.4314 23.8033C21.2337 27.3258 24.209 29.8264 27.5988 29.8275C28.4094 29.8267 29.2145 29.6857 29.9833 29.4099C33.886 28.0177 35.9971 23.2517 34.5278 19.1421Z"
        fill="#678087" />
    <path
        d="M34.5278 19.1421C33.1629 15.3248 29.5314 13.2637 25.8297 14.2052C22.953 14.9359 20.6768 17.6355 20.2963 20.7652C20.2566 21.093 20.4438 21.3813 20.7309 21.4334C21.0318 21.4883 21.2859 21.3063 21.3571 20.9777C21.4042 20.7601 21.4363 20.5386 21.4841 20.321C22.3326 16.434 26.1977 14.1787 29.7045 15.5234C32.7885 16.7058 34.5031 20.1537 33.7048 23.5667C32.7941 27.4601 28.8909 29.6709 25.4044 28.2346C23.3652 27.3944 22.0748 25.7972 21.4951 23.5369C21.3895 23.1358 21.1321 22.9433 20.8098 23.0327C20.4942 23.1207 20.3451 23.4245 20.4314 23.8033C21.2337 27.3258 24.209 29.8264 27.5988 29.8275C28.4094 29.8267 29.2145 29.6857 29.9833 29.4099C33.886 28.0177 35.9971 23.2517 34.5278 19.1421Z"
        fill="#678087" />
    <path
        d="M34.5278 19.1421C33.1629 15.3248 29.5314 13.2637 25.8297 14.2052C22.953 14.9359 20.6768 17.6355 20.2963 20.7652C20.2566 21.093 20.4438 21.3813 20.7309 21.4334C21.0318 21.4883 21.2859 21.3063 21.3571 20.9777C21.4042 20.7601 21.4363 20.5386 21.4841 20.321C22.3326 16.434 26.1977 14.1787 29.7045 15.5234C32.7885 16.7058 34.5031 20.1537 33.7048 23.5667C32.7941 27.4601 28.8909 29.6709 25.4044 28.2346C23.3652 27.3944 22.0748 25.7972 21.4951 23.5369C21.3895 23.1358 21.1321 22.9433 20.8098 23.0327C20.4942 23.1207 20.3451 23.4245 20.4314 23.8033C21.2337 27.3258 24.209 29.8264 27.5988 29.8275C28.4094 29.8267 29.2145 29.6857 29.9833 29.4099C33.886 28.0177 35.9971 23.2517 34.5278 19.1421Z"
        fill="#678087" />
    <path d="M4.33411 18.2435V17.9175C4.33191 18.0259 4.33081 18.1347 4.33411 18.2435Z" fill="#678087" />
    <path d="M4.33342 15.8039V14.6584C4.33195 15.0419 4.33122 15.4222 4.33342 15.8039Z" fill="#678087" />
    <path
        d="M34.5278 19.1421C33.1629 15.3248 29.5314 13.2637 25.8297 14.2052C22.953 14.9359 20.6768 17.6355 20.2963 20.7652C20.2566 21.093 20.4438 21.3813 20.7309 21.4334C21.0318 21.4883 21.2859 21.3063 21.3571 20.9777C21.4042 20.7601 21.4363 20.5386 21.4841 20.321C22.3326 16.434 26.1977 14.1787 29.7045 15.5234C32.7885 16.7058 34.5031 20.1537 33.7048 23.5667C32.7941 27.4601 28.8909 29.6709 25.4044 28.2346C23.3652 27.3944 22.0748 25.7972 21.4951 23.5369C21.3895 23.1358 21.1321 22.9433 20.8098 23.0327C20.4942 23.1207 20.3451 23.4245 20.4314 23.8033C21.2337 27.3258 24.209 29.8264 27.5988 29.8275C28.4094 29.8267 29.2145 29.6857 29.9833 29.4099C33.886 28.0177 35.9971 23.2517 34.5278 19.1421Z"
        fill="#678087" />
    <path
        d="M34.5278 19.1421C33.1629 15.3248 29.5314 13.2637 25.8297 14.2052C22.953 14.9359 20.6768 17.6355 20.2963 20.7652C20.2566 21.093 20.4438 21.3813 20.7309 21.4334C21.0318 21.4883 21.2859 21.3063 21.3571 20.9777C21.4042 20.7601 21.4363 20.5386 21.4841 20.321C22.3326 16.434 26.1977 14.1787 29.7045 15.5234C32.7885 16.7058 34.5031 20.1537 33.7048 23.5667C32.7941 27.4601 28.8909 29.6709 25.4044 28.2346C23.3652 27.3944 22.0748 25.7972 21.4951 23.5369C21.3895 23.1358 21.1321 22.9433 20.8098 23.0327C20.4942 23.1207 20.3451 23.4245 20.4314 23.8033C21.2337 27.3258 24.209 29.8264 27.5988 29.8275C28.4094 29.8267 29.2145 29.6857 29.9833 29.4099C33.886 28.0177 35.9971 23.2517 34.5278 19.1421Z"
        fill="#678087" />
    <path
        d="M34.5278 19.1421C33.1629 15.3248 29.5314 13.2637 25.8297 14.2052C22.953 14.9359 20.6768 17.6355 20.2963 20.7652C20.2566 21.093 20.4438 21.3813 20.7309 21.4334C21.0318 21.4883 21.2859 21.3063 21.3571 20.9777C21.4042 20.7601 21.4363 20.5386 21.4841 20.321C22.3326 16.434 26.1977 14.1787 29.7045 15.5234C32.7885 16.7058 34.5031 20.1537 33.7048 23.5667C32.7941 27.4601 28.8909 29.6709 25.4044 28.2346C23.3652 27.3944 22.0748 25.7972 21.4951 23.5369C21.3895 23.1358 21.1321 22.9433 20.8098 23.0327C20.4942 23.1207 20.3451 23.4245 20.4314 23.8033C21.2337 27.3258 24.209 29.8264 27.5988 29.8275C28.4094 29.8267 29.2145 29.6857 29.9833 29.4099C33.886 28.0177 35.9971 23.2517 34.5278 19.1421Z"
        fill="#678087" />
    <path
        d="M34.5278 19.1421C33.1629 15.3248 29.5314 13.2637 25.8297 14.2052C22.953 14.9359 20.6768 17.6355 20.2963 20.7652C20.2566 21.093 20.4438 21.3813 20.7309 21.4334C21.0318 21.4883 21.2859 21.3063 21.3571 20.9777C21.4042 20.7601 21.4363 20.5386 21.4841 20.321C22.3326 16.434 26.1977 14.1787 29.7045 15.5234C32.7885 16.7058 34.5031 20.1537 33.7048 23.5667C32.7941 27.4601 28.8909 29.6709 25.4044 28.2346C23.3652 27.3944 22.0748 25.7972 21.4951 23.5369C21.3895 23.1358 21.1321 22.9433 20.8098 23.0327C20.4942 23.1207 20.3451 23.4245 20.4314 23.8033C21.2337 27.3258 24.209 29.8264 27.5988 29.8275C28.4094 29.8267 29.2145 29.6857 29.9833 29.4099C33.886 28.0177 35.9971 23.2517 34.5278 19.1421Z"
        fill="#678087" />
    <path
        d="M34.5278 19.1421C33.1629 15.3248 29.5314 13.2637 25.8297 14.2052C22.953 14.9359 20.6768 17.6355 20.2963 20.7652C20.2566 21.093 20.4438 21.3813 20.7309 21.4334C21.0318 21.4883 21.2859 21.3063 21.3571 20.9777C21.4042 20.7601 21.4363 20.5386 21.4841 20.321C22.3326 16.434 26.1977 14.1787 29.7045 15.5234C32.7885 16.7058 34.5031 20.1537 33.7048 23.5667C32.7941 27.4601 28.8909 29.6709 25.4044 28.2346C23.3652 27.3944 22.0748 25.7972 21.4951 23.5369C21.3895 23.1358 21.1321 22.9433 20.8098 23.0327C20.4942 23.1207 20.3451 23.4245 20.4314 23.8033C21.2337 27.3258 24.209 29.8264 27.5988 29.8275C28.4094 29.8267 29.2145 29.6857 29.9833 29.4099C33.886 28.0177 35.9971 23.2517 34.5278 19.1421Z"
        fill="#678087" />
    <path
        d="M34.5278 19.1421C33.1629 15.3248 29.5314 13.2637 25.8297 14.2052C22.953 14.9359 20.6768 17.6355 20.2963 20.7652C20.2566 21.093 20.4438 21.3813 20.7309 21.4334C21.0318 21.4883 21.2859 21.3063 21.3571 20.9777C21.4042 20.7601 21.4363 20.5386 21.4841 20.321C22.3326 16.434 26.1977 14.1787 29.7045 15.5234C32.7885 16.7058 34.5031 20.1537 33.7048 23.5667C32.7941 27.4601 28.8909 29.6709 25.4044 28.2346C23.3652 27.3944 22.0748 25.7972 21.4951 23.5369C21.3895 23.1358 21.1321 22.9433 20.8098 23.0327C20.4942 23.1207 20.3451 23.4245 20.4314 23.8033C21.2337 27.3258 24.209 29.8264 27.5988 29.8275C28.4094 29.8267 29.2145 29.6857 29.9833 29.4099C33.886 28.0177 35.9971 23.2517 34.5278 19.1421Z"
        fill="#678087" />
    <path
        d="M34.5278 19.1421C33.1629 15.3248 29.5314 13.2637 25.8297 14.2052C22.953 14.9359 20.6768 17.6355 20.2963 20.7652C20.2566 21.093 20.4438 21.3813 20.7309 21.4334C21.0318 21.4883 21.2859 21.3063 21.3571 20.9777C21.4042 20.7601 21.4363 20.5386 21.4841 20.321C22.3326 16.434 26.1977 14.1787 29.7045 15.5234C32.7885 16.7058 34.5031 20.1537 33.7048 23.5667C32.7941 27.4601 28.8909 29.6709 25.4044 28.2346C23.3652 27.3944 22.0748 25.7972 21.4951 23.5369C21.3895 23.1358 21.1321 22.9433 20.8098 23.0327C20.4942 23.1207 20.3451 23.4245 20.4314 23.8033C21.2337 27.3258 24.209 29.8264 27.5988 29.8275C28.4094 29.8267 29.2145 29.6857 29.9833 29.4099C33.886 28.0177 35.9971 23.2517 34.5278 19.1421Z"
        fill="#678087" />
    <path
        d="M34.5278 19.1421C33.1629 15.3248 29.5314 13.2637 25.8297 14.2052C22.953 14.9359 20.6768 17.6355 20.2963 20.7652C20.2566 21.093 20.4438 21.3813 20.7309 21.4334C21.0318 21.4883 21.2859 21.3063 21.3571 20.9777C21.4042 20.7601 21.4363 20.5386 21.4841 20.321C22.3326 16.434 26.1977 14.1787 29.7045 15.5234C32.7885 16.7058 34.5031 20.1537 33.7048 23.5667C32.7941 27.4601 28.8909 29.6709 25.4044 28.2346C23.3652 27.3944 22.0748 25.7972 21.4951 23.5369C21.3895 23.1358 21.1321 22.9433 20.8098 23.0327C20.4942 23.1207 20.3451 23.4245 20.4314 23.8033C21.2337 27.3258 24.209 29.8264 27.5988 29.8275C28.4094 29.8267 29.2145 29.6857 29.9833 29.4099C33.886 28.0177 35.9971 23.2517 34.5278 19.1421Z"
        fill="#678087" />
    <path
        d="M29.9793 29.4099C29.2105 29.6857 28.4053 29.8267 27.5948 29.8275C24.2036 29.8264 21.23 27.3258 20.426 23.8051C20.3398 23.4263 20.4889 23.1228 20.8045 23.0345C21.1264 22.9447 21.3841 23.1376 21.4878 23.5394C22.0675 25.8015 23.3599 27.3969 25.3971 28.2371C28.8818 29.6734 32.7851 27.463 33.6974 23.5692C34.4957 20.1551 32.7811 16.7073 29.6972 15.5259C26.1914 14.1787 22.3265 16.434 21.4781 20.3221C21.4303 20.5397 21.3982 20.7612 21.351 20.9788C21.2798 21.3074 21.0251 21.4894 20.7249 21.4345C20.4384 21.3824 20.2512 21.0941 20.2903 20.7662C20.6728 17.6355 22.949 14.9359 25.8257 14.2052C29.5274 13.2637 33.1589 15.3248 34.5238 19.1421C35.9931 23.2517 33.8819 28.0177 29.9793 29.4099Z"
        fill="#678087" />
    <path
        d="M34.0658 8.95762C34.0677 8.40369 33.9513 7.85668 33.7255 7.35866C33.0097 5.79812 31.8417 4.94712 30.2153 4.91695L29.9221 4.91229C28.2112 4.88679 26.4996 4.90439 24.7883 4.91229H24.6836L23.8125 4.90582C23.6614 4.90582 23.6263 4.82611 23.6279 4.66345C23.6339 3.87995 23.638 3.09645 23.6279 2.31331C23.6149 1.27199 23.0315 0.436424 22.1065 0.146651C21.8747 0.0809611 21.6355 0.0502646 21.3958 0.0554459C19.4485 0.0475463 16.0821 0.0536506 14.1341 0.0583185C12.8093 0.0608321 11.9167 1.02531 11.9131 2.44509C11.9104 3.17688 11.9044 3.90903 11.9157 4.64047C11.9187 4.84335 11.8599 4.9148 11.6998 4.9148H9.44558C9.42619 4.9148 9.40547 4.9148 9.38307 4.9148H9.14906C7.60626 4.90475 6.0628 4.89936 4.52001 4.9148C4.36935 4.9148 4.21858 4.91636 4.0677 4.91947C3.62475 4.9245 3.16509 4.97872 2.7442 5.12091C1.08106 5.6825 0.0303558 7.35004 0.0510824 9.17522C0.0724776 10.9835 0.0560969 12.7925 0.0560969 14.6008C0.0560969 18.5966 0.0497452 22.5928 0.0641201 26.5882C0.0661259 27.055 0.118945 27.5415 0.253668 27.9821C0.809943 29.7958 2.24075 30.8712 4.05332 30.8727C9.43288 30.8767 14.8127 30.8767 20.1927 30.8727C20.2728 30.8759 20.3531 30.872 20.4327 30.8612C20.7168 30.812 20.9131 30.5621 20.9047 30.2694C20.896 29.9656 20.6747 29.7308 20.3762 29.7128C20.2722 29.7067 20.1673 29.7093 20.0633 29.7093C14.7312 29.7093 9.39934 29.7093 4.0677 29.7093C2.34739 29.7093 1.14224 28.4223 1.1409 26.5778C1.138 23.2965 1.138 20.0154 1.1409 16.7345C1.1409 16.6486 1.15394 16.5628 1.1633 16.4526C2.46072 17.4917 2.59544 17.5481 4.15595 17.6734C4.27931 17.6835 4.32611 17.7327 4.33246 17.839C4.33315 17.8531 4.33315 17.8672 4.33246 17.8813C4.33246 17.8932 4.33246 17.9047 4.33246 17.9172V20.0139C4.33246 20.2996 4.43813 20.5736 4.62621 20.7756C4.81429 20.9776 5.06938 21.0911 5.33536 21.0911H8.5169C8.78288 21.0911 9.03797 20.9776 9.22605 20.7756C9.41413 20.5736 9.5198 20.2996 9.5198 20.0139V18.4289C9.52803 18.2951 9.5297 18.1608 9.52481 18.0268C9.51278 17.6788 9.52481 17.677 9.8317 17.677C12.807 17.677 16.0497 17.677 19.0233 17.677C19.0691 17.677 19.1149 17.6803 19.1684 17.6842C19.341 17.2744 19.5385 16.8772 19.7597 16.4953C19.7386 16.5007 19.717 16.5036 19.6952 16.5039C16.4803 16.5143 12.9969 16.5115 9.78155 16.5161C9.59368 16.5161 9.52381 16.4522 9.5198 16.2648C9.5198 16.2547 9.5198 16.244 9.5198 16.2328C9.5198 16.2217 9.5198 16.2149 9.5198 16.2059C9.52916 15.5348 9.52581 14.8633 9.52147 14.1918C9.51612 13.2988 9.0013 12.7433 8.16889 12.7369C7.35119 12.7315 6.53316 12.7344 5.71546 12.7369C4.86567 12.7369 4.33714 13.3039 4.3328 14.2188C4.3328 14.3667 4.33224 14.5147 4.33113 14.6626V15.808C4.33113 15.9584 4.33235 16.1089 4.3348 16.2598C4.33539 16.2869 4.33416 16.314 4.33113 16.3409C4.31608 16.4673 4.25257 16.5147 4.1018 16.5204C2.44099 16.5653 1.15494 15.2518 1.14291 13.4687C1.13321 12.013 1.12887 10.5577 1.14892 9.10233C1.15388 8.73288 1.21474 8.36675 1.32911 8.01828C1.73027 6.81071 2.75457 6.07928 4.01622 6.07641C6.79024 6.0697 9.56426 6.06863 12.3383 6.07317C18.2237 6.07317 24.1088 6.07617 29.9933 6.08215C30.3945 6.08215 30.8234 6.13063 31.1915 6.28682C32.2886 6.75111 32.9155 7.6452 32.9683 8.92279C33.0101 9.94579 32.9773 10.972 32.9877 11.9968C32.987 12.159 33.0183 12.3194 33.0796 12.4676C33.1755 12.6866 33.4406 12.7879 33.6573 12.7301C33.9137 12.6608 34.0675 12.4428 34.0685 12.1099C34.0714 11.0593 34.0705 10.0085 34.0658 8.95762ZM5.41259 15.1459C5.42696 14.8457 5.41794 14.5437 5.41259 14.2425C5.40858 14.0102 5.49315 13.8953 5.72516 13.8974C6.52614 13.9046 7.32735 13.9046 8.12877 13.8974C8.35911 13.8949 8.44569 13.9951 8.43767 14.2364C8.42697 14.5459 8.42664 14.8565 8.43767 15.1657C8.44435 15.3553 8.38451 15.4253 8.20366 15.4213C8.0228 15.4174 7.84429 15.4156 7.66477 15.4156C7.41972 15.4156 7.17435 15.4181 6.92931 15.4177C6.68426 15.4174 6.44323 15.4152 6.20053 15.4152C6.0267 15.4152 5.85319 15.4152 5.67936 15.421C5.49282 15.4253 5.40156 15.3718 5.41259 15.1459ZM5.41259 17.7348C5.41259 17.4185 5.41927 17.1014 5.41459 16.7851C5.41192 16.5919 5.5199 16.5836 5.6486 16.584C6.07417 16.584 6.49873 16.584 6.92362 16.584C7.34083 16.584 7.7577 16.5923 8.17457 16.5811C8.35777 16.5761 8.44201 16.6235 8.44201 16.8275V19.3381C8.44201 19.4898 8.38591 19.6353 8.28604 19.7426C8.18617 19.8498 8.05071 19.9101 7.90947 19.9101H5.94346C5.80222 19.9101 5.66676 19.8498 5.56689 19.7426C5.46702 19.6353 5.41092 19.4898 5.41092 19.3381L5.41259 17.7348ZM22.2904 4.90762C21.3353 4.90152 18.9611 4.90762 18.0063 4.90762H16.1008C15.1514 4.90762 14.2023 4.90762 13.2529 4.91229C13.0554 4.91229 12.9905 4.85232 12.9932 4.63616C13.0042 3.89682 12.9932 3.15677 12.9995 2.41672C13.0059 1.67667 13.4141 1.22567 14.1107 1.22316C16.0744 1.21849 19.4569 1.21131 21.4182 1.21849C22.1466 1.221 22.5445 1.66589 22.5458 2.44401C22.5458 3.17508 22.5388 3.90688 22.5511 4.6376C22.5548 4.85986 22.4843 4.9087 22.2904 4.90762Z"
        fill="#678087" stroke="#678087" stroke-width="0.110037" stroke-miterlimit="10" />
    <path
        d="M29.9793 29.4099C29.2105 29.6857 28.4053 29.8267 27.5948 29.8275C24.2036 29.8264 21.23 27.3258 20.426 23.8051C20.3398 23.4263 20.4889 23.1228 20.8045 23.0345C21.1264 22.9447 21.3841 23.1376 21.4878 23.5394C22.0675 25.8015 23.3599 27.3969 25.3971 28.2371C28.8818 29.6734 32.7851 27.463 33.6974 23.5692C34.4957 20.1551 32.7811 16.7073 29.6972 15.5259C26.1914 14.1787 22.3265 16.434 21.4781 20.3221C21.4303 20.5397 21.3982 20.7612 21.351 20.9788C21.2798 21.3074 21.0251 21.4894 20.7249 21.4345C20.4384 21.3824 20.2512 21.0941 20.2903 20.7662C20.6728 17.6355 22.949 14.9359 25.8257 14.2052C29.5274 13.2637 33.1589 15.3248 34.5238 19.1421C35.9931 23.2517 33.8819 28.0177 29.9793 29.4099Z"
        fill="#678087" />
    <path
        d="M30.3695 21.9389C30.285 21.9299 30.2002 21.9271 30.1154 21.9302C30.0723 21.9302 30.0288 21.9302 29.9857 21.9302C29.9616 21.9302 29.9379 21.9288 29.9145 21.9259L29.7961 21.9188V21.1622H29.8924H30.0281C30.1284 21.1622 30.2217 21.1622 30.3166 21.1622C30.4614 21.1575 30.563 21.0947 30.6259 20.9712C30.6309 20.9615 30.6356 20.951 30.6399 20.941C30.6705 20.8769 30.6823 20.8043 30.6736 20.7329C30.6649 20.6615 30.6363 20.5945 30.5914 20.541C30.5608 20.498 30.5211 20.4634 30.4757 20.4399C30.4303 20.4165 30.3804 20.4048 30.33 20.406H29.7894V20.1715C29.7894 19.9984 29.7894 19.8255 29.7894 19.6526C29.7894 19.5708 29.7894 19.4889 29.7894 19.4067C29.7894 19.0892 29.7894 18.7668 29.7868 18.4487C29.7886 18.3814 29.776 18.3145 29.7501 18.2532C29.7241 18.192 29.6855 18.1379 29.6371 18.0951C29.5887 18.0523 29.5319 18.022 29.4709 18.0064C29.4099 17.9908 29.3465 17.9904 29.2853 18.0052C29.0874 18.0451 28.9544 18.235 28.9537 18.4781C28.9537 18.7822 28.9537 19.0885 28.9537 19.3923V20.1823C28.9537 20.2106 28.9537 20.239 28.9504 20.2666L28.945 20.3798L28.8715 20.3952L28.8571 20.3988C28.8437 20.4028 28.8299 20.4048 28.816 20.4049H28.6074C28.2787 20.4049 27.9388 20.4067 27.6045 20.4049C27.5687 20.4015 27.5342 20.3894 27.5035 20.3694C27.4729 20.3494 27.4469 20.3221 27.4276 20.2896C27.343 20.146 27.2605 19.997 27.1809 19.8534L27.1043 19.7155L26.2803 18.2386C26.18 18.0591 26.0463 17.9826 25.8691 18.002C25.6381 18.0267 25.4944 18.2102 25.4934 18.481C25.4934 18.8427 25.4934 19.2044 25.4934 19.5661V20.1841C25.4934 20.2135 25.4913 20.2419 25.489 20.2713C25.489 20.285 25.487 20.2982 25.486 20.3133L25.48 20.4099H25.3897C25.3446 20.4099 25.3005 20.4099 25.256 20.4099C25.1607 20.4099 25.0711 20.4078 24.9815 20.4121C24.9186 20.4127 24.8572 20.4331 24.8049 20.4707C24.7526 20.5083 24.7118 20.5616 24.6874 20.6239C24.6612 20.679 24.6485 20.7403 24.6506 20.8021C24.6527 20.8639 24.6695 20.9241 24.6994 20.9769C24.7321 21.0335 24.7775 21.0805 24.8315 21.1134C24.8855 21.1463 24.9462 21.1642 25.0083 21.1654C25.0935 21.1679 25.1781 21.1676 25.2677 21.1654H25.3914H25.4873V21.9338H25.2724C25.1848 21.9338 25.1016 21.9338 25.0173 21.9338C24.8074 21.9378 24.6556 22.0979 24.6559 22.3144C24.6553 22.3801 24.6711 22.4447 24.7017 22.5015C24.7336 22.5594 24.779 22.6072 24.8334 22.6404C24.8878 22.6735 24.9494 22.6907 25.012 22.6904C25.1062 22.6933 25.2035 22.6965 25.2968 22.6904C25.3232 22.6866 25.3501 22.6888 25.3758 22.6968C25.4014 22.7049 25.4252 22.7186 25.4455 22.7371C25.464 22.7587 25.4782 22.7843 25.487 22.8121C25.4959 22.8399 25.4993 22.8694 25.497 22.8987C25.497 23.0125 25.497 23.127 25.497 23.2419C25.497 23.4682 25.497 23.6951 25.497 23.9192C25.497 24.0297 25.497 24.14 25.497 24.2491V24.5623C25.4965 24.6082 25.4982 24.6541 25.502 24.6998C25.5081 24.7649 25.5274 24.8277 25.5587 24.8838C25.59 24.9399 25.6324 24.9879 25.683 25.0244C25.7336 25.0608 25.791 25.0848 25.8512 25.0946C25.9114 25.1044 25.9729 25.0998 26.0312 25.0811C26.2241 25.0194 26.3304 24.8531 26.3321 24.6122C26.3321 24.4122 26.3321 24.2233 26.3321 24.0423C26.3321 23.7551 26.3321 23.4908 26.3321 23.2387C26.3321 23.1234 26.3321 23.0107 26.3321 22.8997C26.3296 22.8712 26.3326 22.8425 26.341 22.8153C26.3493 22.7881 26.3628 22.7631 26.3806 22.7417C26.4209 22.7046 26.4733 22.6861 26.5263 22.6904C26.9078 22.6947 27.2865 22.6947 27.6516 22.6904H27.6559C27.7018 22.6885 27.7473 22.7007 27.7869 22.7258C27.8265 22.7508 27.8585 22.7875 27.8793 22.8315C28.2727 23.5418 28.6294 24.1838 29.0008 24.8373C29.0447 24.9188 29.1059 24.9881 29.1793 25.0395C29.2396 25.0788 29.3086 25.1001 29.3791 25.1013C29.4496 25.1025 29.5191 25.0835 29.5805 25.0463C29.6449 25.0072 29.6984 24.9504 29.7356 24.8818C29.7728 24.8131 29.7923 24.735 29.7921 24.6556C29.7941 24.4689 29.7945 24.2807 29.7951 24.0937C29.7951 23.8757 29.7951 23.6581 29.7951 23.4441C29.7951 23.3191 29.7951 23.1942 29.7951 23.0692V22.6879H30.0365C30.1401 22.6879 30.2371 22.6879 30.3357 22.6879C30.3962 22.6875 30.4556 22.6701 30.5078 22.6372C30.5601 22.6044 30.6033 22.5573 30.6332 22.5008C30.6598 22.4488 30.6751 22.391 30.6777 22.3317C30.6843 22.2359 30.6557 22.1412 30.5981 22.0678C30.5405 21.9943 30.4584 21.9481 30.3695 21.9389ZM26.3355 21.9241V21.164H26.525C26.6377 21.164 26.7513 21.164 26.8647 21.164C26.8897 21.1658 26.914 21.174 26.9355 21.188C26.957 21.2019 26.9751 21.2211 26.9883 21.244L27.0331 21.323L27.215 21.6505L27.3374 21.8703L27.3664 21.9231L26.3355 21.9241ZM28.9473 21.9295H28.6582C28.582 21.9295 28.5057 21.9295 28.4292 21.9295C28.4041 21.9288 28.3795 21.9216 28.3576 21.9086C28.3356 21.8956 28.3168 21.8772 28.3028 21.8548C28.2627 21.7859 28.2239 21.7159 28.1838 21.6451L28.0661 21.4333L27.9324 21.192L27.919 21.1676H28.9483L28.9473 21.9295Z"
        fill="#678087" />
    <path
        d="M27.6016 11.8069C22.411 11.8069 18.2031 16.3269 18.2031 21.9012C18.2031 27.4755 22.411 31.9976 27.6016 31.9976C32.7923 31.9976 37.0005 27.4776 37.0005 21.9012C37.0005 16.3248 32.7927 11.8069 27.6016 11.8069ZM27.6016 30.8342C23.0094 30.8342 19.2863 26.8352 19.2863 21.9012C19.2863 16.9671 23.0094 12.9706 27.6016 12.9706C32.1939 12.9706 35.9174 16.9693 35.9174 21.9012C35.9174 26.8331 32.1936 30.8342 27.6016 30.8342Z"
        fill="#678087" />
</svg>