<svg width="28" height="25" viewBox="0 0 28 25" fill="none" xmlns="http://www.w3.org/2000/svg">
    <g clip-path="url(#clip0_2757_60353)">
        <path
            d="M26.1293 14.7154C25.0963 11.8524 22.3482 10.3066 19.5469 11.0127C17.37 11.5608 15.6474 13.5854 15.3595 15.9327C15.3294 16.1786 15.4711 16.3948 15.6884 16.4339C15.9161 16.4751 16.1083 16.3385 16.1622 16.0921C16.1979 15.9289 16.2222 15.7628 16.2583 15.5996C16.9004 12.6843 19.8254 10.9928 22.4792 12.0014C24.813 12.8882 26.1105 15.4741 25.5064 18.0338C24.8173 20.9539 21.8635 22.612 19.2251 21.5348C17.6819 20.9046 16.7054 19.7067 16.2667 18.0115C16.1867 17.7107 15.992 17.5663 15.7481 17.6334C15.5093 17.6993 15.3964 17.9272 15.4617 18.2113C16.0689 20.8532 18.3204 22.7286 20.8857 22.7294C21.4991 22.7289 22.1084 22.6231 22.6902 22.4162C25.6435 21.3721 27.2411 17.7976 26.1293 14.7154Z"
            fill="url(#paint0_linear_2757_60353)" />
        <path
            d="M26.1293 14.7154C25.0963 11.8524 22.3482 10.3066 19.5469 11.0127C17.37 11.5608 15.6474 13.5854 15.3595 15.9327C15.3294 16.1786 15.4711 16.3948 15.6884 16.4339C15.9161 16.4751 16.1083 16.3385 16.1622 16.0921C16.1979 15.9289 16.2222 15.7628 16.2583 15.5996C16.9004 12.6843 19.8254 10.9928 22.4792 12.0014C24.813 12.8882 26.1105 15.4741 25.5064 18.0338C24.8173 20.9539 21.8635 22.612 19.2251 21.5348C17.6819 20.9046 16.7054 19.7067 16.2667 18.0115C16.1867 17.7107 15.992 17.5663 15.7481 17.6334C15.5093 17.6993 15.3964 17.9272 15.4617 18.2113C16.0689 20.8532 18.3204 22.7286 20.8857 22.7294C21.4991 22.7289 22.1084 22.6231 22.6902 22.4162C25.6435 21.3721 27.2411 17.7976 26.1293 14.7154Z"
            fill="url(#paint1_linear_2757_60353)" />
        <path
            d="M26.1293 14.7154C25.0963 11.8524 22.3482 10.3066 19.5469 11.0127C17.37 11.5608 15.6474 13.5854 15.3595 15.9327C15.3294 16.1786 15.4711 16.3948 15.6884 16.4339C15.9161 16.4751 16.1083 16.3385 16.1622 16.0921C16.1979 15.9289 16.2222 15.7628 16.2583 15.5996C16.9004 12.6843 19.8254 10.9928 22.4792 12.0014C24.813 12.8882 26.1105 15.4741 25.5064 18.0338C24.8173 20.9539 21.8635 22.612 19.2251 21.5348C17.6819 20.9046 16.7054 19.7067 16.2667 18.0115C16.1867 17.7107 15.992 17.5663 15.7481 17.6334C15.5093 17.6993 15.3964 17.9272 15.4617 18.2113C16.0689 20.8532 18.3204 22.7286 20.8857 22.7294C21.4991 22.7289 22.1084 22.6231 22.6902 22.4162C25.6435 21.3721 27.2411 17.7976 26.1293 14.7154Z"
            fill="url(#paint2_linear_2757_60353)" />
        <path
            d="M26.1293 14.7154C25.0963 11.8524 22.3482 10.3066 19.5469 11.0127C17.37 11.5608 15.6474 13.5854 15.3595 15.9327C15.3294 16.1786 15.4711 16.3948 15.6884 16.4339C15.9161 16.4751 16.1083 16.3385 16.1622 16.0921C16.1979 15.9289 16.2222 15.7628 16.2583 15.5996C16.9004 12.6843 19.8254 10.9928 22.4792 12.0014C24.813 12.8882 26.1105 15.4741 25.5064 18.0338C24.8173 20.9539 21.8635 22.612 19.2251 21.5348C17.6819 20.9046 16.7054 19.7067 16.2667 18.0115C16.1867 17.7107 15.992 17.5663 15.7481 17.6334C15.5093 17.6993 15.3964 17.9272 15.4617 18.2113C16.0689 20.8532 18.3204 22.7286 20.8857 22.7294C21.4991 22.7289 22.1084 22.6231 22.6902 22.4162C25.6435 21.3721 27.2411 17.7976 26.1293 14.7154Z"
            fill="url(#paint3_linear_2757_60353)" />
        <path
            d="M26.1293 14.7154C25.0963 11.8524 22.3482 10.3066 19.5469 11.0127C17.37 11.5608 15.6474 13.5854 15.3595 15.9327C15.3294 16.1786 15.4711 16.3948 15.6884 16.4339C15.9161 16.4751 16.1083 16.3385 16.1622 16.0921C16.1979 15.9289 16.2222 15.7628 16.2583 15.5996C16.9004 12.6843 19.8254 10.9928 22.4792 12.0014C24.813 12.8882 26.1105 15.4741 25.5064 18.0338C24.8173 20.9539 21.8635 22.612 19.2251 21.5348C17.6819 20.9046 16.7054 19.7067 16.2667 18.0115C16.1867 17.7107 15.992 17.5663 15.7481 17.6334C15.5093 17.6993 15.3964 17.9272 15.4617 18.2113C16.0689 20.8532 18.3204 22.7286 20.8857 22.7294C21.4991 22.7289 22.1084 22.6231 22.6902 22.4162C25.6435 21.3721 27.2411 17.7976 26.1293 14.7154Z"
            fill="url(#paint4_linear_2757_60353)" />
        <path
            d="M26.1293 14.7154C25.0963 11.8524 22.3482 10.3066 19.5469 11.0127C17.37 11.5608 15.6474 13.5854 15.3595 15.9327C15.3294 16.1786 15.4711 16.3948 15.6884 16.4339C15.9161 16.4751 16.1083 16.3385 16.1622 16.0921C16.1979 15.9289 16.2222 15.7628 16.2583 15.5996C16.9004 12.6843 19.8254 10.9928 22.4792 12.0014C24.813 12.8882 26.1105 15.4741 25.5064 18.0338C24.8173 20.9539 21.8635 22.612 19.2251 21.5348C17.6819 20.9046 16.7054 19.7067 16.2667 18.0115C16.1867 17.7107 15.992 17.5663 15.7481 17.6334C15.5093 17.6993 15.3964 17.9272 15.4617 18.2113C16.0689 20.8532 18.3204 22.7286 20.8857 22.7294C21.4991 22.7289 22.1084 22.6231 22.6902 22.4162C25.6435 21.3721 27.2411 17.7976 26.1293 14.7154Z"
            fill="url(#paint5_linear_2757_60353)" />
        <path
            d="M26.1293 14.7154C25.0963 11.8524 22.3482 10.3066 19.5469 11.0127C17.37 11.5608 15.6474 13.5854 15.3595 15.9327C15.3294 16.1786 15.4711 16.3948 15.6884 16.4339C15.9161 16.4751 16.1083 16.3385 16.1622 16.0921C16.1979 15.9289 16.2222 15.7628 16.2583 15.5996C16.9004 12.6843 19.8254 10.9928 22.4792 12.0014C24.813 12.8882 26.1105 15.4741 25.5064 18.0338C24.8173 20.9539 21.8635 22.612 19.2251 21.5348C17.6819 20.9046 16.7054 19.7067 16.2667 18.0115C16.1867 17.7107 15.992 17.5663 15.7481 17.6334C15.5093 17.6993 15.3964 17.9272 15.4617 18.2113C16.0689 20.8532 18.3204 22.7286 20.8857 22.7294C21.4991 22.7289 22.1084 22.6231 22.6902 22.4162C25.6435 21.3721 27.2411 17.7976 26.1293 14.7154Z"
            fill="url(#paint6_linear_2757_60353)" />
        <path
            d="M26.1293 14.7154C25.0963 11.8524 22.3482 10.3066 19.5469 11.0127C17.37 11.5608 15.6474 13.5854 15.3595 15.9327C15.3294 16.1786 15.4711 16.3948 15.6884 16.4339C15.9161 16.4751 16.1083 16.3385 16.1622 16.0921C16.1979 15.9289 16.2222 15.7628 16.2583 15.5996C16.9004 12.6843 19.8254 10.9928 22.4792 12.0014C24.813 12.8882 26.1105 15.4741 25.5064 18.0338C24.8173 20.9539 21.8635 22.612 19.2251 21.5348C17.6819 20.9046 16.7054 19.7067 16.2667 18.0115C16.1867 17.7107 15.992 17.5663 15.7481 17.6334C15.5093 17.6993 15.3964 17.9272 15.4617 18.2113C16.0689 20.8532 18.3204 22.7286 20.8857 22.7294C21.4991 22.7289 22.1084 22.6231 22.6902 22.4162C25.6435 21.3721 27.2411 17.7976 26.1293 14.7154Z"
            fill="url(#paint7_linear_2757_60353)" />
        <path
            d="M26.1293 14.7154C25.0963 11.8524 22.3482 10.3066 19.5469 11.0127C17.37 11.5608 15.6474 13.5854 15.3595 15.9327C15.3294 16.1786 15.4711 16.3948 15.6884 16.4339C15.9161 16.4751 16.1083 16.3385 16.1622 16.0921C16.1979 15.9289 16.2222 15.7628 16.2583 15.5996C16.9004 12.6843 19.8254 10.9928 22.4792 12.0014C24.813 12.8882 26.1105 15.4741 25.5064 18.0338C24.8173 20.9539 21.8635 22.612 19.2251 21.5348C17.6819 20.9046 16.7054 19.7067 16.2667 18.0115C16.1867 17.7107 15.992 17.5663 15.7481 17.6334C15.5093 17.6993 15.3964 17.9272 15.4617 18.2113C16.0689 20.8532 18.3204 22.7286 20.8857 22.7294C21.4991 22.7289 22.1084 22.6231 22.6902 22.4162C25.6435 21.3721 27.2411 17.7976 26.1293 14.7154Z"
            fill="url(#paint8_linear_2757_60353)" />
        <path
            d="M26.1293 14.7154C25.0963 11.8524 22.3482 10.3066 19.5469 11.0127C17.37 11.5608 15.6474 13.5854 15.3595 15.9327C15.3294 16.1786 15.4711 16.3948 15.6884 16.4339C15.9161 16.4751 16.1083 16.3385 16.1622 16.0921C16.1979 15.9289 16.2222 15.7628 16.2583 15.5996C16.9004 12.6843 19.8254 10.9928 22.4792 12.0014C24.813 12.8882 26.1105 15.4741 25.5064 18.0338C24.8173 20.9539 21.8635 22.612 19.2251 21.5348C17.6819 20.9046 16.7054 19.7067 16.2667 18.0115C16.1867 17.7107 15.992 17.5663 15.7481 17.6334C15.5093 17.6993 15.3964 17.9272 15.4617 18.2113C16.0689 20.8532 18.3204 22.7286 20.8857 22.7294C21.4991 22.7289 22.1084 22.6231 22.6902 22.4162C25.6435 21.3721 27.2411 17.7976 26.1293 14.7154Z"
            fill="url(#paint9_linear_2757_60353)" />
        <path
            d="M26.1293 14.7154C25.0963 11.8524 22.3482 10.3066 19.5469 11.0127C17.37 11.5608 15.6474 13.5854 15.3595 15.9327C15.3294 16.1786 15.4711 16.3948 15.6884 16.4339C15.9161 16.4751 16.1083 16.3385 16.1622 16.0921C16.1979 15.9289 16.2222 15.7628 16.2583 15.5996C16.9004 12.6843 19.8254 10.9928 22.4792 12.0014C24.813 12.8882 26.1105 15.4741 25.5064 18.0338C24.8173 20.9539 21.8635 22.612 19.2251 21.5348C17.6819 20.9046 16.7054 19.7067 16.2667 18.0115C16.1867 17.7107 15.992 17.5663 15.7481 17.6334C15.5093 17.6993 15.3964 17.9272 15.4617 18.2113C16.0689 20.8532 18.3204 22.7286 20.8857 22.7294C21.4991 22.7289 22.1084 22.6231 22.6902 22.4162C25.6435 21.3721 27.2411 17.7976 26.1293 14.7154Z"
            fill="url(#paint10_linear_2757_60353)" />
        <path
            d="M26.1293 14.7154C25.0963 11.8524 22.3482 10.3066 19.5469 11.0127C17.37 11.5608 15.6474 13.5854 15.3595 15.9327C15.3294 16.1786 15.4711 16.3948 15.6884 16.4339C15.9161 16.4751 16.1083 16.3385 16.1622 16.0921C16.1979 15.9289 16.2222 15.7628 16.2583 15.5996C16.9004 12.6843 19.8254 10.9928 22.4792 12.0014C24.813 12.8882 26.1105 15.4741 25.5064 18.0338C24.8173 20.9539 21.8635 22.612 19.2251 21.5348C17.6819 20.9046 16.7054 19.7067 16.2667 18.0115C16.1867 17.7107 15.992 17.5663 15.7481 17.6334C15.5093 17.6993 15.3964 17.9272 15.4617 18.2113C16.0689 20.8532 18.3204 22.7286 20.8857 22.7294C21.4991 22.7289 22.1084 22.6231 22.6902 22.4162C25.6435 21.3721 27.2411 17.7976 26.1293 14.7154Z"
            fill="url(#paint11_linear_2757_60353)" />
        <path
            d="M26.1293 14.7154C25.0963 11.8524 22.3482 10.3066 19.5469 11.0127C17.37 11.5608 15.6474 13.5854 15.3595 15.9327C15.3294 16.1786 15.4711 16.3948 15.6884 16.4339C15.9161 16.4751 16.1083 16.3385 16.1622 16.0921C16.1979 15.9289 16.2222 15.7628 16.2583 15.5996C16.9004 12.6843 19.8254 10.9928 22.4792 12.0014C24.813 12.8882 26.1105 15.4741 25.5064 18.0338C24.8173 20.9539 21.8635 22.612 19.2251 21.5348C17.6819 20.9046 16.7054 19.7067 16.2667 18.0115C16.1867 17.7107 15.992 17.5663 15.7481 17.6334C15.5093 17.6993 15.3964 17.9272 15.4617 18.2113C16.0689 20.8532 18.3204 22.7286 20.8857 22.7294C21.4991 22.7289 22.1084 22.6231 22.6902 22.4162C25.6435 21.3721 27.2411 17.7976 26.1293 14.7154Z"
            fill="url(#paint12_linear_2757_60353)" />
        <path
            d="M26.1293 14.7154C25.0963 11.8524 22.3482 10.3066 19.5469 11.0127C17.37 11.5608 15.6474 13.5854 15.3595 15.9327C15.3294 16.1786 15.4711 16.3948 15.6884 16.4339C15.9161 16.4751 16.1083 16.3385 16.1622 16.0921C16.1979 15.9289 16.2222 15.7628 16.2583 15.5996C16.9004 12.6843 19.8254 10.9928 22.4792 12.0014C24.813 12.8882 26.1105 15.4741 25.5064 18.0338C24.8173 20.9539 21.8635 22.612 19.2251 21.5348C17.6819 20.9046 16.7054 19.7067 16.2667 18.0115C16.1867 17.7107 15.992 17.5663 15.7481 17.6334C15.5093 17.6993 15.3964 17.9272 15.4617 18.2113C16.0689 20.8532 18.3204 22.7286 20.8857 22.7294C21.4991 22.7289 22.1084 22.6231 22.6902 22.4162C25.6435 21.3721 27.2411 17.7976 26.1293 14.7154Z"
            fill="url(#paint13_linear_2757_60353)" />
        <path
            d="M26.1293 14.7154C25.0963 11.8524 22.3482 10.3066 19.5469 11.0127C17.37 11.5608 15.6474 13.5854 15.3595 15.9327C15.3294 16.1786 15.4711 16.3948 15.6884 16.4339C15.9161 16.4751 16.1083 16.3385 16.1622 16.0921C16.1979 15.9289 16.2222 15.7628 16.2583 15.5996C16.9004 12.6843 19.8254 10.9928 22.4792 12.0014C24.813 12.8882 26.1105 15.4741 25.5064 18.0338C24.8173 20.9539 21.8635 22.612 19.2251 21.5348C17.6819 20.9046 16.7054 19.7067 16.2667 18.0115C16.1867 17.7107 15.992 17.5663 15.7481 17.6334C15.5093 17.6993 15.3964 17.9272 15.4617 18.2113C16.0689 20.8532 18.3204 22.7286 20.8857 22.7294C21.4991 22.7289 22.1084 22.6231 22.6902 22.4162C25.6435 21.3721 27.2411 17.7976 26.1293 14.7154Z"
            fill="url(#paint14_linear_2757_60353)" />
        <path
            d="M26.1293 14.7154C25.0963 11.8524 22.3482 10.3066 19.5469 11.0127C17.37 11.5608 15.6474 13.5854 15.3595 15.9327C15.3294 16.1786 15.4711 16.3948 15.6884 16.4339C15.9161 16.4751 16.1083 16.3385 16.1622 16.0921C16.1979 15.9289 16.2222 15.7628 16.2583 15.5996C16.9004 12.6843 19.8254 10.9928 22.4792 12.0014C24.813 12.8882 26.1105 15.4741 25.5064 18.0338C24.8173 20.9539 21.8635 22.612 19.2251 21.5348C17.6819 20.9046 16.7054 19.7067 16.2667 18.0115C16.1867 17.7107 15.992 17.5663 15.7481 17.6334C15.5093 17.6993 15.3964 17.9272 15.4617 18.2113C16.0689 20.8532 18.3204 22.7286 20.8857 22.7294C21.4991 22.7289 22.1084 22.6231 22.6902 22.4162C25.6435 21.3721 27.2411 17.7976 26.1293 14.7154Z"
            fill="url(#paint15_linear_2757_60353)" />
        <path
            d="M26.1293 14.7154C25.0963 11.8524 22.3482 10.3066 19.5469 11.0127C17.37 11.5608 15.6474 13.5854 15.3595 15.9327C15.3294 16.1786 15.4711 16.3948 15.6884 16.4339C15.9161 16.4751 16.1083 16.3385 16.1622 16.0921C16.1979 15.9289 16.2222 15.7628 16.2583 15.5996C16.9004 12.6843 19.8254 10.9928 22.4792 12.0014C24.813 12.8882 26.1105 15.4741 25.5064 18.0338C24.8173 20.9539 21.8635 22.612 19.2251 21.5348C17.6819 20.9046 16.7054 19.7067 16.2667 18.0115C16.1867 17.7107 15.992 17.5663 15.7481 17.6334C15.5093 17.6993 15.3964 17.9272 15.4617 18.2113C16.0689 20.8532 18.3204 22.7286 20.8857 22.7294C21.4991 22.7289 22.1084 22.6231 22.6902 22.4162C25.6435 21.3721 27.2411 17.7976 26.1293 14.7154Z"
            fill="url(#paint16_linear_2757_60353)" />
        <path
            d="M26.1293 14.7154C25.0963 11.8524 22.3482 10.3066 19.5469 11.0127C17.37 11.5608 15.6474 13.5854 15.3595 15.9327C15.3294 16.1786 15.4711 16.3948 15.6884 16.4339C15.9161 16.4751 16.1083 16.3385 16.1622 16.0921C16.1979 15.9289 16.2222 15.7628 16.2583 15.5996C16.9004 12.6843 19.8254 10.9928 22.4792 12.0014C24.813 12.8882 26.1105 15.4741 25.5064 18.0338C24.8173 20.9539 21.8635 22.612 19.2251 21.5348C17.6819 20.9046 16.7054 19.7067 16.2667 18.0115C16.1867 17.7107 15.992 17.5663 15.7481 17.6334C15.5093 17.6993 15.3964 17.9272 15.4617 18.2113C16.0689 20.8532 18.3204 22.7286 20.8857 22.7294C21.4991 22.7289 22.1084 22.6231 22.6902 22.4162C25.6435 21.3721 27.2411 17.7976 26.1293 14.7154Z"
            fill="url(#paint17_linear_2757_60353)" />
        <path
            d="M26.1293 14.7154C25.0963 11.8524 22.3482 10.3066 19.5469 11.0127C17.37 11.5608 15.6474 13.5854 15.3595 15.9327C15.3294 16.1786 15.4711 16.3948 15.6884 16.4339C15.9161 16.4751 16.1083 16.3385 16.1622 16.0921C16.1979 15.9289 16.2222 15.7628 16.2583 15.5996C16.9004 12.6843 19.8254 10.9928 22.4792 12.0014C24.813 12.8882 26.1105 15.4741 25.5064 18.0338C24.8173 20.9539 21.8635 22.612 19.2251 21.5348C17.6819 20.9046 16.7054 19.7067 16.2667 18.0115C16.1867 17.7107 15.992 17.5663 15.7481 17.6334C15.5093 17.6993 15.3964 17.9272 15.4617 18.2113C16.0689 20.8532 18.3204 22.7286 20.8857 22.7294C21.4991 22.7289 22.1084 22.6231 22.6902 22.4162C25.6435 21.3721 27.2411 17.7976 26.1293 14.7154Z"
            fill="url(#paint18_linear_2757_60353)" />
        <path
            d="M26.1293 14.7154C25.0963 11.8524 22.3482 10.3066 19.5469 11.0127C17.37 11.5608 15.6474 13.5854 15.3595 15.9327C15.3294 16.1786 15.4711 16.3948 15.6884 16.4339C15.9161 16.4751 16.1083 16.3385 16.1622 16.0921C16.1979 15.9289 16.2222 15.7628 16.2583 15.5996C16.9004 12.6843 19.8254 10.9928 22.4792 12.0014C24.813 12.8882 26.1105 15.4741 25.5064 18.0338C24.8173 20.9539 21.8635 22.612 19.2251 21.5348C17.6819 20.9046 16.7054 19.7067 16.2667 18.0115C16.1867 17.7107 15.992 17.5663 15.7481 17.6334C15.5093 17.6993 15.3964 17.9272 15.4617 18.2113C16.0689 20.8532 18.3204 22.7286 20.8857 22.7294C21.4991 22.7289 22.1084 22.6231 22.6902 22.4162C25.6435 21.3721 27.2411 17.7976 26.1293 14.7154Z"
            fill="url(#paint19_linear_2757_60353)" />
        <path
            d="M26.1293 14.7154C25.0963 11.8524 22.3482 10.3066 19.5469 11.0127C17.37 11.5608 15.6474 13.5854 15.3595 15.9327C15.3294 16.1786 15.4711 16.3948 15.6884 16.4339C15.9161 16.4751 16.1083 16.3385 16.1622 16.0921C16.1979 15.9289 16.2222 15.7628 16.2583 15.5996C16.9004 12.6843 19.8254 10.9928 22.4792 12.0014C24.813 12.8882 26.1105 15.4741 25.5064 18.0338C24.8173 20.9539 21.8635 22.612 19.2251 21.5348C17.6819 20.9046 16.7054 19.7067 16.2667 18.0115C16.1867 17.7107 15.992 17.5663 15.7481 17.6334C15.5093 17.6993 15.3964 17.9272 15.4617 18.2113C16.0689 20.8532 18.3204 22.7286 20.8857 22.7294C21.4991 22.7289 22.1084 22.6231 22.6902 22.4162C25.6435 21.3721 27.2411 17.7976 26.1293 14.7154Z"
            fill="url(#paint20_linear_2757_60353)" />
        <path
            d="M26.1293 14.7154C25.0963 11.8524 22.3482 10.3066 19.5469 11.0127C17.37 11.5608 15.6474 13.5854 15.3595 15.9327C15.3294 16.1786 15.4711 16.3948 15.6884 16.4339C15.9161 16.4751 16.1083 16.3385 16.1622 16.0921C16.1979 15.9289 16.2222 15.7628 16.2583 15.5996C16.9004 12.6843 19.8254 10.9928 22.4792 12.0014C24.813 12.8882 26.1105 15.4741 25.5064 18.0338C24.8173 20.9539 21.8635 22.612 19.2251 21.5348C17.6819 20.9046 16.7054 19.7067 16.2667 18.0115C16.1867 17.7107 15.992 17.5663 15.7481 17.6334C15.5093 17.6993 15.3964 17.9272 15.4617 18.2113C16.0689 20.8532 18.3204 22.7286 20.8857 22.7294C21.4991 22.7289 22.1084 22.6231 22.6902 22.4162C25.6435 21.3721 27.2411 17.7976 26.1293 14.7154Z"
            fill="url(#paint21_linear_2757_60353)" />
        <path
            d="M26.1293 14.7154C25.0963 11.8524 22.3482 10.3066 19.5469 11.0127C17.37 11.5608 15.6474 13.5854 15.3595 15.9327C15.3294 16.1786 15.4711 16.3948 15.6884 16.4339C15.9161 16.4751 16.1083 16.3385 16.1622 16.0921C16.1979 15.9289 16.2222 15.7628 16.2583 15.5996C16.9004 12.6843 19.8254 10.9928 22.4792 12.0014C24.813 12.8882 26.1105 15.4741 25.5064 18.0338C24.8173 20.9539 21.8635 22.612 19.2251 21.5348C17.6819 20.9046 16.7054 19.7067 16.2667 18.0115C16.1867 17.7107 15.992 17.5663 15.7481 17.6334C15.5093 17.6993 15.3964 17.9272 15.4617 18.2113C16.0689 20.8532 18.3204 22.7286 20.8857 22.7294C21.4991 22.7289 22.1084 22.6231 22.6902 22.4162C25.6435 21.3721 27.2411 17.7976 26.1293 14.7154Z"
            fill="url(#paint22_linear_2757_60353)" />
        <path
            d="M26.1293 14.7154C25.0963 11.8524 22.3482 10.3066 19.5469 11.0127C17.37 11.5608 15.6474 13.5854 15.3595 15.9327C15.3294 16.1786 15.4711 16.3948 15.6884 16.4339C15.9161 16.4751 16.1083 16.3385 16.1622 16.0921C16.1979 15.9289 16.2222 15.7628 16.2583 15.5996C16.9004 12.6843 19.8254 10.9928 22.4792 12.0014C24.813 12.8882 26.1105 15.4741 25.5064 18.0338C24.8173 20.9539 21.8635 22.612 19.2251 21.5348C17.6819 20.9046 16.7054 19.7067 16.2667 18.0115C16.1867 17.7107 15.992 17.5663 15.7481 17.6334C15.5093 17.6993 15.3964 17.9272 15.4617 18.2113C16.0689 20.8532 18.3204 22.7286 20.8857 22.7294C21.4991 22.7289 22.1084 22.6231 22.6902 22.4162C25.6435 21.3721 27.2411 17.7976 26.1293 14.7154Z"
            fill="url(#paint23_linear_2757_60353)" />
        <path
            d="M26.1293 14.7154C25.0963 11.8524 22.3482 10.3066 19.5469 11.0127C17.37 11.5608 15.6474 13.5854 15.3595 15.9327C15.3294 16.1786 15.4711 16.3948 15.6884 16.4339C15.9161 16.4751 16.1083 16.3385 16.1622 16.0921C16.1979 15.9289 16.2222 15.7628 16.2583 15.5996C16.9004 12.6843 19.8254 10.9928 22.4792 12.0014C24.813 12.8882 26.1105 15.4741 25.5064 18.0338C24.8173 20.9539 21.8635 22.612 19.2251 21.5348C17.6819 20.9046 16.7054 19.7067 16.2667 18.0115C16.1867 17.7107 15.992 17.5663 15.7481 17.6334C15.5093 17.6993 15.3964 17.9272 15.4617 18.2113C16.0689 20.8532 18.3204 22.7286 20.8857 22.7294C21.4991 22.7289 22.1084 22.6231 22.6902 22.4162C25.6435 21.3721 27.2411 17.7976 26.1293 14.7154Z"
            fill="url(#paint24_linear_2757_60353)" />
        <path
            d="M26.1293 14.7154C25.0963 11.8524 22.3482 10.3066 19.5469 11.0127C17.37 11.5608 15.6474 13.5854 15.3595 15.9327C15.3294 16.1786 15.4711 16.3948 15.6884 16.4339C15.9161 16.4751 16.1083 16.3385 16.1622 16.0921C16.1979 15.9289 16.2222 15.7628 16.2583 15.5996C16.9004 12.6843 19.8254 10.9928 22.4792 12.0014C24.813 12.8882 26.1105 15.4741 25.5064 18.0338C24.8173 20.9539 21.8635 22.612 19.2251 21.5348C17.6819 20.9046 16.7054 19.7067 16.2667 18.0115C16.1867 17.7107 15.992 17.5663 15.7481 17.6334C15.5093 17.6993 15.3964 17.9272 15.4617 18.2113C16.0689 20.8532 18.3204 22.7286 20.8857 22.7294C21.4991 22.7289 22.1084 22.6231 22.6902 22.4162C25.6435 21.3721 27.2411 17.7976 26.1293 14.7154Z"
            fill="url(#paint25_linear_2757_60353)" />
        <path
            d="M26.1293 14.7154C25.0963 11.8524 22.3482 10.3066 19.5469 11.0127C17.37 11.5608 15.6474 13.5854 15.3595 15.9327C15.3294 16.1786 15.4711 16.3948 15.6884 16.4339C15.9161 16.4751 16.1083 16.3385 16.1622 16.0921C16.1979 15.9289 16.2222 15.7628 16.2583 15.5996C16.9004 12.6843 19.8254 10.9928 22.4792 12.0014C24.813 12.8882 26.1105 15.4741 25.5064 18.0338C24.8173 20.9539 21.8635 22.612 19.2251 21.5348C17.6819 20.9046 16.7054 19.7067 16.2667 18.0115C16.1867 17.7107 15.992 17.5663 15.7481 17.6334C15.5093 17.6993 15.3964 17.9272 15.4617 18.2113C16.0689 20.8532 18.3204 22.7286 20.8857 22.7294C21.4991 22.7289 22.1084 22.6231 22.6902 22.4162C25.6435 21.3721 27.2411 17.7976 26.1293 14.7154Z"
            fill="url(#paint26_linear_2757_60353)" />
        <path d="M3.28074 14.0416V13.7971C3.27922 13.8784 3.27845 13.96 3.28074 14.0416Z"
            fill="url(#paint27_linear_2757_60353)" />
        <path
            d="M26.1293 14.7154C25.0963 11.8524 22.3482 10.3066 19.5469 11.0127C17.37 11.5608 15.6474 13.5854 15.3595 15.9327C15.3294 16.1786 15.4711 16.3948 15.6884 16.4339C15.9161 16.4751 16.1083 16.3385 16.1622 16.0921C16.1979 15.9289 16.2222 15.7628 16.2583 15.5996C16.9004 12.6843 19.8254 10.9928 22.4792 12.0014C24.813 12.8882 26.1105 15.4741 25.5064 18.0338C24.8173 20.9539 21.8635 22.612 19.2251 21.5348C17.6819 20.9046 16.7054 19.7067 16.2667 18.0115C16.1867 17.7107 15.992 17.5663 15.7481 17.6334C15.5093 17.6993 15.3964 17.9272 15.4617 18.2113C16.0689 20.8532 18.3204 22.7286 20.8857 22.7294C21.4991 22.7289 22.1084 22.6231 22.6902 22.4162C25.6435 21.3721 27.2411 17.7976 26.1293 14.7154Z"
            fill="url(#paint28_linear_2757_60353)" />
        <path
            d="M26.1293 14.7154C25.0963 11.8524 22.3482 10.3066 19.5469 11.0127C17.37 11.5608 15.6474 13.5854 15.3595 15.9327C15.3294 16.1786 15.4711 16.3948 15.6884 16.4339C15.9161 16.4751 16.1083 16.3385 16.1622 16.0921C16.1979 15.9289 16.2222 15.7628 16.2583 15.5996C16.9004 12.6843 19.8254 10.9928 22.4792 12.0014C24.813 12.8882 26.1105 15.4741 25.5064 18.0338C24.8173 20.9539 21.8635 22.612 19.2251 21.5348C17.6819 20.9046 16.7054 19.7067 16.2667 18.0115C16.1867 17.7107 15.992 17.5663 15.7481 17.6334C15.5093 17.6993 15.3964 17.9272 15.4617 18.2113C16.0689 20.8532 18.3204 22.7286 20.8857 22.7294C21.4991 22.7289 22.1084 22.6231 22.6902 22.4162C25.6435 21.3721 27.2411 17.7976 26.1293 14.7154Z"
            fill="url(#paint29_linear_2757_60353)" />
        <path
            d="M26.1293 14.7154C25.0963 11.8524 22.3482 10.3066 19.5469 11.0127C17.37 11.5608 15.6474 13.5854 15.3595 15.9327C15.3294 16.1786 15.4711 16.3948 15.6884 16.4339C15.9161 16.4751 16.1083 16.3385 16.1622 16.0921C16.1979 15.9289 16.2222 15.7628 16.2583 15.5996C16.9004 12.6843 19.8254 10.9928 22.4792 12.0014C24.813 12.8882 26.1105 15.4741 25.5064 18.0338C24.8173 20.9539 21.8635 22.612 19.2251 21.5348C17.6819 20.9046 16.7054 19.7067 16.2667 18.0115C16.1867 17.7107 15.992 17.5663 15.7481 17.6334C15.5093 17.6993 15.3964 17.9272 15.4617 18.2113C16.0689 20.8532 18.3204 22.7286 20.8857 22.7294C21.4991 22.7289 22.1084 22.6231 22.6902 22.4162C25.6435 21.3721 27.2411 17.7976 26.1293 14.7154Z"
            fill="url(#paint30_linear_2757_60353)" />
        <path
            d="M26.1293 14.7154C25.0963 11.8524 22.3482 10.3066 19.5469 11.0127C17.37 11.5608 15.6474 13.5854 15.3595 15.9327C15.3294 16.1786 15.4711 16.3948 15.6884 16.4339C15.9161 16.4751 16.1083 16.3385 16.1622 16.0921C16.1979 15.9289 16.2222 15.7628 16.2583 15.5996C16.9004 12.6843 19.8254 10.9928 22.4792 12.0014C24.813 12.8882 26.1105 15.4741 25.5064 18.0338C24.8173 20.9539 21.8635 22.612 19.2251 21.5348C17.6819 20.9046 16.7054 19.7067 16.2667 18.0115C16.1867 17.7107 15.992 17.5663 15.7481 17.6334C15.5093 17.6993 15.3964 17.9272 15.4617 18.2113C16.0689 20.8532 18.3204 22.7286 20.8857 22.7294C21.4991 22.7289 22.1084 22.6231 22.6902 22.4162C25.6435 21.3721 27.2411 17.7976 26.1293 14.7154Z"
            fill="url(#paint31_linear_2757_60353)" />
        <path
            d="M26.1293 14.7154C25.0963 11.8524 22.3482 10.3066 19.5469 11.0127C17.37 11.5608 15.6474 13.5854 15.3595 15.9327C15.3294 16.1786 15.4711 16.3948 15.6884 16.4339C15.9161 16.4751 16.1083 16.3385 16.1622 16.0921C16.1979 15.9289 16.2222 15.7628 16.2583 15.5996C16.9004 12.6843 19.8254 10.9928 22.4792 12.0014C24.813 12.8882 26.1105 15.4741 25.5064 18.0338C24.8173 20.9539 21.8635 22.612 19.2251 21.5348C17.6819 20.9046 16.7054 19.7067 16.2667 18.0115C16.1867 17.7107 15.992 17.5663 15.7481 17.6334C15.5093 17.6993 15.3964 17.9272 15.4617 18.2113C16.0689 20.8532 18.3204 22.7286 20.8857 22.7294C21.4991 22.7289 22.1084 22.6231 22.6902 22.4162C25.6435 21.3721 27.2411 17.7976 26.1293 14.7154Z"
            fill="url(#paint32_linear_2757_60353)" />
        <path
            d="M26.1293 14.7154C25.0963 11.8524 22.3482 10.3066 19.5469 11.0127C17.37 11.5608 15.6474 13.5854 15.3595 15.9327C15.3294 16.1786 15.4711 16.3948 15.6884 16.4339C15.9161 16.4751 16.1083 16.3385 16.1622 16.0921C16.1979 15.9289 16.2222 15.7628 16.2583 15.5996C16.9004 12.6843 19.8254 10.9928 22.4792 12.0014C24.813 12.8882 26.1105 15.4741 25.5064 18.0338C24.8173 20.9539 21.8635 22.612 19.2251 21.5348C17.6819 20.9046 16.7054 19.7067 16.2667 18.0115C16.1867 17.7107 15.992 17.5663 15.7481 17.6334C15.5093 17.6993 15.3964 17.9272 15.4617 18.2113C16.0689 20.8532 18.3204 22.7286 20.8857 22.7294C21.4991 22.7289 22.1084 22.6231 22.6902 22.4162C25.6435 21.3721 27.2411 17.7976 26.1293 14.7154Z"
            fill="url(#paint33_linear_2757_60353)" />
        <path
            d="M26.1293 14.7154C25.0963 11.8524 22.3482 10.3066 19.5469 11.0127C17.37 11.5608 15.6474 13.5854 15.3595 15.9327C15.3294 16.1786 15.4711 16.3948 15.6884 16.4339C15.9161 16.4751 16.1083 16.3385 16.1622 16.0921C16.1979 15.9289 16.2222 15.7628 16.2583 15.5996C16.9004 12.6843 19.8254 10.9928 22.4792 12.0014C24.813 12.8882 26.1105 15.4741 25.5064 18.0338C24.8173 20.9539 21.8635 22.612 19.2251 21.5348C17.6819 20.9046 16.7054 19.7067 16.2667 18.0115C16.1867 17.7107 15.992 17.5663 15.7481 17.6334C15.5093 17.6993 15.3964 17.9272 15.4617 18.2113C16.0689 20.8532 18.3204 22.7286 20.8857 22.7294C21.4991 22.7289 22.1084 22.6231 22.6902 22.4162C25.6435 21.3721 27.2411 17.7976 26.1293 14.7154Z"
            fill="url(#paint34_linear_2757_60353)" />
        <path
            d="M26.1293 14.7154C25.0963 11.8524 22.3482 10.3066 19.5469 11.0127C17.37 11.5608 15.6474 13.5854 15.3595 15.9327C15.3294 16.1786 15.4711 16.3948 15.6884 16.4339C15.9161 16.4751 16.1083 16.3385 16.1622 16.0921C16.1979 15.9289 16.2222 15.7628 16.2583 15.5996C16.9004 12.6843 19.8254 10.9928 22.4792 12.0014C24.813 12.8882 26.1105 15.4741 25.5064 18.0338C24.8173 20.9539 21.8635 22.612 19.2251 21.5348C17.6819 20.9046 16.7054 19.7067 16.2667 18.0115C16.1867 17.7107 15.992 17.5663 15.7481 17.6334C15.5093 17.6993 15.3964 17.9272 15.4617 18.2113C16.0689 20.8532 18.3204 22.7286 20.8857 22.7294C21.4991 22.7289 22.1084 22.6231 22.6902 22.4162C25.6435 21.3721 27.2411 17.7976 26.1293 14.7154Z"
            fill="url(#paint35_linear_2757_60353)" />
        <path
            d="M22.6877 22.4162C22.1059 22.6231 21.4966 22.7289 20.8832 22.7294C18.3169 22.7286 16.0666 20.8532 15.4582 18.2126C15.3929 17.9285 15.5057 17.701 15.7446 17.6347C15.9882 17.5674 16.1832 17.712 16.2617 18.0134C16.7003 19.71 17.6784 20.9065 19.22 21.5367C21.8571 22.6139 24.811 20.9561 25.5014 18.0357C26.1055 15.4751 24.808 12.8893 22.4742 12.0033C19.8211 10.9928 16.8964 12.6843 16.2543 15.6004C16.2181 15.7636 16.1939 15.9297 16.1582 16.0929C16.1043 16.3393 15.9115 16.4759 15.6843 16.4347C15.4675 16.3956 15.3259 16.1794 15.3555 15.9335C15.6449 13.5854 17.3674 11.5608 19.5444 11.0127C22.3457 10.3066 25.0938 11.8524 26.1268 14.7154C27.2386 17.7976 25.641 21.3721 22.6877 22.4162Z"
            fill="url(#paint36_linear_2757_60353)" />
        <path
            d="M25.7801 7.07744C25.7816 6.66199 25.6935 6.25173 25.5226 5.87822C24.981 4.70782 24.097 4.06956 22.8663 4.04694L22.6444 4.04344C21.3496 4.02432 20.0544 4.03751 18.7593 4.04344H18.6802L18.0209 4.03859C17.9065 4.03859 17.88 3.9788 17.8812 3.85681C17.8858 3.26918 17.8888 2.68156 17.8812 2.0942C17.8714 1.31322 17.4299 0.68654 16.7299 0.469211C16.5545 0.419943 16.3735 0.396921 16.1921 0.400807C14.7184 0.394882 12.1709 0.39946 10.6967 0.402961C9.69416 0.404846 9.0187 1.1282 9.01592 2.19304C9.01389 2.74188 9.00934 3.291 9.01794 3.83957C9.02022 3.99173 8.97569 4.04532 8.85451 4.04532H7.14864C7.13397 4.04532 7.11828 4.04532 7.10133 4.04532H6.92425C5.75672 4.03778 4.5887 4.03374 3.42118 4.04532C3.30717 4.04532 3.19307 4.04649 3.07889 4.04882C2.74369 4.05259 2.39583 4.09326 2.07733 4.1999C0.818734 4.6211 0.0236054 5.87176 0.0392904 7.24064C0.0554813 8.59686 0.0430851 9.95363 0.0430851 11.3098C0.0430851 14.3067 0.0382784 17.3038 0.0491568 20.3004C0.0506747 20.6505 0.0906461 21.0154 0.192599 21.3458C0.613564 22.7061 1.69633 23.5126 3.06801 23.5137C7.13903 23.5168 11.2102 23.5168 15.2816 23.5137C15.3422 23.5161 15.403 23.5132 15.4632 23.5051C15.6782 23.4682 15.8267 23.2808 15.8204 23.0613C15.8138 22.8334 15.6464 22.6573 15.4205 22.6439C15.3418 22.6393 15.2623 22.6412 15.1837 22.6412C11.1486 22.6412 7.11365 22.6412 3.07889 22.6412C1.77704 22.6412 0.86503 21.676 0.864018 20.2925C0.861825 17.8316 0.861825 15.3708 0.864018 12.9101C0.864018 12.8457 0.873884 12.7813 0.880968 12.6987C1.8628 13.478 1.96475 13.5203 3.14568 13.6143C3.23903 13.6218 3.27445 13.6587 3.27925 13.7384C3.27977 13.749 3.27977 13.7596 3.27925 13.7702C3.27925 13.7791 3.27925 13.7877 3.27925 13.7972V15.3696C3.27925 15.5839 3.35921 15.7894 3.50155 15.9409C3.64388 16.0924 3.83692 16.1776 4.03821 16.1776H6.44585C6.64714 16.1776 6.84018 16.0924 6.98251 15.9409C7.12484 15.7894 7.2048 15.5839 7.2048 15.3696V14.1809C7.21103 14.0805 7.2123 13.9798 7.2086 13.8793C7.19949 13.6183 7.2086 13.617 7.44084 13.617C9.69239 13.617 12.1463 13.617 14.3966 13.617C14.4313 13.617 14.4659 13.6194 14.5064 13.6224C14.637 13.315 14.7865 13.0171 14.954 12.7307C14.9379 12.7347 14.9216 12.7369 14.9051 12.7372C12.4722 12.745 9.83609 12.7428 7.40289 12.7463C7.26071 12.7463 7.20784 12.6984 7.2048 12.5578C7.2048 12.5503 7.2048 12.5422 7.2048 12.5338C7.2048 12.5255 7.2048 12.5204 7.2048 12.5136C7.21189 12.0103 7.20936 11.5067 7.20607 11.0031C7.20202 10.3333 6.81243 9.91673 6.1825 9.91188C5.5637 9.90784 4.94465 9.91 4.32585 9.91188C3.68276 9.91188 3.2828 10.3371 3.27951 11.0233C3.27951 11.1343 3.27909 11.2452 3.27824 11.3562V12.2153C3.27824 12.328 3.27917 12.4409 3.28103 12.554C3.28147 12.5744 3.28054 12.5947 3.27824 12.6149C3.26686 12.7097 3.21879 12.7452 3.1047 12.7496C1.84787 12.7832 0.874643 11.7981 0.865536 10.4607C0.858199 9.36896 0.85491 8.27746 0.870089 7.18597C0.873843 6.90888 0.919897 6.63429 1.00645 6.37293C1.31003 5.46726 2.08517 4.91868 3.03993 4.91653C5.13919 4.9115 7.23845 4.91069 9.33771 4.9141C13.7916 4.9141 18.2451 4.91635 22.6983 4.92084C23.0019 4.92084 23.3265 4.95719 23.605 5.07434C24.4353 5.42255 24.9096 6.09312 24.9496 7.05132C24.9812 7.81857 24.9564 8.58824 24.9643 9.35684C24.9637 9.47844 24.9874 9.59878 25.0338 9.7099C25.1064 9.87418 25.3071 9.95012 25.471 9.90677C25.665 9.85479 25.7814 9.69132 25.7822 9.44167C25.7844 8.65369 25.7837 7.86561 25.7801 7.07744ZM4.09665 11.7187C4.10752 11.4935 4.10069 11.267 4.09665 11.0411C4.09361 10.8668 4.15761 10.7807 4.33319 10.7823C4.93933 10.7877 5.54565 10.7877 6.15214 10.7823C6.32644 10.7804 6.39197 10.8555 6.3859 11.0365C6.3778 11.2686 6.37755 11.5016 6.3859 11.7335C6.39096 11.8757 6.34567 11.9282 6.20881 11.9252C6.07194 11.9223 5.93685 11.9209 5.801 11.9209C5.61556 11.9209 5.42987 11.9228 5.24443 11.9225C5.059 11.9223 4.87659 11.9206 4.69293 11.9206C4.56138 11.9206 4.43008 11.9206 4.29853 11.9249C4.15736 11.9282 4.0883 11.888 4.09665 11.7187ZM4.09665 13.6604C4.09665 13.4231 4.1017 13.1853 4.09816 12.948C4.09614 12.8032 4.17785 12.797 4.27525 12.7972C4.5973 12.7972 4.91859 12.7972 5.24013 12.7972C5.55586 12.7972 5.87133 12.8034 6.1868 12.7951C6.32543 12.7913 6.38918 12.8268 6.38918 12.9798V14.8628C6.38918 14.9766 6.34673 15.0857 6.27115 15.1662C6.19557 15.2466 6.09306 15.2918 5.98618 15.2918H4.49838C4.3915 15.2918 4.28899 15.2466 4.21342 15.1662C4.13784 15.0857 4.09538 14.9766 4.09538 14.8628L4.09665 13.6604ZM16.869 4.03994C16.1463 4.03536 14.3496 4.03994 13.6271 4.03994H12.185C11.4666 4.03994 10.7483 4.03994 10.0299 4.04344C9.88036 4.04344 9.83128 3.99846 9.83331 3.83634C9.84165 3.28184 9.83331 2.7268 9.83811 2.17176C9.84292 1.61672 10.1518 1.27847 10.679 1.27659C12.1651 1.27309 14.7247 1.2677 16.209 1.27309C16.7603 1.27497 17.0613 1.60864 17.0623 2.19223C17.0623 2.74054 17.057 3.28938 17.0664 3.83742C17.0692 4.00412 17.0158 4.04075 16.869 4.03994Z"
            fill="url(#paint37_linear_2757_60353)" stroke="url(#paint38_linear_2757_60353)" stroke-width="0.0762344"
            stroke-miterlimit="10" />
        <path
            d="M22.6877 22.4162C22.1059 22.6231 21.4966 22.7289 20.8832 22.7294C18.3169 22.7286 16.0666 20.8532 15.4582 18.2126C15.3929 17.9285 15.5057 17.701 15.7446 17.6347C15.9882 17.5674 16.1832 17.712 16.2617 18.0134C16.7003 19.71 17.6784 20.9065 19.22 21.5367C21.8571 22.6139 24.811 20.9561 25.5014 18.0357C26.1055 15.4751 24.808 12.8893 22.4742 12.0033C19.8211 10.9928 16.8964 12.6843 16.2543 15.6004C16.2181 15.7636 16.1939 15.9297 16.1582 16.0929C16.1043 16.3393 15.9115 16.4759 15.6843 16.4347C15.4675 16.3956 15.3259 16.1794 15.3555 15.9335C15.6449 13.5854 17.3674 11.5608 19.5444 11.0127C22.3457 10.3066 25.0938 11.8524 26.1268 14.7154C27.2386 17.7976 25.641 21.3721 22.6877 22.4162Z"
            fill="url(#paint39_linear_2757_60353)" />
        <path
            d="M22.9822 16.8137C22.9184 16.807 22.8541 16.8049 22.79 16.8072C22.7573 16.8072 22.7244 16.8072 22.6918 16.8072C22.6736 16.8072 22.6556 16.8062 22.6379 16.804L22.5484 16.7986V16.2312H22.6212H22.7239C22.7998 16.2312 22.8704 16.2312 22.9423 16.2312C23.0518 16.2277 23.1287 16.1806 23.1763 16.0879C23.1801 16.0807 23.1836 16.0728 23.1869 16.0653C23.2101 16.0172 23.219 15.9628 23.2124 15.9092C23.2059 15.8556 23.1842 15.8055 23.1502 15.7653C23.127 15.7331 23.097 15.7071 23.0627 15.6895C23.0283 15.6719 22.9905 15.6632 22.9524 15.664H22.5433V15.4882C22.5433 15.3584 22.5433 15.2287 22.5433 15.099C22.5433 15.0376 22.5433 14.9762 22.5433 14.9146C22.5433 14.6765 22.5433 14.4347 22.5413 14.196C22.5426 14.1456 22.5331 14.0955 22.5135 14.0495C22.4939 14.0035 22.4646 13.963 22.428 13.9309C22.3914 13.8988 22.3484 13.876 22.3023 13.8643C22.2561 13.8527 22.2081 13.8524 22.1618 13.8635C22.012 13.8933 21.9114 14.0358 21.9109 14.2181C21.9109 14.4462 21.9109 14.676 21.9109 14.9038V15.4963C21.9109 15.5175 21.9109 15.5388 21.9083 15.5595L21.9043 15.6444L21.8486 15.656L21.8377 15.6586C21.8276 15.6616 21.8171 15.6632 21.8066 15.6632H21.6488C21.4001 15.6632 21.1428 15.6646 20.8898 15.6632C20.8628 15.6607 20.8366 15.6516 20.8134 15.6366C20.7902 15.6216 20.7706 15.6011 20.756 15.5768C20.692 15.4691 20.6295 15.3573 20.5693 15.2496L20.5113 15.1462L19.8877 14.0385C19.8118 13.9039 19.7106 13.8465 19.5766 13.861C19.4018 13.8796 19.293 14.0172 19.2922 14.2203C19.2922 14.4916 19.2922 14.7628 19.2922 15.0341V15.4976C19.2922 15.5197 19.2907 15.541 19.2889 15.563C19.2889 15.5733 19.2874 15.5832 19.2866 15.5946L19.2821 15.667H19.2138C19.1796 15.667 19.1462 15.667 19.1126 15.667C19.0405 15.667 18.9727 15.6654 18.9049 15.6686C18.8573 15.6691 18.8108 15.6843 18.7712 15.7126C18.7317 15.7408 18.7007 15.7808 18.6823 15.8275C18.6624 15.8688 18.6529 15.9148 18.6545 15.9611C18.6561 16.0075 18.6688 16.0526 18.6914 16.0922C18.6914 16.0922 18.6914 16.0922 18.6914 16.0922C18.7161 16.1347 18.7505 16.1699 18.7913 16.1946C18.8322 16.2193 18.8782 16.2327 18.9251 16.2336C18.9896 16.2355 19.0537 16.2352 19.1215 16.2336H19.2151H19.2877V16.8099H19.125C19.0587 16.8099 18.9957 16.8099 18.932 16.8099C18.7731 16.8129 18.6582 16.933 18.6585 17.0954C18.658 17.1446 18.67 17.1931 18.6931 17.2357C18.7173 17.2791 18.7516 17.315 18.7928 17.3398C18.834 17.3647 18.8806 17.3776 18.9279 17.3774C18.9993 17.3795 19.0729 17.3819 19.1435 17.3774C19.1635 17.3745 19.1838 17.3761 19.2032 17.3822C19.2226 17.3882 19.2406 17.3985 19.256 17.4124C19.27 17.4286 19.2807 17.4478 19.2874 17.4686C19.2941 17.4895 19.2967 17.5116 19.295 17.5336C19.295 17.6189 19.295 17.7048 19.295 17.791C19.295 17.9607 19.295 18.1309 19.295 18.2989C19.295 18.3819 19.295 18.4645 19.295 18.5464V18.7813C19.2946 18.8157 19.2959 18.8501 19.2988 18.8844C19.3034 18.9332 19.318 18.9803 19.3417 19.0224C19.3654 19.0645 19.3975 19.1005 19.4357 19.1278C19.474 19.1552 19.5175 19.1731 19.563 19.1805C19.6086 19.1879 19.6551 19.1844 19.6993 19.1704C19.8452 19.1241 19.9257 18.9994 19.927 18.8187C19.927 18.6687 19.927 18.527 19.927 18.3913C19.927 18.1759 19.927 17.9776 19.927 17.7886C19.927 17.7021 19.927 17.6176 19.927 17.5344C19.9251 17.513 19.9273 17.4914 19.9337 17.471C19.94 17.4506 19.9502 17.4319 19.9636 17.4159C19.9942 17.388 20.0338 17.3741 20.0739 17.3774C20.3626 17.3806 20.6492 17.3806 20.9255 17.3774H20.9288C20.9635 17.3759 20.9979 17.3851 21.0279 17.4039C21.0578 17.4226 21.0821 17.4502 21.0978 17.4832C21.3955 18.0159 21.6655 18.4974 21.9465 18.9875C21.9798 19.0487 22.026 19.1006 22.0816 19.1392C22.1272 19.1686 22.1794 19.1846 22.2328 19.1855C22.2861 19.1864 22.3387 19.1722 22.3852 19.1443C22.4339 19.115 22.4744 19.0724 22.5026 19.0209C22.5307 18.9694 22.5455 18.9108 22.5453 18.8513C22.5469 18.7112 22.5471 18.5701 22.5476 18.4298C22.5476 18.2663 22.5476 18.1031 22.5476 17.9426C22.5476 17.8489 22.5476 17.7552 22.5476 17.6615V17.3755H22.7303C22.8087 17.3755 22.8821 17.3755 22.9567 17.3755C23.0025 17.3752 23.0474 17.3621 23.0869 17.3375C23.1265 17.3128 23.1592 17.2776 23.1818 17.2352C23.202 17.1962 23.2135 17.1528 23.2155 17.1083C23.2205 17.0365 23.1989 16.9655 23.1553 16.9104C23.1117 16.8553 23.0496 16.8206 22.9822 16.8137ZM19.9295 16.8027V16.2325H20.0729C20.1582 16.2325 20.2442 16.2325 20.33 16.2325C20.3489 16.2339 20.3673 16.2401 20.3836 16.2505C20.3999 16.261 20.4136 16.2754 20.4236 16.2926L20.4575 16.3518L20.5951 16.5974L20.6877 16.7623L20.7097 16.8019L19.9295 16.8027ZM21.906 16.8067H21.6872C21.6295 16.8067 21.5719 16.8067 21.5139 16.8067C21.4949 16.8061 21.4764 16.8008 21.4597 16.791C21.4431 16.7813 21.4289 16.7675 21.4183 16.7507C21.3879 16.699 21.3586 16.6465 21.3282 16.5934L21.2392 16.4345L21.138 16.2535L21.1279 16.2352H21.9068L21.906 16.8067Z"
            fill="url(#paint40_linear_2757_60353)" />
        <path
            d="M20.8878 9.21423C16.9597 9.21423 13.7754 12.6043 13.7754 16.785C13.7754 20.9657 16.9597 24.3573 20.8878 24.3573C24.8159 24.3573 28.0004 20.9673 28.0004 16.785C28.0004 12.6026 24.8161 9.21423 20.8878 9.21423ZM20.8878 23.4848C17.4125 23.4848 14.5951 20.4855 14.5951 16.785C14.5951 13.0844 17.4125 10.0871 20.8878 10.0871C24.363 10.0871 27.1808 13.086 27.1808 16.785C27.1808 20.4839 24.3628 23.4848 20.8878 23.4848Z"
            fill="url(#paint41_linear_2757_60353)" />
    </g>
    <defs>
        <linearGradient id="paint0_linear_2757_60353" x1="15.5939" y1="13.7658" x2="26.601" y2="14.0034"
            gradientUnits="userSpaceOnUse">
            <stop offset="0.452889" stop-color="#FE9730" />
            <stop offset="1" stop-color="#FB5046" />
        </linearGradient>
        <linearGradient id="paint1_linear_2757_60353" x1="15.5939" y1="13.7658" x2="26.601" y2="14.0034"
            gradientUnits="userSpaceOnUse">
            <stop offset="0.452889" stop-color="#FE9730" />
            <stop offset="1" stop-color="#FB5046" />
        </linearGradient>
        <linearGradient id="paint2_linear_2757_60353" x1="15.5939" y1="13.7658" x2="26.601" y2="14.0034"
            gradientUnits="userSpaceOnUse">
            <stop offset="0.452889" stop-color="#FE9730" />
            <stop offset="1" stop-color="#FB5046" />
        </linearGradient>
        <linearGradient id="paint3_linear_2757_60353" x1="15.5939" y1="13.7658" x2="26.601" y2="14.0034"
            gradientUnits="userSpaceOnUse">
            <stop offset="0.452889" stop-color="#FE9730" />
            <stop offset="1" stop-color="#FB5046" />
        </linearGradient>
        <linearGradient id="paint4_linear_2757_60353" x1="15.5939" y1="13.7658" x2="26.601" y2="14.0034"
            gradientUnits="userSpaceOnUse">
            <stop offset="0.452889" stop-color="#FE9730" />
            <stop offset="1" stop-color="#FB5046" />
        </linearGradient>
        <linearGradient id="paint5_linear_2757_60353" x1="15.5939" y1="13.7658" x2="26.601" y2="14.0034"
            gradientUnits="userSpaceOnUse">
            <stop offset="0.452889" stop-color="#FE9730" />
            <stop offset="1" stop-color="#FB5046" />
        </linearGradient>
        <linearGradient id="paint6_linear_2757_60353" x1="15.5939" y1="13.7658" x2="26.601" y2="14.0034"
            gradientUnits="userSpaceOnUse">
            <stop offset="0.452889" stop-color="#FE9730" />
            <stop offset="1" stop-color="#FB5046" />
        </linearGradient>
        <linearGradient id="paint7_linear_2757_60353" x1="15.5939" y1="13.7658" x2="26.601" y2="14.0034"
            gradientUnits="userSpaceOnUse">
            <stop offset="0.452889" stop-color="#FE9730" />
            <stop offset="1" stop-color="#FB5046" />
        </linearGradient>
        <linearGradient id="paint8_linear_2757_60353" x1="15.5939" y1="13.7658" x2="26.601" y2="14.0034"
            gradientUnits="userSpaceOnUse">
            <stop offset="0.452889" stop-color="#FE9730" />
            <stop offset="1" stop-color="#FB5046" />
        </linearGradient>
        <linearGradient id="paint9_linear_2757_60353" x1="15.5939" y1="13.7658" x2="26.601" y2="14.0034"
            gradientUnits="userSpaceOnUse">
            <stop offset="0.452889" stop-color="#FE9730" />
            <stop offset="1" stop-color="#FB5046" />
        </linearGradient>
        <linearGradient id="paint10_linear_2757_60353" x1="15.5939" y1="13.7658" x2="26.601" y2="14.0034"
            gradientUnits="userSpaceOnUse">
            <stop offset="0.452889" stop-color="#FE9730" />
            <stop offset="1" stop-color="#FB5046" />
        </linearGradient>
        <linearGradient id="paint11_linear_2757_60353" x1="15.5939" y1="13.7658" x2="26.601" y2="14.0034"
            gradientUnits="userSpaceOnUse">
            <stop offset="0.452889" stop-color="#FE9730" />
            <stop offset="1" stop-color="#FB5046" />
        </linearGradient>
        <linearGradient id="paint12_linear_2757_60353" x1="15.5939" y1="13.7658" x2="26.601" y2="14.0034"
            gradientUnits="userSpaceOnUse">
            <stop offset="0.452889" stop-color="#FE9730" />
            <stop offset="1" stop-color="#FB5046" />
        </linearGradient>
        <linearGradient id="paint13_linear_2757_60353" x1="15.5939" y1="13.7658" x2="26.601" y2="14.0034"
            gradientUnits="userSpaceOnUse">
            <stop offset="0.452889" stop-color="#FE9730" />
            <stop offset="1" stop-color="#FB5046" />
        </linearGradient>
        <linearGradient id="paint14_linear_2757_60353" x1="15.5939" y1="13.7658" x2="26.601" y2="14.0034"
            gradientUnits="userSpaceOnUse">
            <stop offset="0.452889" stop-color="#FE9730" />
            <stop offset="1" stop-color="#FB5046" />
        </linearGradient>
        <linearGradient id="paint15_linear_2757_60353" x1="15.5939" y1="13.7658" x2="26.601" y2="14.0034"
            gradientUnits="userSpaceOnUse">
            <stop offset="0.452889" stop-color="#FE9730" />
            <stop offset="1" stop-color="#FB5046" />
        </linearGradient>
        <linearGradient id="paint16_linear_2757_60353" x1="15.5939" y1="13.7658" x2="26.601" y2="14.0034"
            gradientUnits="userSpaceOnUse">
            <stop offset="0.452889" stop-color="#FE9730" />
            <stop offset="1" stop-color="#FB5046" />
        </linearGradient>
        <linearGradient id="paint17_linear_2757_60353" x1="15.5939" y1="13.7658" x2="26.601" y2="14.0034"
            gradientUnits="userSpaceOnUse">
            <stop offset="0.452889" stop-color="#FE9730" />
            <stop offset="1" stop-color="#FB5046" />
        </linearGradient>
        <linearGradient id="paint18_linear_2757_60353" x1="15.5939" y1="13.7658" x2="26.601" y2="14.0034"
            gradientUnits="userSpaceOnUse">
            <stop offset="0.452889" stop-color="#FE9730" />
            <stop offset="1" stop-color="#FB5046" />
        </linearGradient>
        <linearGradient id="paint19_linear_2757_60353" x1="15.5939" y1="13.7658" x2="26.601" y2="14.0034"
            gradientUnits="userSpaceOnUse">
            <stop offset="0.452889" stop-color="#FE9730" />
            <stop offset="1" stop-color="#FB5046" />
        </linearGradient>
        <linearGradient id="paint20_linear_2757_60353" x1="15.5939" y1="13.7658" x2="26.601" y2="14.0034"
            gradientUnits="userSpaceOnUse">
            <stop offset="0.452889" stop-color="#FE9730" />
            <stop offset="1" stop-color="#FB5046" />
        </linearGradient>
        <linearGradient id="paint21_linear_2757_60353" x1="15.5939" y1="13.7658" x2="26.601" y2="14.0034"
            gradientUnits="userSpaceOnUse">
            <stop offset="0.452889" stop-color="#FE9730" />
            <stop offset="1" stop-color="#FB5046" />
        </linearGradient>
        <linearGradient id="paint22_linear_2757_60353" x1="15.5939" y1="13.7658" x2="26.601" y2="14.0034"
            gradientUnits="userSpaceOnUse">
            <stop offset="0.452889" stop-color="#FE9730" />
            <stop offset="1" stop-color="#FB5046" />
        </linearGradient>
        <linearGradient id="paint23_linear_2757_60353" x1="15.5939" y1="13.7658" x2="26.601" y2="14.0034"
            gradientUnits="userSpaceOnUse">
            <stop offset="0.452889" stop-color="#FE9730" />
            <stop offset="1" stop-color="#FB5046" />
        </linearGradient>
        <linearGradient id="paint24_linear_2757_60353" x1="15.5939" y1="13.7658" x2="26.601" y2="14.0034"
            gradientUnits="userSpaceOnUse">
            <stop offset="0.452889" stop-color="#FE9730" />
            <stop offset="1" stop-color="#FB5046" />
        </linearGradient>
        <linearGradient id="paint25_linear_2757_60353" x1="15.5939" y1="13.7658" x2="26.601" y2="14.0034"
            gradientUnits="userSpaceOnUse">
            <stop offset="0.452889" stop-color="#FE9730" />
            <stop offset="1" stop-color="#FB5046" />
        </linearGradient>
        <linearGradient id="paint26_linear_2757_60353" x1="15.5939" y1="13.7658" x2="26.601" y2="14.0034"
            gradientUnits="userSpaceOnUse">
            <stop offset="0.452889" stop-color="#FE9730" />
            <stop offset="1" stop-color="#FB5046" />
        </linearGradient>
        <linearGradient id="paint27_linear_2757_60353" x1="3.27933" y1="13.8572" x2="3.28076" y2="13.8572"
            gradientUnits="userSpaceOnUse">
            <stop offset="0.452889" stop-color="#FE9730" />
            <stop offset="1" stop-color="#FB5046" />
        </linearGradient>
        <linearGradient id="paint28_linear_2757_60353" x1="15.5939" y1="13.7658" x2="26.601" y2="14.0034"
            gradientUnits="userSpaceOnUse">
            <stop offset="0.452889" stop-color="#FE9730" />
            <stop offset="1" stop-color="#FB5046" />
        </linearGradient>
        <linearGradient id="paint29_linear_2757_60353" x1="15.5939" y1="13.7658" x2="26.601" y2="14.0034"
            gradientUnits="userSpaceOnUse">
            <stop offset="0.452889" stop-color="#FE9730" />
            <stop offset="1" stop-color="#FB5046" />
        </linearGradient>
        <linearGradient id="paint30_linear_2757_60353" x1="15.5939" y1="13.7658" x2="26.601" y2="14.0034"
            gradientUnits="userSpaceOnUse">
            <stop offset="0.452889" stop-color="#FE9730" />
            <stop offset="1" stop-color="#FB5046" />
        </linearGradient>
        <linearGradient id="paint31_linear_2757_60353" x1="15.5939" y1="13.7658" x2="26.601" y2="14.0034"
            gradientUnits="userSpaceOnUse">
            <stop offset="0.452889" stop-color="#FE9730" />
            <stop offset="1" stop-color="#FB5046" />
        </linearGradient>
        <linearGradient id="paint32_linear_2757_60353" x1="15.5939" y1="13.7658" x2="26.601" y2="14.0034"
            gradientUnits="userSpaceOnUse">
            <stop offset="0.452889" stop-color="#FE9730" />
            <stop offset="1" stop-color="#FB5046" />
        </linearGradient>
        <linearGradient id="paint33_linear_2757_60353" x1="15.5939" y1="13.7658" x2="26.601" y2="14.0034"
            gradientUnits="userSpaceOnUse">
            <stop offset="0.452889" stop-color="#FE9730" />
            <stop offset="1" stop-color="#FB5046" />
        </linearGradient>
        <linearGradient id="paint34_linear_2757_60353" x1="15.5939" y1="13.7658" x2="26.601" y2="14.0034"
            gradientUnits="userSpaceOnUse">
            <stop offset="0.452889" stop-color="#FE9730" />
            <stop offset="1" stop-color="#FB5046" />
        </linearGradient>
        <linearGradient id="paint35_linear_2757_60353" x1="15.5939" y1="13.7658" x2="26.601" y2="14.0034"
            gradientUnits="userSpaceOnUse">
            <stop offset="0.452889" stop-color="#FE9730" />
            <stop offset="1" stop-color="#FB5046" />
        </linearGradient>
        <linearGradient id="paint36_linear_2757_60353" x1="15.5901" y1="13.7658" x2="26.5985" y2="14.0035"
            gradientUnits="userSpaceOnUse">
            <stop offset="0.452889" stop-color="#FE9730" />
            <stop offset="1" stop-color="#FB5046" />
        </linearGradient>
        <linearGradient id="paint37_linear_2757_60353" x1="0.590727" y1="6.08272" x2="26.0488" y2="6.73642"
            gradientUnits="userSpaceOnUse">
            <stop offset="0.452889" stop-color="#FE9730" />
            <stop offset="1" stop-color="#FB5046" />
        </linearGradient>
        <linearGradient id="paint38_linear_2757_60353" x1="0.590727" y1="6.08272" x2="26.0488" y2="6.73642"
            gradientUnits="userSpaceOnUse">
            <stop offset="0.452889" stop-color="#FE9730" />
            <stop offset="1" stop-color="#FB5046" />
        </linearGradient>
        <linearGradient id="paint39_linear_2757_60353" x1="15.5901" y1="13.7658" x2="26.5985" y2="14.0035"
            gradientUnits="userSpaceOnUse">
            <stop offset="0.452889" stop-color="#FE9730" />
            <stop offset="1" stop-color="#FB5046" />
        </linearGradient>
        <linearGradient id="paint40_linear_2757_60353" x1="18.7521" y1="15.1661" x2="23.2644" y2="15.2551"
            gradientUnits="userSpaceOnUse">
            <stop offset="0.452889" stop-color="#FE9730" />
            <stop offset="1" stop-color="#FB5046" />
        </linearGradient>
        <linearGradient id="paint41_linear_2757_60353" x1="14.0802" y1="12.9379" x2="28.1498" y2="13.2427"
            gradientUnits="userSpaceOnUse">
            <stop offset="0.452889" stop-color="#FE9730" />
            <stop offset="1" stop-color="#FB5046" />
        </linearGradient>
        <clipPath id="clip0_2757_60353">
            <rect width="28" height="24" fill="white" transform="translate(0 0.358398)" />
        </clipPath>
    </defs>
</svg>