<svg width="11" height="12" viewBox="0 0 11 12" fill="none" xmlns="http://www.w3.org/2000/svg">
<path d="M0.468021 0.493389C0.537689 0.418289 0.620453 0.358705 0.71157 0.31805C0.802688 0.277396 0.90037 0.25647 0.999021 0.25647C1.09767 0.25647 1.19535 0.277396 1.28647 0.31805C1.37759 0.358705 1.46035 0.418289 1.53002 0.493389L5.49902 4.76263L9.46802 0.493389C9.53775 0.41841 9.62053 0.358934 9.71164 0.318355C9.80275 0.277777 9.9004 0.256892 9.99902 0.256892C10.0976 0.256892 10.1953 0.277777 10.2864 0.318355C10.3775 0.358934 10.4603 0.41841 10.53 0.493389C10.5998 0.568367 10.6551 0.65738 10.6928 0.755344C10.7305 0.853308 10.75 0.958306 10.75 1.06434C10.75 1.17038 10.7305 1.27538 10.6928 1.37334C10.6551 1.4713 10.5998 1.56032 10.53 1.6353L6.55952 5.90293L10.53 10.1706C10.5998 10.2455 10.6551 10.3345 10.6928 10.4325C10.7305 10.5305 10.75 10.6355 10.75 10.7415C10.75 10.8475 10.7305 10.9525 10.6928 11.0505C10.6551 11.1485 10.5998 11.2375 10.53 11.3125C10.4603 11.3874 10.3775 11.4469 10.2864 11.4875C10.1953 11.5281 10.0976 11.549 9.99902 11.549C9.9004 11.549 9.80275 11.5281 9.71164 11.4875C9.62053 11.4469 9.53775 11.3874 9.46802 11.3125L5.49902 7.04322L1.53002 11.3125C1.46029 11.3874 1.37751 11.4469 1.2864 11.4875C1.19529 11.5281 1.09764 11.549 0.999021 11.549C0.900405 11.549 0.802755 11.5281 0.711645 11.4875C0.620536 11.4469 0.537753 11.3874 0.468021 11.3125C0.398289 11.2375 0.342974 11.1485 0.305236 11.0505C0.267497 10.9525 0.248073 10.8475 0.248073 10.7415C0.248073 10.6355 0.267497 10.5305 0.305236 10.4325C0.342974 10.3345 0.398289 10.2455 0.468021 10.1706L4.43852 5.90293L0.468021 1.6353C0.398176 1.56038 0.342762 1.47139 0.304952 1.37342C0.267142 1.27545 0.247681 1.17042 0.247681 1.06434C0.247681 0.958268 0.267142 0.853237 0.304952 0.755263C0.342762 0.65729 0.398176 0.568299 0.468021 0.493389Z" fill="white"/>
</svg>
