<svg width="27" height="24" viewBox="0 0 27 24" fill="none" xmlns="http://www.w3.org/2000/svg">
<path d="M23.0413 4.61012C22.5305 4.09912 21.9241 3.69376 21.2566 3.4172C20.5892 3.14064 19.8738 2.99829 19.1513 2.99829C18.4288 2.99829 17.7134 3.14064 17.0459 3.4172C16.3785 3.69376 15.772 4.09912 15.2613 4.61012L14.2013 5.67012L13.1413 4.61012C12.1096 3.57842 10.7103 2.99883 9.25129 2.99883C7.79226 2.99883 6.39298 3.57842 5.36129 4.61012C4.3296 5.64181 3.75 7.04108 3.75 8.50012C3.75 9.95915 4.3296 11.3584 5.36129 12.3901L6.42129 13.4501L14.2013 21.2301L21.9813 13.4501L23.0413 12.3901C23.5523 11.8794 23.9576 11.2729 24.2342 10.6055C24.5108 9.93801 24.6531 9.2226 24.6531 8.50012C24.6531 7.77763 24.5108 7.06222 24.2342 6.39476C23.9576 5.7273 23.5523 5.12087 23.0413 4.61012V4.61012Z" stroke="#EFEFEF" stroke-opacity="0.9" stroke-width="2" stroke-linecap="round" stroke-linejoin="round"/>
<path d="M3.25 1.5L22.7501 21.5858" stroke="#EFEFEF" stroke-opacity="0.9" stroke-width="2" stroke-linecap="round"/>
</svg>
