<svg width="34" height="34" viewBox="0 0 34 34" fill="none" xmlns="http://www.w3.org/2000/svg">
<path d="M29.4887 12.0835C28.8064 10.3733 27.783 8.81985 26.481 7.51785C25.179 6.21584 23.6256 5.1925 21.9154 4.51016C21.5204 2.14683 19.4737 0.333496 16.9987 0.333496C14.5237 0.333496 12.477 2.14683 12.082 4.51016C10.3716 5.19216 8.81802 6.21538 7.51597 7.51743C6.21392 8.81948 5.1907 10.3731 4.5087 12.0835C2.14536 12.4785 0.332031 14.5252 0.332031 17.0002C0.332031 19.4752 2.14536 21.5218 4.5087 21.9168C5.19104 23.6271 6.21438 25.1805 7.51638 26.4825C8.81839 27.7845 10.3718 28.8078 12.082 29.4902C12.477 31.8535 14.5237 33.6668 16.9987 33.6668C19.4737 33.6668 21.5204 31.8535 21.9154 29.4902C23.6256 28.8078 25.179 27.7845 26.481 26.4825C27.783 25.1805 28.8064 23.6271 29.4887 21.9168C31.852 21.5218 33.6654 19.4752 33.6654 17.0002C33.6654 14.5252 31.852 12.4785 29.4887 12.0835ZM16.9987 3.66683C17.4407 3.66683 17.8646 3.84242 18.1772 4.15499C18.4898 4.46755 18.6654 4.89147 18.6654 5.3335C18.6654 5.4335 18.627 5.51683 18.6087 5.61183C18.5852 5.77267 18.5386 5.92928 18.4704 6.07683C18.447 6.12183 18.4137 6.1585 18.3854 6.20183C18.3113 6.32855 18.2217 6.44556 18.1187 6.55016C18.052 6.61183 17.9687 6.6535 17.892 6.7035C17.802 6.7635 17.7187 6.8335 17.617 6.87516C17.4254 6.9535 17.2187 7.00016 16.9987 7.00016C16.7787 7.00016 16.572 6.9535 16.3804 6.87516C16.2787 6.83516 16.1954 6.76516 16.1054 6.7035C16.0287 6.6535 15.9454 6.61183 15.8787 6.55016C15.7757 6.44556 15.6861 6.32855 15.612 6.20183C15.5837 6.1585 15.5504 6.12183 15.527 6.07683C15.4591 5.92919 15.4125 5.77262 15.3887 5.61183C15.3704 5.51683 15.332 5.4335 15.332 5.3335C15.332 4.89147 15.5076 4.46755 15.8202 4.15499C16.1327 3.84242 16.5567 3.66683 16.9987 3.66683ZM5.33203 15.3335C5.43203 15.3335 5.51536 15.3718 5.61036 15.3902C5.77536 15.4185 5.9337 15.4585 6.07537 15.5285C6.12037 15.5518 6.15703 15.5852 6.20036 15.6135C6.32536 15.6918 6.4487 15.7752 6.5487 15.8802C6.61036 15.9468 6.65203 16.0302 6.70203 16.1068C6.76203 16.1968 6.83203 16.2802 6.8737 16.3818C6.95203 16.5735 6.9987 16.7802 6.9987 17.0002C6.9987 17.2202 6.95203 17.4268 6.8737 17.6185C6.8337 17.7202 6.7637 17.8035 6.70203 17.8935C6.65203 17.9702 6.61036 18.0535 6.5487 18.1202C6.4487 18.2252 6.32536 18.3085 6.20036 18.3868C6.15703 18.4152 6.12037 18.4485 6.07537 18.4718C5.92773 18.5398 5.77115 18.5864 5.61036 18.6102C5.51536 18.6285 5.43203 18.6668 5.33203 18.6668C4.89 18.6668 4.46608 18.4912 4.15352 18.1787C3.84096 17.8661 3.66536 17.4422 3.66536 17.0002C3.66536 16.5581 3.84096 16.1342 4.15352 15.8217C4.46608 15.5091 4.89 15.3335 5.33203 15.3335ZM16.9987 30.3335C16.5567 30.3335 16.1327 30.1579 15.8202 29.8453C15.5076 29.5328 15.332 29.1089 15.332 28.6668C15.332 28.5668 15.3704 28.4835 15.3887 28.3885C15.417 28.2235 15.457 28.0652 15.527 27.9235C15.5504 27.8785 15.5837 27.8418 15.612 27.7985C15.6904 27.6735 15.7737 27.5502 15.8787 27.4502C15.9454 27.3885 16.0287 27.3468 16.1054 27.2968C16.1954 27.2368 16.2787 27.1668 16.3804 27.1252C16.572 27.0468 16.7787 27.0002 16.9987 27.0002C17.2187 27.0002 17.4254 27.0468 17.617 27.1252C17.7187 27.1652 17.802 27.2352 17.892 27.2968C17.9687 27.3468 18.052 27.3885 18.1187 27.4502C18.2237 27.5502 18.307 27.6735 18.3854 27.7985C18.4137 27.8418 18.447 27.8785 18.4704 27.9235C18.5404 28.0652 18.5804 28.2252 18.6087 28.3885C18.627 28.4835 18.6654 28.5668 18.6654 28.6668C18.6654 29.1089 18.4898 29.5328 18.1772 29.8453C17.8646 30.1579 17.4407 30.3335 16.9987 30.3335ZM21.3037 26.1468C21.2937 26.1285 21.2754 26.1152 21.267 26.0985C20.8552 25.4149 20.2861 24.8395 19.607 24.4202C19.517 24.3652 19.4254 24.3202 19.3304 24.2702C19.0713 24.1319 18.8002 24.0176 18.5204 23.9285C18.4137 23.8935 18.307 23.8552 18.197 23.8268C17.8087 23.7318 17.412 23.6668 16.9987 23.6668C16.5854 23.6668 16.1887 23.7318 15.802 23.8285C15.692 23.8568 15.5854 23.8935 15.477 23.9302C15.1979 24.0195 14.9273 24.1339 14.6687 24.2718C14.5754 24.3202 14.482 24.3668 14.392 24.4218C13.713 24.8411 13.1438 25.4165 12.732 26.1002C12.722 26.1185 12.7037 26.1318 12.6954 26.1485C10.5742 25.1373 8.86489 23.428 7.8537 21.3068C7.87203 21.2968 7.88536 21.2785 7.90203 21.2702C8.58567 20.8584 9.16107 20.2892 9.58036 19.6102C9.63536 19.5202 9.68203 19.4268 9.73036 19.3335C9.8687 19.0768 9.98036 18.8068 10.072 18.5252C10.107 18.4168 10.1454 18.3102 10.1737 18.2002C10.267 17.8102 10.332 17.4135 10.332 17.0002C10.332 16.5868 10.267 16.1902 10.1704 15.8035C10.1408 15.6944 10.1068 15.5866 10.0687 15.4802C9.97963 15.2004 9.86527 14.9292 9.72703 14.6702C9.67703 14.5752 9.63203 14.4835 9.57703 14.3935C9.15774 13.7144 8.58234 13.1453 7.8987 12.7335C7.88203 12.7235 7.8687 12.7052 7.85203 12.6952C8.86322 10.574 10.5725 8.86469 12.6937 7.8535C12.7037 7.87016 12.722 7.8835 12.7304 7.90183C13.1437 8.58683 13.7104 9.16016 14.3904 9.58016C14.4804 9.63516 14.5737 9.68183 14.667 9.73016C14.9254 9.8685 15.1937 9.98016 15.477 10.0718C15.5837 10.1068 15.6904 10.1452 15.8004 10.1735C16.1887 10.2685 16.5837 10.3335 16.9987 10.3335C17.5161 10.3265 18.0291 10.2376 18.5187 10.0702C18.802 9.9785 19.0704 9.86683 19.3287 9.7285C19.422 9.68016 19.5154 9.6335 19.6054 9.5785C20.2854 9.1585 20.852 8.58516 21.2654 7.90016C21.2754 7.88183 21.2937 7.8685 21.302 7.85183C23.4232 8.86302 25.1325 10.5723 26.1437 12.6935C26.1254 12.7035 26.112 12.7218 26.0954 12.7302C25.4117 13.142 24.8363 13.7111 24.417 14.3902C24.362 14.4802 24.3154 14.5735 24.267 14.6668C24.1287 14.9252 24.017 15.1935 23.9254 15.4768C23.8904 15.5835 23.852 15.6902 23.8237 15.8002C23.7236 16.1925 23.6705 16.5953 23.6654 17.0002C23.6723 17.5176 23.7612 18.0306 23.9287 18.5202C24.0204 18.8035 24.132 19.0718 24.2704 19.3302C24.3187 19.4235 24.3654 19.5168 24.4204 19.6068C24.8404 20.2868 25.4137 20.8535 26.0987 21.2668C26.117 21.2768 26.1304 21.2952 26.147 21.3035C25.1363 23.426 23.4262 25.1361 21.3037 26.1468ZM28.6654 18.6668C28.5654 18.6668 28.482 18.6285 28.387 18.6102C28.2262 18.5866 28.0696 18.54 27.922 18.4718C27.877 18.4485 27.8404 18.4152 27.797 18.3868C27.6703 18.3127 27.5533 18.2232 27.4487 18.1202C27.387 18.0535 27.3454 17.9702 27.2954 17.8935C27.2354 17.8035 27.1654 17.7202 27.1237 17.6185C27.0454 17.4268 26.9987 17.2202 26.9987 17.0002C26.9987 16.7802 27.0454 16.5735 27.1237 16.3818C27.1637 16.2802 27.2337 16.1968 27.2954 16.1068C27.3454 16.0302 27.387 15.9468 27.4487 15.8802C27.5487 15.7752 27.672 15.6918 27.797 15.6135C27.8404 15.5852 27.877 15.5518 27.922 15.5285C28.0637 15.4585 28.2237 15.4185 28.387 15.3902C28.482 15.3718 28.5654 15.3335 28.6654 15.3335C29.1074 15.3335 29.5313 15.5091 29.8439 15.8217C30.1564 16.1342 30.332 16.5581 30.332 17.0002C30.332 17.4422 30.1564 17.8661 29.8439 18.1787C29.5313 18.4912 29.1074 18.6668 28.6654 18.6668Z" fill="url(#paint0_linear_2361_1501)"/>
<defs>
<linearGradient id="paint0_linear_2361_1501" x1="1.04632" y1="8.53022" x2="34.0132" y2="9.29037" gradientUnits="userSpaceOnUse">
<stop offset="0.452889" stop-color="#FE9730"/>
<stop offset="1" stop-color="#FB5046"/>
</linearGradient>
</defs>
</svg>
