<svg width="34" height="34" viewBox="0 0 34 34" fill="none" xmlns="http://www.w3.org/2000/svg">
<path d="M29.49 12.0833C28.8077 10.373 27.7844 8.81961 26.4824 7.5176C25.1803 6.2156 23.6269 5.19226 21.9167 4.50992C21.5217 2.14659 19.475 0.333252 17 0.333252C14.525 0.333252 12.4784 2.14659 12.0834 4.50992C10.373 5.19192 8.81936 6.21514 7.51731 7.51719C6.21526 8.81924 5.19204 10.3728 4.51004 12.0833C2.14671 12.4783 0.333374 14.5249 0.333374 16.9999C0.333374 19.4749 2.14671 21.5216 4.51004 21.9166C5.19238 23.6268 6.21572 25.1802 7.51773 26.4822C8.81973 27.7842 10.3732 28.8076 12.0834 29.4899C12.4784 31.8533 14.525 33.6666 17 33.6666C19.475 33.6666 21.5217 31.8533 21.9167 29.4899C23.6269 28.8076 25.1803 27.7842 26.4824 26.4822C27.7844 25.1802 28.8077 23.6268 29.49 21.9166C31.8534 21.5216 33.6667 19.4749 33.6667 16.9999C33.6667 14.5249 31.8534 12.4783 29.49 12.0833ZM17 3.66659C17.4421 3.66659 17.866 3.84218 18.1786 4.15474C18.4911 4.4673 18.6667 4.89122 18.6667 5.33325C18.6667 5.43325 18.6284 5.51659 18.61 5.61159C18.5865 5.77243 18.5399 5.92904 18.4717 6.07659C18.4484 6.12159 18.415 6.15825 18.3867 6.20159C18.3126 6.32831 18.223 6.44531 18.12 6.54992C18.0534 6.61159 17.97 6.65325 17.8934 6.70325C17.8034 6.76325 17.72 6.83325 17.6184 6.87492C17.4267 6.95325 17.22 6.99992 17 6.99992C16.78 6.99992 16.5734 6.95325 16.3817 6.87492C16.28 6.83492 16.1967 6.76492 16.1067 6.70325C16.03 6.65325 15.9467 6.61159 15.88 6.54992C15.7771 6.44531 15.6875 6.32831 15.6134 6.20159C15.585 6.15825 15.5517 6.12159 15.5284 6.07659C15.4604 5.92895 15.4138 5.77237 15.39 5.61159C15.3717 5.51659 15.3334 5.43325 15.3334 5.33325C15.3334 4.89122 15.509 4.4673 15.8215 4.15474C16.1341 3.84218 16.558 3.66659 17 3.66659ZM5.33337 15.3333C5.43337 15.3333 5.51671 15.3716 5.61171 15.3899C5.77671 15.4183 5.93504 15.4583 6.07671 15.5283C6.12171 15.5516 6.15837 15.5849 6.20171 15.6133C6.32671 15.6916 6.45004 15.7749 6.55004 15.8799C6.61171 15.9466 6.65337 16.0299 6.70337 16.1066C6.76337 16.1966 6.83337 16.2799 6.87504 16.3816C6.95337 16.5733 7.00004 16.7799 7.00004 16.9999C7.00004 17.2199 6.95337 17.4266 6.87504 17.6183C6.83504 17.7199 6.76504 17.8033 6.70337 17.8933C6.65337 17.9699 6.61171 18.0533 6.55004 18.1199C6.45004 18.2249 6.32671 18.3083 6.20171 18.3866C6.15837 18.4149 6.12171 18.4483 6.07671 18.4716C5.92907 18.5396 5.77249 18.5861 5.61171 18.6099C5.51671 18.6283 5.43337 18.6666 5.33337 18.6666C4.89135 18.6666 4.46742 18.491 4.15486 18.1784C3.8423 17.8659 3.66671 17.4419 3.66671 16.9999C3.66671 16.5579 3.8423 16.134 4.15486 15.8214C4.46742 15.5088 4.89135 15.3333 5.33337 15.3333ZM17 30.3333C16.558 30.3333 16.1341 30.1577 15.8215 29.8451C15.509 29.5325 15.3334 29.1086 15.3334 28.6666C15.3334 28.5666 15.3717 28.4833 15.39 28.3883C15.4184 28.2233 15.4584 28.0649 15.5284 27.9233C15.5517 27.8783 15.585 27.8416 15.6134 27.7983C15.6917 27.6733 15.775 27.5499 15.88 27.4499C15.9467 27.3883 16.03 27.3466 16.1067 27.2966C16.1967 27.2366 16.28 27.1666 16.3817 27.1249C16.5734 27.0466 16.78 26.9999 17 26.9999C17.22 26.9999 17.4267 27.0466 17.6184 27.1249C17.72 27.1649 17.8034 27.2349 17.8934 27.2966C17.97 27.3466 18.0534 27.3883 18.12 27.4499C18.225 27.5499 18.3084 27.6733 18.3867 27.7983C18.415 27.8416 18.4484 27.8783 18.4717 27.9233C18.5417 28.0649 18.5817 28.2249 18.61 28.3883C18.6284 28.4833 18.6667 28.5666 18.6667 28.6666C18.6667 29.1086 18.4911 29.5325 18.1786 29.8451C17.866 30.1577 17.4421 30.3333 17 30.3333ZM21.305 26.1466C21.295 26.1283 21.2767 26.1149 21.2684 26.0983C20.8566 25.4146 20.2874 24.8392 19.6084 24.4199C19.5184 24.3649 19.4267 24.3199 19.3317 24.2699C19.0726 24.1317 18.8015 24.0173 18.5217 23.9283C18.415 23.8933 18.3084 23.8549 18.1984 23.8266C17.81 23.7316 17.4134 23.6666 17 23.6666C16.5867 23.6666 16.19 23.7316 15.8034 23.8283C15.6934 23.8566 15.5867 23.8933 15.4784 23.9299C15.1992 24.0193 14.9287 24.1337 14.67 24.2716C14.5767 24.3199 14.4834 24.3666 14.3934 24.4216C13.7143 24.8409 13.1452 25.4163 12.7334 26.0999C12.7234 26.1183 12.705 26.1316 12.6967 26.1483C10.5755 25.1371 8.86623 23.4277 7.85504 21.3066C7.87337 21.2966 7.88671 21.2783 7.90337 21.2699C8.58701 20.8581 9.16242 20.289 9.58171 19.6099C9.63671 19.5199 9.68337 19.4266 9.73171 19.3333C9.87004 19.0766 9.98171 18.8066 10.0734 18.5249C10.1084 18.4166 10.1467 18.3099 10.175 18.1999C10.2684 17.8099 10.3334 17.4133 10.3334 16.9999C10.3334 16.5866 10.2684 16.1899 10.1717 15.8033C10.1421 15.6942 10.1082 15.5863 10.07 15.4799C9.98098 15.2001 9.86662 14.929 9.72837 14.6699C9.67837 14.5749 9.63337 14.4833 9.57837 14.3933C9.15908 13.7142 8.58368 13.1451 7.90004 12.7333C7.88337 12.7233 7.87004 12.7049 7.85337 12.6949C8.86456 10.5738 10.5739 8.86444 12.695 7.85325C12.705 7.86992 12.7234 7.88325 12.7317 7.90159C13.145 8.58659 13.7117 9.15992 14.3917 9.57992C14.4817 9.63492 14.575 9.68159 14.6684 9.72992C14.9267 9.86825 15.195 9.97992 15.4784 10.0716C15.585 10.1066 15.6917 10.1449 15.8017 10.1733C16.19 10.2683 16.585 10.3333 17 10.3333C17.5174 10.3263 18.0305 10.2374 18.52 10.0699C18.8034 9.97825 19.0717 9.86659 19.33 9.72825C19.4234 9.67992 19.5167 9.63325 19.6067 9.57825C20.2867 9.15825 20.8534 8.58492 21.2667 7.89992C21.2767 7.88159 21.295 7.86825 21.3034 7.85159C23.4245 8.86277 25.1339 10.5721 26.145 12.6933C26.1267 12.7033 26.1134 12.7216 26.0967 12.7299C25.4131 13.1417 24.8377 13.7108 24.4184 14.3899C24.3634 14.4799 24.3167 14.5733 24.2684 14.6666C24.13 14.9249 24.0184 15.1933 23.9267 15.4766C23.8917 15.5833 23.8534 15.6899 23.825 15.7999C23.725 16.1922 23.6718 16.5951 23.6667 16.9999C23.6737 17.5173 23.7626 18.0303 23.93 18.5199C24.0217 18.8033 24.1334 19.0716 24.2717 19.3299C24.32 19.4233 24.3667 19.5166 24.4217 19.6066C24.8417 20.2866 25.415 20.8533 26.1 21.2666C26.1184 21.2766 26.1317 21.2949 26.1484 21.3033C25.1376 23.4257 23.4275 25.1359 21.305 26.1466ZM28.6667 18.6666C28.5667 18.6666 28.4834 18.6283 28.3884 18.6099C28.2275 18.5864 28.0709 18.5398 27.9234 18.4716C27.8784 18.4483 27.8417 18.4149 27.7984 18.3866C27.6717 18.3125 27.5546 18.2229 27.45 18.1199C27.3884 18.0533 27.3467 17.9699 27.2967 17.8933C27.2367 17.8033 27.1667 17.7199 27.125 17.6183C27.0467 17.4266 27 17.2199 27 16.9999C27 16.7799 27.0467 16.5733 27.125 16.3816C27.165 16.2799 27.235 16.1966 27.2967 16.1066C27.3467 16.0299 27.3884 15.9466 27.45 15.8799C27.55 15.7749 27.6734 15.6916 27.7984 15.6133C27.8417 15.5849 27.8784 15.5516 27.9234 15.5283C28.065 15.4583 28.225 15.4183 28.3884 15.3899C28.4834 15.3716 28.5667 15.3333 28.6667 15.3333C29.1087 15.3333 29.5327 15.5088 29.8452 15.8214C30.1578 16.134 30.3334 16.5579 30.3334 16.9999C30.3334 17.4419 30.1578 17.8659 29.8452 18.1784C29.5327 18.491 29.1087 18.6666 28.6667 18.6666Z" fill="white" fill-opacity="0.4"/>
</svg>
