<svg width="16" height="20" viewBox="0 0 16 20" fill="none" xmlns="http://www.w3.org/2000/svg">
<path d="M1 19.3754V19.375V2.5C1 1.96957 1.21071 1.46086 1.58579 1.08579C1.96086 0.710714 2.46957 0.5 3 0.5H13C13.5304 0.5 14.0391 0.710714 14.4142 1.08579C14.7893 1.46086 15 1.96957 15 2.5V19.375V19.3754C15 19.3971 14.9944 19.4184 14.9836 19.4373L15.4182 19.6845L14.9836 19.4373C14.9729 19.4561 14.9574 19.4719 14.9388 19.483L15.1939 19.913L14.9388 19.483C14.9201 19.494 14.8989 19.5001 14.8772 19.5004C14.8555 19.5008 14.834 19.4955 14.815 19.4851L14.8145 19.4848L8.23948 15.8973L8 15.7667L7.76052 15.8973L1.18552 19.4848L1.185 19.4851C1.16596 19.4955 1.14453 19.5008 1.12283 19.5004C1.10112 19.5001 1.07989 19.494 1.06122 19.483L0.806602 19.9122L1.06122 19.483C1.04255 19.4719 1.02709 19.4561 1.01636 19.4373C1.00562 19.4184 0.999984 19.3971 1 19.3754Z" stroke="#DFDFDF"/>
</svg>
