<svg width="20" height="31" viewBox="0 0 20 31" fill="none" xmlns="http://www.w3.org/2000/svg">
<path d="M4.03114 10.0223C4.13684 9.44654 4.43888 8.92523 4.8858 8.54718C4.8858 8.54718 5.73114 7.82051 5.59469 6.84495M3.50225 27.1703C5.04847 28.7752 7.35558 29.6041 9.72091 29.6041C11.9676 29.6041 14.48 28.7316 16.0502 27.1738L3.50225 27.1703ZM3.44891 25.3481C3.44891 25.3481 -1.23153 20.3698 3.24714 13.8014C3.24714 13.8014 3.33469 15.6058 3.80491 16.7267C4.02003 17.1872 4.34358 17.5965 4.84891 17.5965C5.44225 17.5965 5.92358 17.1978 5.92358 16.4543V16.0454C5.97025 14.6681 5.69025 12.6387 7.51025 8.4054C7.51025 8.4054 10.6378 10.0872 9.28447 1.91162C9.28447 1.91162 15.8978 6.55251 15.6294 14.4525C15.6294 15.0165 16.0596 15.4738 16.5902 15.4738C17.1209 15.4738 17.5507 15.0165 17.5507 14.4525C17.584 14.5121 20.3605 20.265 16.4334 25.3481H3.44891Z" stroke="#33CA5F" stroke-width="2" stroke-miterlimit="10" stroke-linecap="round" stroke-linejoin="round"/>
</svg>
