<svg width="34" height="34" viewBox="0 0 34 34" fill="none" xmlns="http://www.w3.org/2000/svg">
<path d="M18.1839 0.816728C18.0289 0.660514 17.8446 0.536523 17.6415 0.451909C17.4384 0.367294 17.2206 0.32373 17.0005 0.32373C16.7805 0.32373 16.5627 0.367294 16.3596 0.451909C16.1565 0.536523 15.9721 0.660514 15.8172 0.816728L0.817216 15.8167C0.661002 15.9717 0.537011 16.156 0.452397 16.3591C0.367782 16.5622 0.324219 16.78 0.324219 17.0001C0.324219 17.2201 0.367782 17.4379 0.452397 17.641C0.537011 17.8441 0.661002 18.0285 0.817216 18.1834C0.972949 18.3379 1.15764 18.4601 1.3607 18.543C1.56377 18.626 1.7812 18.668 2.00055 18.6667H3.66722V30.3334C3.66722 31.2175 4.0184 32.0653 4.64353 32.6904C5.26865 33.3155 6.11649 33.6667 7.00055 33.6667H27.0005C27.8846 33.6667 28.7324 33.3155 29.3576 32.6904C29.9827 32.0653 30.3339 31.2175 30.3339 30.3334V18.6667H32.0005C32.4426 18.6667 32.8665 18.4911 33.1791 18.1786C33.4916 17.866 33.6672 17.4421 33.6672 17.0001C33.6685 16.7807 33.6264 16.5633 33.5435 16.3602C33.4606 16.1572 33.3383 15.9725 33.1839 15.8167L18.1839 0.816728ZM7.00055 30.3334V14.3501L17.0005 4.35006L27.0005 14.3501V30.3334H7.00055Z" fill="#678087"/>
</svg>
