<svg width="18" height="18" viewBox="0 0 18 18" fill="none" xmlns="http://www.w3.org/2000/svg">
<path d="M9.53245 1.71794C9.46273 1.64765 9.37978 1.59185 9.28839 1.55377C9.19699 1.5157 9.09896 1.49609 8.99995 1.49609C8.90094 1.49609 8.80292 1.5157 8.71152 1.55377C8.62013 1.59185 8.53718 1.64765 8.46745 1.71794L1.71745 8.46794C1.64716 8.53766 1.59136 8.62062 1.55329 8.71201C1.51521 8.8034 1.49561 8.90143 1.49561 9.00044C1.49561 9.09945 1.51521 9.19748 1.55329 9.28888C1.59136 9.38027 1.64716 9.46322 1.71745 9.53294C1.78753 9.60245 1.87065 9.65745 1.96202 9.69477C2.0534 9.73209 2.15125 9.75101 2.24995 9.75044H2.99995V15.0004C2.99995 15.3983 3.15799 15.7798 3.43929 16.0611C3.7206 16.3424 4.10213 16.5004 4.49995 16.5004H13.5C13.8978 16.5004 14.2793 16.3424 14.5606 16.0611C14.8419 15.7798 15 15.3983 15 15.0004V9.75044H15.75C15.9489 9.75044 16.1396 9.67142 16.2803 9.53077C16.4209 9.39012 16.5 9.19935 16.5 9.00044C16.5005 8.90174 16.4816 8.80389 16.4443 8.71251C16.407 8.62113 16.352 8.53802 16.2825 8.46794L9.53245 1.71794ZM4.49995 15.0004V7.80794L8.99995 3.30794L13.5 7.80794V15.0004H4.49995Z" fill="url(#paint0_linear_3205_29783)"/>
<defs>
<linearGradient id="paint0_linear_3205_29783" x1="1.81713" y1="5.18569" x2="16.6566" y2="5.52786" gradientUnits="userSpaceOnUse">
<stop offset="0.452889" stop-color="#FE9730"/>
<stop offset="1" stop-color="#FB5046"/>
</linearGradient>
</defs>
</svg>
