<svg width="16" height="24" viewBox="0 0 16 24" fill="none" xmlns="http://www.w3.org/2000/svg">
<path d="M15.1773 10.966C15.1694 10.9814 15.1602 10.9968 15.1496 11.012C15.1093 11.0698 15.0591 11.1091 15.0124 11.1337C14.9261 11.1791 14.8559 11.1741 14.8326 11.1711C14.804 11.1674 14.7794 11.1584 14.756 11.1436C14.7369 11.1315 14.7018 11.1046 14.6724 11.0547L15.1773 10.966ZM15.1773 10.966C15.1825 10.9784 15.1878 10.9909 15.1932 11.0037L15.1773 10.966ZM2.47229 21.6343L2.42666 21.61C2.43279 21.595 2.43861 21.5802 2.44415 21.5655L2.44416 21.5655L2.44546 21.562C2.66273 20.9736 2.50063 20.3532 2.15956 19.9061L2.15945 19.906C1.73561 19.3508 0.91339 18.1004 0.61325 16.4542C0.340797 14.9598 0.492702 13.1147 1.81619 11.1239C1.84451 11.4131 1.8906 11.7465 1.9633 12.0756C2.03713 12.4097 2.1433 12.7625 2.29964 13.0658C2.45162 13.3607 2.68511 13.6749 3.04748 13.8272C3.85395 14.1662 4.76525 13.5801 4.76525 12.5855V12.2333C4.77281 12.0102 4.76406 11.7621 4.75522 11.5111C4.75149 11.4053 4.74774 11.299 4.74519 11.1939C4.73612 10.8197 4.73885 10.4029 4.79393 9.91548C4.89954 8.98103 5.20147 7.75355 6.02187 6.07391C6.17711 6.10688 6.37477 6.13143 6.58475 6.10428C6.95544 6.05636 7.31976 5.85493 7.57856 5.42019C7.82014 5.01437 7.95627 4.42942 7.98094 3.6194C8.00254 2.90996 7.93939 1.99264 7.76003 0.80752C9.52653 2.29894 13.0576 5.84013 12.8793 10.7974L12.8789 10.8063V10.8153C12.8789 11.1284 12.9445 11.4278 13.1517 11.6608C13.3522 11.8862 13.6154 11.9675 13.8063 12.0111L13.8065 12.0112C14.0256 12.0612 14.2452 12.0679 14.4524 12.0043C14.6532 11.9427 14.807 11.8259 14.9187 11.6867C15.1803 12.4394 15.4573 13.5404 15.4955 14.7895C15.5469 16.4686 15.1674 18.3927 13.7627 20.1163C13.6432 20.2404 13.5789 20.3879 13.5414 20.5038C13.4991 20.6347 13.4763 20.7726 13.4627 20.8972C13.4378 21.1275 13.4391 21.375 13.44 21.5507C13.44 21.5595 13.44 21.5682 13.4401 21.5767C13.4229 21.591 13.3972 21.6112 13.3564 21.6423C13.35 21.6472 13.3433 21.6522 13.3364 21.6575C13.2768 21.7028 13.199 21.762 13.1109 21.8354C12.432 22.4009 10.6168 23.5 7.89888 23.5C4.5839 23.5 3.03442 22.1309 2.53495 21.6896C2.52863 21.684 2.52247 21.6786 2.51649 21.6733L2.47229 21.6343ZM2.35614 21.5544C2.35521 21.5533 2.35481 21.5527 2.35482 21.5527C2.35484 21.5526 2.35532 21.5532 2.35614 21.5544Z" stroke="#858585"/>
</svg>
