<svg width="24" height="24" viewBox="0 0 24 24" fill="none" xmlns="http://www.w3.org/2000/svg">
<path d="M16.8045 8.27548C17.401 8.27548 17.8845 7.79195 17.8845 7.19548C17.8845 6.59901 17.401 6.11548 16.8045 6.11548C16.208 6.11548 15.7245 6.59901 15.7245 7.19548C15.7245 7.79195 16.208 8.27548 16.8045 8.27548Z" fill="#14161D"/>
<path d="M12 7.37848C11.086 7.37848 10.1925 7.64952 9.43247 8.15734C8.67247 8.66516 8.08012 9.38694 7.73033 10.2314C7.38054 11.0759 7.28902 12.0051 7.46734 12.9016C7.64566 13.7981 8.08582 14.6215 8.73215 15.2679C9.37848 15.9142 10.2019 16.3544 11.0984 16.5327C11.9949 16.711 12.9241 16.6195 13.7686 16.2697C14.6131 15.9199 15.3349 15.3275 15.8427 14.5675C16.3505 13.8075 16.6215 12.914 16.6215 12C16.6215 10.7743 16.1346 9.59878 15.2679 8.73208C14.4012 7.86539 13.2257 7.37848 12 7.37848ZM12 15C11.4067 15 10.8267 14.824 10.3333 14.4944C9.83998 14.1647 9.45547 13.6962 9.2284 13.148C9.00134 12.5999 8.94193 11.9967 9.05769 11.4147C9.17344 10.8328 9.45916 10.2982 9.87872 9.87866C10.2983 9.4591 10.8328 9.17338 11.4148 9.05762C11.9967 8.94187 12.5999 9.00128 13.1481 9.22834C13.6963 9.4554 14.1648 9.83992 14.4945 10.3333C14.8241 10.8266 15 11.4066 15 12C15 12.7956 14.684 13.5587 14.1214 14.1213C13.5588 14.6839 12.7957 15 12 15Z" fill="#14161D"/>
<path d="M12 4.6215C14.403 4.6215 14.688 4.6305 15.6368 4.674C16.2074 4.68077 16.7726 4.78555 17.3077 4.98375C17.696 5.13352 18.0486 5.36291 18.3428 5.65716C18.6371 5.95141 18.8665 6.304 19.0163 6.69225C19.2145 7.2274 19.3192 7.79262 19.326 8.36325C19.3695 9.312 19.3785 9.597 19.3785 12.0007C19.3785 14.4045 19.3695 14.688 19.326 15.6368C19.3192 16.2074 19.2145 16.7726 19.0163 17.3077C18.8665 17.696 18.6371 18.0486 18.3428 18.3428C18.0486 18.6371 17.696 18.8665 17.3077 19.0163C16.7726 19.2145 16.2074 19.3192 15.6368 19.326C14.688 19.3695 14.403 19.3785 12 19.3785C9.597 19.3785 9.312 19.3695 8.36325 19.326C7.79262 19.3192 7.2274 19.2145 6.69225 19.0163C6.304 18.8665 5.95141 18.6371 5.65716 18.3428C5.36291 18.0486 5.13352 17.696 4.98375 17.3077C4.78555 16.7726 4.68077 16.2074 4.674 15.6368C4.6305 14.688 4.6215 14.403 4.6215 12C4.6215 9.597 4.6305 9.312 4.674 8.36325C4.68077 7.79262 4.78555 7.2274 4.98375 6.69225C5.13352 6.304 5.36291 5.95141 5.65716 5.65716C5.95141 5.36291 6.304 5.13352 6.69225 4.98375C7.2274 4.78555 7.79262 4.68077 8.36325 4.674C9.312 4.6305 9.597 4.6215 12 4.6215ZM12 3C9.55575 3 9.249 3.0105 8.289 3.054C7.54258 3.06907 6.80412 3.21058 6.105 3.4725C5.50704 3.70372 4.96399 4.05733 4.51066 4.51066C4.05733 4.96399 3.70372 5.50704 3.4725 6.105C3.21049 6.80435 3.06899 7.54308 3.054 8.28975C3.0105 9.24975 3 9.555 3 12C3 14.445 3.0105 14.751 3.054 15.711C3.06907 16.4574 3.21058 17.1959 3.4725 17.895C3.70372 18.493 4.05733 19.036 4.51066 19.4893C4.96399 19.9427 5.50704 20.2963 6.105 20.5275C6.80435 20.7895 7.54308 20.931 8.28975 20.946C9.24975 20.9895 9.55575 21 12 21C14.4443 21 14.751 20.9895 15.711 20.946C16.4577 20.931 17.1964 20.7895 17.8958 20.5275C18.4937 20.2963 19.0368 19.9427 19.4901 19.4893C19.9434 19.036 20.297 18.493 20.5282 17.895C20.79 17.1956 20.9313 16.4569 20.946 15.7103C20.9895 14.7503 21 14.445 21 12C21 9.555 20.9895 9.249 20.946 8.289C20.9309 7.54258 20.7894 6.80412 20.5275 6.105C20.2963 5.50704 19.9427 4.96399 19.4893 4.51066C19.036 4.05733 18.493 3.70372 17.895 3.4725C17.1956 3.21075 16.4569 3.0695 15.7103 3.05475C14.7503 3.00975 14.445 3 12 3Z" fill="#14161D"/>
</svg>
