<svg width="36" height="40" viewBox="0 0 36 40" fill="none" xmlns="http://www.w3.org/2000/svg">
<path d="M6 9.99996V30H30V9.99996H6ZM6 6.66663H30C30.7956 6.66663 31.5587 7.01782 32.1213 7.64294C32.6839 8.26806 33 9.1159 33 9.99996V30C33 30.884 32.6839 31.7319 32.1213 32.357C31.5587 32.9821 30.7956 33.3333 30 33.3333H6C5.20435 33.3333 4.44129 32.9821 3.87868 32.357C3.31607 31.7319 3 30.884 3 30V9.99996C3 9.1159 3.31607 8.26806 3.87868 7.64294C4.44129 7.01782 5.20435 6.66663 6 6.66663ZM11.25 18.3333C11.8467 18.3333 12.419 18.0699 12.841 17.6011C13.2629 17.1322 13.5 16.4963 13.5 15.8333C13.5 15.1703 13.2629 14.5344 12.841 14.0655C12.419 13.5967 11.8467 13.3333 11.25 13.3333C10.6533 13.3333 10.081 13.5967 9.65901 14.0655C9.23705 14.5344 9 15.1703 9 15.8333C9 16.4963 9.23705 17.1322 9.65901 17.6011C10.081 18.0699 10.6533 18.3333 11.25 18.3333ZM10.5 23.3333L13.5 20L16.5 23.3333L22.5 16.6666L27 21.6666V26.6666H10.5V23.3333Z" fill="white" fill-opacity="0.6"/>
</svg>
