<svg width="24" height="22" viewBox="0 0 24 22" fill="none" xmlns="http://www.w3.org/2000/svg">
<path d="M20.5882 3.60987C20.0774 3.09888 19.471 2.69352 18.8035 2.41696C18.1361 2.14039 17.4207 1.99805 16.6982 1.99805C15.9757 1.99805 15.2603 2.14039 14.5928 2.41696C13.9254 2.69352 13.3189 3.09888 12.8082 3.60987L11.7482 4.66987L10.6882 3.60987C9.65647 2.57818 8.2572 1.99858 6.79817 1.99858C5.33913 1.99858 3.93986 2.57818 2.90817 3.60987C1.87647 4.64156 1.29688 6.04084 1.29688 7.49987C1.29687 8.95891 1.87647 10.3582 2.90817 11.3899L3.96817 12.4499L11.7482 20.2299L19.5282 12.4499L20.5882 11.3899C21.0992 10.8791 21.5045 10.2727 21.7811 9.60523C22.0576 8.93777 22.2 8.22236 22.2 7.49987C22.2 6.77738 22.0576 6.06198 21.7811 5.39452C21.5045 4.72706 21.0992 4.12063 20.5882 3.60987Z" fill="#E73131" stroke="#EFEFEF" stroke-width="2" stroke-linecap="round" stroke-linejoin="round"/>
</svg>
