<svg width="24" height="22" viewBox="0 0 24 22" fill="none" xmlns="http://www.w3.org/2000/svg">
<path d="M20.5882 3.61012C20.0774 3.09912 19.471 2.69376 18.8035 2.4172C18.1361 2.14064 17.4207 1.99829 16.6982 1.99829C15.9757 1.99829 15.2603 2.14064 14.5928 2.4172C13.9254 2.69376 13.3189 3.09912 12.8082 3.61012L11.7482 4.67012L10.6882 3.61012C9.65647 2.57842 8.2572 1.99883 6.79817 1.99883C5.33913 1.99883 3.93986 2.57842 2.90817 3.61012C1.87647 4.64181 1.29688 6.04108 1.29688 7.50012C1.29687 8.95915 1.87647 10.3584 2.90817 11.3901L3.96817 12.4501L11.7482 20.2301L19.5282 12.4501L20.5882 11.3901C21.0992 10.8794 21.5045 10.2729 21.7811 9.60547C22.0576 8.93801 22.2 8.2226 22.2 7.50012C22.2 6.77763 22.0576 6.06222 21.7811 5.39476C21.5045 4.7273 21.0992 4.12087 20.5882 3.61012V3.61012Z" stroke="#EFEFEF" stroke-width="2" stroke-linecap="round" stroke-linejoin="round"/>
</svg>
