<svg width="26" height="27" viewBox="0 0 26 27" fill="none" xmlns="http://www.w3.org/2000/svg">
<path d="M19.602 17.4017L18.0775 15.8306L21.1265 12.6861C23.6536 10.0839 23.9943 6.215 21.8898 4.04388C19.7831 1.87499 16.0291 2.2261 13.502 4.83055L10.4552 7.97278L8.93071 6.40167L11.9796 3.25944C15.3499 -0.211678 20.4688 -0.56279 23.4164 2.47277C26.364 5.51055 26.0212 10.7861 22.6531 14.2595L19.6042 17.4017H19.602ZM16.5531 20.5439L13.5041 23.6861C10.1339 27.1573 5.01495 27.5084 2.06736 24.4728C-0.880239 21.435 -0.537395 16.1595 2.83067 12.6861L5.87961 9.54389L7.40408 11.115L4.35514 14.2595C1.82801 16.8617 1.48733 20.7306 3.59183 22.9017C5.69849 25.0706 9.45252 24.7195 11.9796 22.115L15.0286 18.9728L16.5531 20.5439ZM16.5531 7.97278L18.0775 9.54389L8.92855 18.9728L7.40408 17.4017L16.5531 7.97278Z" fill="white" fill-opacity="0.7"/>
</svg>
