<svg width="40" height="40" viewBox="0 0 40 40" fill="none" xmlns="http://www.w3.org/2000/svg">
<path d="M26.6673 3.3335C27.5514 3.3335 28.3992 3.68469 29.0243 4.30981C29.6495 4.93493 30.0007 5.78277 30.0007 6.66683H6.66732V25.2952C5.78326 25.2952 4.93542 24.944 4.31029 24.3189C3.68517 23.6937 3.33398 22.8459 3.33398 21.9618V6.66683C3.33398 5.78277 3.68517 4.93493 4.31029 4.30981C4.93542 3.68469 5.78326 3.3335 6.66732 3.3335H26.6673Z" fill="url(#paint0_linear_2361_2474)"/>
<path d="M23.3333 36.6667L18.8883 31.9617H13.3333C12.4493 31.9617 11.6014 31.6105 10.9763 30.9854C10.3512 30.3602 10 29.5124 10 28.6283V13.3333C10 12.4493 10.3512 11.6014 10.9763 10.9763C11.6014 10.3512 12.4493 10 13.3333 10H33.3333C34.2174 10 35.0652 10.3512 35.6904 10.9763C36.3155 11.6014 36.6667 12.4493 36.6667 13.3333V28.6283C36.6667 29.5124 36.3155 30.3602 35.6904 30.9854C35.0652 31.6105 34.2174 31.9617 33.3333 31.9617H27.7783L23.3333 36.6667ZM26.3417 28.6283H33.3333V13.3333H13.3333V28.6283H20.325L23.3333 31.8117L26.3417 28.6283Z" fill="url(#paint1_linear_2361_2474)"/>
<defs>
<linearGradient id="paint0_linear_2361_2474" x1="3.90541" y1="8.73391" x2="30.2723" y2="9.47212" gradientUnits="userSpaceOnUse">
<stop offset="0.452889" stop-color="#FE9730"/>
<stop offset="1" stop-color="#FB5046"/>
</linearGradient>
<linearGradient id="paint1_linear_2361_2474" x1="10.5714" y1="16.5574" x2="36.945" y2="17.1655" gradientUnits="userSpaceOnUse">
<stop offset="0.452889" stop-color="#FE9730"/>
<stop offset="1" stop-color="#FB5046"/>
</linearGradient>
</defs>
</svg>
