<svg width="21" height="21" viewBox="0 0 21 21" fill="none" xmlns="http://www.w3.org/2000/svg">
<path d="M18.0862 19.5001C17.9873 19.5002 17.8893 19.4808 17.798 19.4428C17.7067 19.4048 17.6238 19.3491 17.5542 19.2788L0.405436 2.02786C0.265203 1.88676 0.186766 1.69573 0.187382 1.49679C0.187997 1.29786 0.267614 1.10731 0.408717 0.967082C0.549821 0.826848 0.740852 0.748412 0.939787 0.749027C1.13872 0.749642 1.32926 0.829259 1.4695 0.970363L18.6178 18.2204C18.7225 18.3254 18.7938 18.4591 18.8225 18.6046C18.8513 18.75 18.8363 18.9008 18.7794 19.0378C18.7225 19.1747 18.6263 19.2917 18.5029 19.374C18.3795 19.4563 18.2345 19.5002 18.0862 19.5001ZM15.6056 2.25005C13.3514 2.25005 11.8556 3.63521 11.0625 4.64068C10.2712 3.6338 8.77356 2.25005 6.51934 2.25005C6.02714 2.24971 5.53756 2.32157 5.06622 2.46333L6.37496 3.75005C7.4184 3.75005 8.52231 4.17193 9.37215 5.00021C9.77531 5.39291 10.1188 5.84252 10.3917 6.33474C10.4541 6.45905 10.5498 6.56357 10.6682 6.6366C10.7866 6.70964 10.9229 6.74832 11.062 6.74832C11.2011 6.74832 11.3374 6.70964 11.4558 6.6366C11.5742 6.56357 11.6699 6.45905 11.7323 6.33474C12.0053 5.8418 12.3491 5.39154 12.7528 4.99833C13.6026 4.17193 14.5621 3.75005 15.6056 3.75005C17.6282 3.75005 19.2909 5.45302 19.312 7.54693C19.3373 10.0636 18.2456 12.2133 16.6223 14.0869L17.6831 15.1543C17.8237 14.993 17.9503 14.843 18.0646 14.7043C19.9396 12.4191 20.8373 10.073 20.812 7.5324C20.7829 4.61818 18.4471 2.25005 15.6056 2.25005ZM11.0625 18.7501C6.95528 15.9615 2.76559 12.4501 2.81247 7.54693C2.81546 7.25658 2.85067 6.96747 2.91747 6.6849L1.73434 5.49099C1.46271 6.13669 1.31942 6.82911 1.31247 7.52958C1.28715 10.0711 2.18575 12.4172 4.05981 14.7015C4.93965 15.7735 6.53481 17.4882 10.2187 19.989C10.4671 20.1592 10.7613 20.2503 11.0625 20.2503C11.3636 20.2503 11.6578 20.1592 11.9062 19.989C12.8601 19.3416 13.6734 18.7468 14.3709 18.2026L13.3087 17.1333C12.5742 17.7001 11.8167 18.2368 11.0625 18.7501Z" fill="#EFEFEF" fill-opacity="0.87"/>
</svg>
