<svg width="18" height="18" viewBox="0 0 18 18" fill="none" xmlns="http://www.w3.org/2000/svg">
<path d="M7.98649 1.95932C8.41191 1.1369 9.58809 1.13691 10.0135 1.95932C10.3222 2.55602 11.077 2.75827 11.6426 2.39584C12.4222 1.89631 13.4409 2.48441 13.3981 3.40935C13.367 4.08043 13.9196 4.63298 14.5907 4.60193C15.5156 4.55915 16.1037 5.57776 15.6042 6.35739C15.2417 6.92304 15.444 7.67783 16.0407 7.98649C16.8631 8.41191 16.8631 9.58809 16.0407 10.0135C15.444 10.3222 15.2417 11.077 15.6042 11.6426C16.1037 12.4222 15.5156 13.4409 14.5907 13.3981C13.9196 13.367 13.367 13.9196 13.3981 14.5907C13.4409 15.5156 12.4222 16.1037 11.6426 15.6042C11.077 15.2417 10.3222 15.444 10.0135 16.0407C9.58809 16.8631 8.41191 16.8631 7.98649 16.0407C7.67783 15.444 6.92304 15.2417 6.35739 15.6042C5.57776 16.1037 4.55915 15.5156 4.60193 14.5907C4.63298 13.9196 4.08043 13.367 3.40935 13.3981C2.48441 13.4409 1.89631 12.4222 2.39584 11.6426C2.75827 11.077 2.55602 10.3222 1.95932 10.0135C1.13691 9.58809 1.1369 8.41191 1.95932 7.98649C2.55602 7.67783 2.75827 6.92304 2.39584 6.35739C1.89631 5.57776 2.48441 4.55915 3.40935 4.60193C4.08043 4.63298 4.63298 4.08043 4.60193 3.40935C4.55915 2.48441 5.57776 1.89631 6.35739 2.39584C6.92304 2.75827 7.67783 2.55602 7.98649 1.95932Z" fill="#3DD368"/>
<circle cx="9" cy="9" r="4.89583" stroke="#041F29" stroke-width="0.708333"/>
<g clip-path="url(#clip0_2615_64993)">
<path d="M9.29703 6.16459C9.2036 5.87678 8.79641 5.87678 8.70266 6.16459L8.22797 7.62521C8.20753 7.68792 8.16777 7.74255 8.11439 7.78128C8.061 7.82001 7.99674 7.84086 7.93078 7.84084H6.39516C6.09266 7.84084 5.96641 8.22834 6.21141 8.40646L7.45391 9.30896C7.50728 9.34777 7.547 9.40246 7.56738 9.46523C7.58776 9.52799 7.58775 9.59559 7.56735 9.65834L7.09297 11.119C6.99922 11.4068 7.32891 11.6465 7.5736 11.4683L8.8161 10.5658C8.8695 10.527 8.93382 10.5061 8.99985 10.5061C9.06587 10.5061 9.13019 10.527 9.1836 10.5658L10.4261 11.4683C10.6708 11.6465 11.0005 11.4071 10.9067 11.119L10.4323 9.65834C10.4119 9.59559 10.4119 9.52799 10.4323 9.46523C10.4527 9.40246 10.4924 9.34777 10.5458 9.30896L11.7883 8.40646C12.033 8.22834 11.9073 7.84084 11.6045 7.84084H10.0686C10.0027 7.84079 9.9385 7.81991 9.88518 7.78118C9.83186 7.74246 9.79215 7.68787 9.77172 7.62521L9.29703 6.16459Z" stroke="#041F29" stroke-width="0.708333" stroke-linecap="round" stroke-linejoin="round"/>
</g>
<defs>
<clipPath id="clip0_2615_64993">
<rect width="7.5" height="7.5" fill="white" transform="translate(5.25 5.25)"/>
</clipPath>
</defs>
</svg>
