<svg width="12" height="14" viewBox="0 0 12 14" fill="none" xmlns="http://www.w3.org/2000/svg">
<path d="M0.52458 13.4954L0.52409 13.4956C0.519777 13.4977 0.511236 13.5003 0.5 13.5003V1.75C0.5 1.44166 0.639419 1.13002 0.915039 0.888851C1.19279 0.645819 1.58221 0.5 2 0.5H10C10.4178 0.5 10.8072 0.645818 11.085 0.888851C11.3606 1.13002 11.5 1.44166 11.5 1.75V13.5003C11.4888 13.5003 11.4802 13.4977 11.4759 13.4956L11.4754 13.4954L6.21542 10.9842L6 10.8813L5.78458 10.9842L0.52458 13.4954ZM0.5 13.5629V13.5625C0.5 13.5626 0.5 13.5628 0.5 13.5629Z" stroke="#EFEFEF"/>
</svg>
