<svg width="40" height="40" viewBox="0 0 40 40" fill="none" xmlns="http://www.w3.org/2000/svg">
<path d="M26.6667 3.33325C27.5508 3.33325 28.3986 3.68444 29.0237 4.30956C29.6488 4.93468 30 5.78253 30 6.66659H6.66671V25.2949C5.78265 25.2949 4.93481 24.9437 4.30968 24.3186C3.68456 23.6935 3.33337 22.8456 3.33337 21.9616V6.66659C3.33337 5.78253 3.68456 4.93468 4.30968 4.30956C4.93481 3.68444 5.78265 3.33325 6.66671 3.33325H26.6667Z" fill="white" fill-opacity="0.4"/>
<path d="M23.3333 36.6667L18.8883 31.9617H13.3333C12.4493 31.9617 11.6014 31.6105 10.9763 30.9854C10.3512 30.3602 10 29.5124 10 28.6283V13.3333C10 12.4493 10.3512 11.6014 10.9763 10.9763C11.6014 10.3512 12.4493 10 13.3333 10H33.3333C34.2174 10 35.0652 10.3512 35.6904 10.9763C36.3155 11.6014 36.6667 12.4493 36.6667 13.3333V28.6283C36.6667 29.5124 36.3155 30.3602 35.6904 30.9854C35.0652 31.6105 34.2174 31.9617 33.3333 31.9617H27.7783L23.3333 36.6667ZM26.3417 28.6283H33.3333V13.3333H13.3333V28.6283H20.325L23.3333 31.8117L26.3417 28.6283Z" fill="white" fill-opacity="0.4"/>
</svg>
