<svg width="22" height="22" viewBox="0 0 22 22" fill="none" xmlns="http://www.w3.org/2000/svg">
<path d="M4.8112 16.5C4.02107 16.5 3.26331 16.1861 2.70461 15.6274C2.14591 15.0687 1.83203 14.311 1.83203 13.5208V5.72917C1.83203 4.93904 2.14591 4.18128 2.70461 3.62258C3.26331 3.06388 4.02107 2.75 4.8112 2.75H17.1862C17.5774 2.75 17.9648 2.82706 18.3263 2.97678C18.6877 3.12649 19.0161 3.34594 19.2928 3.62258C19.5694 3.89922 19.7889 4.22764 19.9386 4.58909C20.0883 4.95054 20.1654 5.33794 20.1654 5.72917V13.5208C20.1654 13.9121 20.0883 14.2995 19.9386 14.6609C19.7889 15.0224 19.5694 15.3508 19.2928 15.6274C19.0161 15.9041 18.6877 16.1235 18.3263 16.2732C17.9648 16.4229 17.5774 16.5 17.1862 16.5H11.9264L7.33203 19.9375C7.16179 20.0649 6.95946 20.1424 6.74767 20.1614C6.53587 20.1804 6.32298 20.14 6.13281 20.0449C5.94264 19.9498 5.78269 19.8036 5.67086 19.6227C5.55904 19.4419 5.49974 19.2335 5.49961 19.0208V16.5H4.81211H4.8112ZM11.4699 15.125H17.1862C17.6116 15.125 18.0197 14.956 18.3205 14.6552C18.6214 14.3543 18.7904 13.9463 18.7904 13.5208V5.72917C18.7904 5.30372 18.6214 4.89569 18.3205 4.59485C18.0197 4.29401 17.6116 4.125 17.1862 4.125H4.8112C4.38575 4.125 3.97772 4.29401 3.67688 4.59485C3.37604 4.89569 3.20703 5.30372 3.20703 5.72917V13.5208C3.20703 14.4063 3.9257 15.125 4.8112 15.125H6.87278V18.5625L11.4699 15.125Z" fill="#EFEFEF"/>
<rect x="4.89062" y="7.33325" width="9.77778" height="1.22222" rx="0.611111" fill="#EFEFEF"/>
<rect x="4.89062" y="11" width="4.88889" height="1.22222" rx="0.611111" fill="#EFEFEF"/>
</svg>
