<svg width="20" height="20" viewBox="0 0 20 20" fill="none" xmlns="http://www.w3.org/2000/svg">
<path d="M12.3289 6.39698L12.4452 6.63278L12.7054 6.67059L17.6628 7.39107C17.663 7.39109 17.6632 7.39112 17.6634 7.39115C17.7365 7.40231 17.779 7.46741 17.7695 7.52924L17.7695 7.52923L17.7687 7.53477C17.765 7.56044 17.7528 7.58525 17.7324 7.60545C17.7323 7.60557 17.7321 7.60568 17.732 7.6058L14.1451 11.1029L13.9568 11.2864L14.0013 11.5455L14.849 16.485L14.849 16.4854C14.8605 16.5518 14.816 16.6165 14.747 16.6284L14.7463 16.6285C14.7188 16.6333 14.6913 16.6283 14.6704 16.6172L14.6682 16.6161L10.2326 14.284L9.99995 14.1617L9.76727 14.284L5.33172 16.616L5.33095 16.6165C5.31046 16.6273 5.28734 16.6321 5.26422 16.6305C5.2411 16.6288 5.21891 16.6208 5.20016 16.6071L4.90633 17.0117L5.20016 16.6071C5.18141 16.5935 5.16685 16.5749 5.15813 16.5534C5.14941 16.532 5.14688 16.5085 5.15083 16.4856L5.15095 16.485L5.9986 11.5455L6.04306 11.2864L5.85485 11.1029L2.26696 7.60489L2.26692 7.60486C2.24301 7.58156 2.22934 7.54971 2.22889 7.51632C2.22845 7.48323 2.24106 7.45131 2.26395 7.42744C2.2841 7.40716 2.30878 7.39512 2.33433 7.39147L2.33553 7.3913L7.29452 6.67059L7.55471 6.63278L7.67102 6.39698L9.88662 1.90526C9.88674 1.90501 9.88687 1.90476 9.88699 1.90452C9.91922 1.84106 9.99585 1.81711 10.056 1.84679L10.0565 1.84707C10.0806 1.85889 10.1001 1.87838 10.1119 1.9024L10.1121 1.90284L12.3289 6.39698Z" stroke="#33CA5F"/>
</svg>
