<svg width="20" height="18" viewBox="0 0 20 18" fill="none" xmlns="http://www.w3.org/2000/svg">
<path d="M6.50997 17H6.42997C4.81833 16.9859 3.22999 16.6136 1.77997 15.91C1.51324 15.7847 1.29363 15.5773 1.15327 15.3182C1.01292 15.0591 0.959196 14.7619 0.999969 14.47C1.04431 14.1762 1.18036 13.9039 1.38868 13.692C1.59699 13.4801 1.86694 13.3394 2.15997 13.29C3.05858 13.1701 3.92306 12.8672 4.69997 12.4C3.35113 11.3454 2.31272 9.94559 1.69479 8.34883C1.07686 6.75206 0.902421 5.01787 1.18997 3.33002C1.22896 3.06267 1.34393 2.81216 1.52122 2.60828C1.6985 2.4044 1.93063 2.25575 2.18997 2.18002C2.44228 2.10078 2.71232 2.09739 2.96654 2.17028C3.22076 2.24317 3.44797 2.38913 3.61997 2.59002C4.20397 3.3558 4.93786 3.99458 5.77687 4.46739C6.61589 4.94019 7.54242 5.2371 8.49997 5.34002C8.54571 4.16187 9.05201 3.04874 9.90997 2.24002C10.3384 1.82979 10.8441 1.50893 11.3978 1.29613C11.9514 1.08333 12.5419 0.982838 13.1348 1.00052C13.7276 1.01821 14.3111 1.15371 14.8511 1.39913C15.391 1.64455 15.8768 1.99499 16.28 2.43002C16.385 2.52289 16.5155 2.58207 16.6546 2.5999C16.7937 2.61773 16.9349 2.59339 17.06 2.53002C17.2984 2.41757 17.5639 2.37524 17.8255 2.40797C18.0871 2.44069 18.3339 2.54713 18.5373 2.71487C18.7407 2.8826 18.8922 3.10471 18.9741 3.35528C19.056 3.60585 19.065 3.87454 19 4.13002C18.7693 5.08014 18.3323 5.96781 17.72 6.73002C17.585 9.57477 16.3308 12.2508 14.2309 14.1746C12.131 16.0985 9.35563 17.1141 6.50997 17ZM6.50997 15H6.58997C7.75264 15.04 8.91168 14.8488 9.9999 14.4375C11.0881 14.0262 12.0839 13.4029 12.9294 12.6039C13.7749 11.8049 14.4535 10.8459 14.9256 9.78271C15.3978 8.71948 15.6542 7.57309 15.68 6.41002C15.6965 6.09127 15.8279 5.7893 16.05 5.56002C16.2939 5.25127 16.5019 4.91578 16.67 4.56002C16.3097 4.56071 15.9534 4.48535 15.6242 4.33888C15.2951 4.19241 15.0006 3.97812 14.76 3.71002C14.5286 3.48058 14.2537 3.2996 13.9515 3.17768C13.6493 3.05577 13.3258 2.99537 13 3.00002C12.6709 2.99151 12.3433 3.04808 12.0362 3.16649C11.729 3.2849 11.4482 3.46282 11.21 3.69002C10.8886 3.99502 10.6529 4.37909 10.5265 4.80379C10.4002 5.22849 10.3876 5.67892 10.49 6.11002L10.75 7.25002L9.57997 7.33002C8.38106 7.42778 7.17523 7.26378 6.04598 6.84938C4.91673 6.43498 3.89105 5.78007 3.03997 4.93002C3.00347 6.24642 3.33277 7.54715 3.99126 8.68759C4.64976 9.82804 5.61164 10.7635 6.76997 11.39L7.71997 11.93L7.08997 12.83C6.40866 13.7235 5.47515 14.3923 4.40997 14.75C5.09328 14.9213 5.79554 15.0053 6.49997 15H6.50997Z" fill="#14161D"/>
</svg>
