<svg width="16" height="16" viewBox="0 0 16 16" fill="none" xmlns="http://www.w3.org/2000/svg">
<path d="M7.0991 1.74162C7.47725 1.01058 8.52275 1.01058 8.9009 1.74162C9.17526 2.27202 9.84619 2.45179 10.349 2.12963C11.042 1.68561 11.9474 2.20836 11.9094 3.03053C11.8818 3.62705 12.3729 4.1182 12.9695 4.09061C13.7916 4.05258 14.3144 4.95801 13.8704 5.65101C13.5482 6.15381 13.728 6.82474 14.2584 7.0991C14.9894 7.47725 14.9894 8.52275 14.2584 8.9009C13.728 9.17526 13.5482 9.84619 13.8704 10.349C14.3144 11.042 13.7916 11.9474 12.9695 11.9094C12.3729 11.8818 11.8818 12.3729 11.9094 12.9695C11.9474 13.7916 11.042 14.3144 10.349 13.8704C9.84619 13.5482 9.17526 13.728 8.9009 14.2584C8.52275 14.9894 7.47725 14.9894 7.0991 14.2584C6.82474 13.728 6.15381 13.5482 5.65101 13.8704C4.95801 14.3144 4.05258 13.7916 4.09061 12.9695C4.1182 12.3729 3.62705 11.8818 3.03053 11.9094C2.20836 11.9474 1.68561 11.042 2.12963 10.349C2.45179 9.84619 2.27202 9.17526 1.74162 8.9009C1.01058 8.52275 1.01058 7.47725 1.74162 7.0991C2.27202 6.82474 2.45179 6.15381 2.12963 5.65101C1.68561 4.95801 2.20836 4.05258 3.03053 4.09061C3.62705 4.1182 4.1182 3.62705 4.09061 3.03053C4.05258 2.20836 4.95801 1.68561 5.65101 2.12963C6.15381 2.45179 6.82474 2.27202 7.0991 1.74162Z" fill="url(#paint0_linear_2139_81801)"/>
<path d="M4.87898 6.94528C4.48846 6.55476 3.85529 6.55476 3.46477 6.94528C3.07424 7.3358 3.07424 7.96897 3.46477 8.35949L4.87898 6.94528ZM6.60666 10.0872L5.89955 10.7943L6.58095 11.4757L7.28711 10.82L6.60666 10.0872ZM12.1567 6.29822C12.5614 5.92242 12.5848 5.28969 12.209 4.88498C11.8332 4.48027 11.2005 4.45683 10.7958 4.83264L12.1567 6.29822ZM3.46477 8.35949L5.89955 10.7943L7.31376 9.38006L4.87898 6.94528L3.46477 8.35949ZM7.28711 10.82L12.1567 6.29822L10.7958 4.83264L5.92621 9.35438L7.28711 10.82Z" fill="#012B37"/>
<defs>
<linearGradient id="paint0_linear_2139_81801" x1="0.342857" y1="3.93443" x2="16.167" y2="4.2993" gradientUnits="userSpaceOnUse">
<stop offset="0.452889" stop-color="#FE9730"/>
<stop offset="1" stop-color="#FB5046"/>
</linearGradient>
</defs>
</svg>
